<svg width="18" height="16" viewBox="0 0 18 16" fill="none" xmlns="http://www.w3.org/2000/svg">
<path d="M0.642857 2.89286H17.3571C17.6786 2.89286 18 2.61161 18 2.25V0.642857C18 0.321429 17.6786 0 17.3571 0H0.642857C0.28125 0 0 0.321429 0 0.642857V2.25C0 2.61161 0.28125 2.89286 0.642857 2.89286ZM0.642857 9.32143H17.3571C17.6786 9.32143 18 9.04018 18 8.67857V7.07143C18 6.75 17.6786 6.42857 17.3571 6.42857H0.642857C0.28125 6.42857 0 6.75 0 7.07143V8.67857C0 9.04018 0.28125 9.32143 0.642857 9.32143ZM0.642857 15.75H17.3571C17.6786 15.75 18 15.4688 18 15.1071V13.5C18 13.1786 17.6786 12.8571 17.3571 12.8571H0.642857C0.28125 12.8571 0 13.1786 0 13.5V15.1071C0 15.4688 0.28125 15.75 0.642857 15.75Z" fill="black"/>
</svg>
