<svg width="92" height="21" viewBox="0 0 92 21" fill="none" xmlns="http://www.w3.org/2000/svg">
<path d="M42.2285 13.9062C42.2285 13.5742 42.1764 13.2812 42.0723 13.0273C41.9746 12.7669 41.7988 12.5326 41.5449 12.3242C41.2975 12.1159 40.9525 11.9173 40.5098 11.7285C40.0736 11.5397 39.5202 11.3477 38.8496 11.1523C38.1465 10.944 37.5117 10.7129 36.9453 10.459C36.3789 10.1986 35.8939 9.90234 35.4902 9.57031C35.0866 9.23828 34.7773 8.85742 34.5625 8.42773C34.3477 7.99805 34.2402 7.50651 34.2402 6.95312C34.2402 6.39974 34.3542 5.88867 34.582 5.41992C34.8099 4.95117 35.1354 4.54427 35.5586 4.19922C35.9883 3.84766 36.4993 3.57422 37.0918 3.37891C37.6842 3.18359 38.3451 3.08594 39.0742 3.08594C40.1419 3.08594 41.0469 3.29102 41.7891 3.70117C42.5378 4.10482 43.1074 4.63542 43.498 5.29297C43.8887 5.94401 44.084 6.64062 44.084 7.38281H42.209C42.209 6.84896 42.0951 6.37695 41.8672 5.9668C41.6393 5.55013 41.2943 5.22461 40.832 4.99023C40.3698 4.74935 39.7839 4.62891 39.0742 4.62891C38.4036 4.62891 37.8503 4.72982 37.4141 4.93164C36.9779 5.13346 36.6523 5.4069 36.4375 5.75195C36.2292 6.09701 36.125 6.49089 36.125 6.93359C36.125 7.23307 36.1868 7.50651 36.3105 7.75391C36.4408 7.99479 36.6393 8.2194 36.9062 8.42773C37.1797 8.63607 37.5247 8.82812 37.9414 9.00391C38.3646 9.17969 38.8691 9.34896 39.4551 9.51172C40.2624 9.73958 40.959 9.99349 41.5449 10.2734C42.1309 10.5534 42.6126 10.8691 42.9902 11.2207C43.3743 11.5658 43.6576 11.9596 43.8398 12.4023C44.0286 12.8385 44.123 13.3333 44.123 13.8867C44.123 14.4661 44.0059 14.9902 43.7715 15.459C43.5371 15.9277 43.2018 16.3281 42.7656 16.6602C42.3294 16.9922 41.8053 17.2493 41.1934 17.4316C40.5879 17.6074 39.9108 17.6953 39.1621 17.6953C38.5046 17.6953 37.8568 17.6042 37.2188 17.4219C36.5872 17.2396 36.0111 16.9661 35.4902 16.6016C34.9759 16.237 34.5625 15.7878 34.25 15.2539C33.944 14.7135 33.791 14.0885 33.791 13.3789H35.666C35.666 13.8672 35.7604 14.2871 35.9492 14.6387C36.138 14.9837 36.3952 15.2702 36.7207 15.498C37.0527 15.7259 37.4271 15.8952 37.8438 16.0059C38.2669 16.11 38.7064 16.1621 39.1621 16.1621C39.8197 16.1621 40.3763 16.071 40.832 15.8887C41.2878 15.7064 41.6328 15.446 41.8672 15.1074C42.1081 14.7689 42.2285 14.3685 42.2285 13.9062Z" fill="black"/>
<path d="M50.6367 17.6953C49.901 17.6953 49.2337 17.5716 48.6348 17.3242C48.0423 17.0703 47.5312 16.7155 47.1016 16.2598C46.6784 15.804 46.3529 15.2637 46.125 14.6387C45.8971 14.0137 45.7832 13.3301 45.7832 12.5879V12.1777C45.7832 11.3184 45.9102 10.5534 46.1641 9.88281C46.418 9.20573 46.763 8.63281 47.1992 8.16406C47.6354 7.69531 48.1302 7.34049 48.6836 7.09961C49.237 6.85872 49.8099 6.73828 50.4023 6.73828C51.1576 6.73828 51.8086 6.86849 52.3555 7.12891C52.9089 7.38932 53.3613 7.75391 53.7129 8.22266C54.0645 8.6849 54.3249 9.23177 54.4941 9.86328C54.6634 10.4883 54.748 11.1719 54.748 11.9141V12.7246H46.8574V11.25H52.9414V11.1133C52.9154 10.6445 52.8177 10.1888 52.6484 9.74609C52.4857 9.30339 52.2253 8.9388 51.8672 8.65234C51.5091 8.36589 51.0208 8.22266 50.4023 8.22266C49.9922 8.22266 49.6146 8.31055 49.2695 8.48633C48.9245 8.6556 48.6283 8.90951 48.3809 9.24805C48.1335 9.58659 47.9414 10 47.8047 10.4883C47.668 10.9766 47.5996 11.5397 47.5996 12.1777V12.5879C47.5996 13.0892 47.668 13.5612 47.8047 14.0039C47.9479 14.4401 48.153 14.8242 48.4199 15.1562C48.6934 15.4883 49.0221 15.7487 49.4062 15.9375C49.7969 16.1263 50.2396 16.2207 50.7344 16.2207C51.3724 16.2207 51.9128 16.0905 52.3555 15.8301C52.7982 15.5697 53.1855 15.2214 53.5176 14.7852L54.6113 15.6543C54.3835 15.9993 54.0938 16.3281 53.7422 16.6406C53.3906 16.9531 52.9577 17.207 52.4434 17.4023C51.9355 17.5977 51.3333 17.6953 50.6367 17.6953Z" fill="black"/>
<path d="M58.8203 2.5V17.5H57.0039V2.5H58.8203Z" fill="black"/>
<path d="M67.9512 15.6934V10.2539C67.9512 9.83724 67.8665 9.47591 67.6973 9.16992C67.5345 8.85742 67.2871 8.61654 66.9551 8.44727C66.623 8.27799 66.2129 8.19336 65.7246 8.19336C65.2689 8.19336 64.8685 8.27148 64.5234 8.42773C64.1849 8.58398 63.918 8.78906 63.7227 9.04297C63.5339 9.29688 63.4395 9.57031 63.4395 9.86328H61.6328C61.6328 9.48568 61.7305 9.11133 61.9258 8.74023C62.1211 8.36914 62.401 8.03385 62.7656 7.73438C63.1367 7.42839 63.5794 7.1875 64.0938 7.01172C64.6146 6.82943 65.194 6.73828 65.832 6.73828C66.6003 6.73828 67.2773 6.86849 67.8633 7.12891C68.4557 7.38932 68.918 7.7832 69.25 8.31055C69.5885 8.83138 69.7578 9.48568 69.7578 10.2734V15.1953C69.7578 15.5469 69.7871 15.9212 69.8457 16.3184C69.9108 16.7155 70.0052 17.0573 70.1289 17.3438V17.5H68.2441C68.153 17.2917 68.0814 17.015 68.0293 16.6699C67.9772 16.3184 67.9512 15.9928 67.9512 15.6934ZM68.2637 11.0938L68.2832 12.3633H66.457C65.9427 12.3633 65.4837 12.4056 65.0801 12.4902C64.6764 12.5684 64.3379 12.6888 64.0645 12.8516C63.791 13.0143 63.5827 13.2194 63.4395 13.4668C63.2962 13.7077 63.2246 13.9909 63.2246 14.3164C63.2246 14.6484 63.2995 14.9512 63.4492 15.2246C63.599 15.498 63.8236 15.7161 64.123 15.8789C64.429 16.0352 64.8034 16.1133 65.2461 16.1133C65.7995 16.1133 66.2878 15.9961 66.7109 15.7617C67.1341 15.5273 67.4694 15.2409 67.7168 14.9023C67.9707 14.5638 68.1074 14.235 68.127 13.916L68.8984 14.7852C68.8529 15.0586 68.7292 15.3613 68.5273 15.6934C68.3255 16.0254 68.0553 16.3444 67.7168 16.6504C67.3848 16.9499 66.9876 17.2005 66.5254 17.4023C66.0697 17.5977 65.5553 17.6953 64.9824 17.6953C64.2663 17.6953 63.638 17.5553 63.0977 17.2754C62.5638 16.9954 62.1471 16.6211 61.8477 16.1523C61.5547 15.6771 61.4082 15.1465 61.4082 14.5605C61.4082 13.9941 61.5189 13.4961 61.7402 13.0664C61.9616 12.6302 62.2806 12.2689 62.6973 11.9824C63.1139 11.6895 63.6152 11.4681 64.2012 11.3184C64.7871 11.1686 65.4414 11.0938 66.1641 11.0938H68.2637Z" fill="black"/>
<path d="M78.752 14.6973C78.752 14.4368 78.6934 14.196 78.5762 13.9746C78.4655 13.7467 78.2344 13.5417 77.8828 13.3594C77.5378 13.1706 77.0169 13.0078 76.3203 12.8711C75.7344 12.7474 75.2038 12.6009 74.7285 12.4316C74.2598 12.2624 73.8594 12.0573 73.5273 11.8164C73.2018 11.5755 72.9512 11.2923 72.7754 10.9668C72.5996 10.6413 72.5117 10.2604 72.5117 9.82422C72.5117 9.40755 72.6029 9.01367 72.7852 8.64258C72.974 8.27148 73.2376 7.94271 73.5762 7.65625C73.9212 7.36979 74.3346 7.14518 74.8164 6.98242C75.2982 6.81966 75.8353 6.73828 76.4277 6.73828C77.2741 6.73828 77.9967 6.88802 78.5957 7.1875C79.1947 7.48698 79.6536 7.88737 79.9727 8.38867C80.2917 8.88346 80.4512 9.43359 80.4512 10.0391H78.6445C78.6445 9.74609 78.5566 9.46289 78.3809 9.18945C78.2116 8.90951 77.9609 8.67839 77.6289 8.49609C77.3034 8.3138 76.903 8.22266 76.4277 8.22266C75.9264 8.22266 75.5195 8.30078 75.207 8.45703C74.901 8.60677 74.6764 8.79883 74.5332 9.0332C74.3965 9.26758 74.3281 9.51497 74.3281 9.77539C74.3281 9.9707 74.3607 10.1465 74.4258 10.3027C74.4974 10.4525 74.6211 10.5924 74.7969 10.7227C74.9727 10.8464 75.2201 10.9635 75.5391 11.0742C75.8581 11.1849 76.265 11.2956 76.7598 11.4062C77.6257 11.6016 78.3385 11.8359 78.8984 12.1094C79.4583 12.3828 79.875 12.7181 80.1484 13.1152C80.4219 13.5124 80.5586 13.9941 80.5586 14.5605C80.5586 15.0228 80.4609 15.446 80.2656 15.8301C80.0768 16.2142 79.8001 16.5462 79.4355 16.8262C79.0775 17.0996 78.6478 17.3145 78.1465 17.4707C77.6517 17.6204 77.0951 17.6953 76.4766 17.6953C75.5456 17.6953 74.7578 17.5293 74.1133 17.1973C73.4688 16.8652 72.9805 16.4355 72.6484 15.9082C72.3164 15.3809 72.1504 14.8242 72.1504 14.2383H73.9668C73.9928 14.7331 74.1361 15.127 74.3965 15.4199C74.6569 15.7064 74.9759 15.9115 75.3535 16.0352C75.7311 16.1523 76.1055 16.2109 76.4766 16.2109C76.9714 16.2109 77.3848 16.1458 77.7168 16.0156C78.0553 15.8854 78.3125 15.7064 78.4883 15.4785C78.6641 15.2507 78.752 14.9902 78.752 14.6973Z" fill="black"/>
<path d="M89.1621 15.6934V10.2539C89.1621 9.83724 89.0775 9.47591 88.9082 9.16992C88.7454 8.85742 88.498 8.61654 88.166 8.44727C87.834 8.27799 87.4238 8.19336 86.9355 8.19336C86.4798 8.19336 86.0794 8.27148 85.7344 8.42773C85.3958 8.58398 85.1289 8.78906 84.9336 9.04297C84.7448 9.29688 84.6504 9.57031 84.6504 9.86328H82.8438C82.8438 9.48568 82.9414 9.11133 83.1367 8.74023C83.332 8.36914 83.612 8.03385 83.9766 7.73438C84.3477 7.42839 84.7904 7.1875 85.3047 7.01172C85.8255 6.82943 86.4049 6.73828 87.043 6.73828C87.8112 6.73828 88.4883 6.86849 89.0742 7.12891C89.6667 7.38932 90.1289 7.7832 90.4609 8.31055C90.7995 8.83138 90.9688 9.48568 90.9688 10.2734V15.1953C90.9688 15.5469 90.998 15.9212 91.0566 16.3184C91.1217 16.7155 91.2161 17.0573 91.3398 17.3438V17.5H89.4551C89.3639 17.2917 89.2923 17.015 89.2402 16.6699C89.1882 16.3184 89.1621 15.9928 89.1621 15.6934ZM89.4746 11.0938L89.4941 12.3633H87.668C87.1536 12.3633 86.6947 12.4056 86.291 12.4902C85.8874 12.5684 85.5488 12.6888 85.2754 12.8516C85.002 13.0143 84.7936 13.2194 84.6504 13.4668C84.5072 13.7077 84.4355 13.9909 84.4355 14.3164C84.4355 14.6484 84.5104 14.9512 84.6602 15.2246C84.8099 15.498 85.0345 15.7161 85.334 15.8789C85.64 16.0352 86.0143 16.1133 86.457 16.1133C87.0104 16.1133 87.4987 15.9961 87.9219 15.7617C88.3451 15.5273 88.6803 15.2409 88.9277 14.9023C89.1816 14.5638 89.3184 14.235 89.3379 13.916L90.1094 14.7852C90.0638 15.0586 89.9401 15.3613 89.7383 15.6934C89.5365 16.0254 89.2663 16.3444 88.9277 16.6504C88.5957 16.9499 88.1986 17.2005 87.7363 17.4023C87.2806 17.5977 86.7663 17.6953 86.1934 17.6953C85.4772 17.6953 84.849 17.5553 84.3086 17.2754C83.7747 16.9954 83.3581 16.6211 83.0586 16.1523C82.7656 15.6771 82.6191 15.1465 82.6191 14.5605C82.6191 13.9941 82.7298 13.4961 82.9512 13.0664C83.1725 12.6302 83.4915 12.2689 83.9082 11.9824C84.3249 11.6895 84.8262 11.4681 85.4121 11.3184C85.998 11.1686 86.6523 11.0938 87.375 11.0938H89.4746Z" fill="black"/>
<path d="M18.75 0H2.25C0.984375 0 0 1.03125 0 2.25V18.75C0 20.0156 0.984375 21 2.25 21H18.75C19.9688 21 21 20.0156 21 18.75V2.25C21 1.03125 19.9688 0 18.75 0ZM18.75 18.75H2.25V2.25H18.75V18.75ZM17.0625 7.45312C17.25 7.21875 17.25 6.89062 17.0625 6.65625L15.9844 5.57812C15.7969 5.34375 15.4219 5.34375 15.1875 5.57812L8.57812 12.1406L5.76562 9.32812C5.53125 9.09375 5.20312 9.09375 4.96875 9.32812L3.89062 10.3594C3.70312 10.5938 3.70312 10.9688 3.89062 11.1562L8.15625 15.4688C8.39062 15.7031 8.71875 15.7031 8.95312 15.4688L17.0625 7.45312Z" fill="black"/>
</svg>
