<svg width="18" height="20" viewBox="0 0 18 20" fill="none" xmlns="http://www.w3.org/2000/svg">
<path d="M8.75 10C11.4844 10 13.75 7.77344 13.75 5C13.75 2.26562 11.4844 0 8.75 0C5.97656 0 3.75 2.26562 3.75 5C3.75 7.77344 5.97656 10 8.75 10ZM12.2266 11.25H11.5625C10.7031 11.6797 9.76562 11.875 8.75 11.875C7.73438 11.875 6.75781 11.6797 5.89844 11.25H5.23438C2.34375 11.25 0 13.6328 0 16.5234V18.125C0 19.1797 0.820312 20 1.875 20H15.625C16.6406 20 17.5 19.1797 17.5 18.125V16.5234C17.5 13.6328 15.1172 11.25 12.2266 11.25Z" fill="black" fill-opacity="0.5"/>
</svg>
