<svg width="37" height="28" viewBox="0 0 37 28" fill="none" xmlns="http://www.w3.org/2000/svg">
<path d="M17.6018 7.26622L6.07606 16.7875V26.9978C6.07606 27.5615 6.51454 28 7.0783 28H14.094C14.5951 28 15.0336 27.5615 15.0336 26.9978V20.9843C15.0336 20.4832 15.5347 19.9821 16.0358 19.9821H20.0447C20.6085 19.9821 21.047 20.4832 21.047 20.9843V26.9978C21.047 27.5615 21.5481 28 22.0492 28H29.1275C29.6286 28 30.1298 27.5615 30.1298 26.9978V16.7248L18.5414 7.26622C18.4161 7.14094 18.2282 7.0783 18.1029 7.0783C17.915 7.0783 17.7271 7.14094 17.6018 7.26622ZM35.83 13.7181L30.6309 9.39597V0.751678C30.6309 0.313199 30.255 0 29.8792 0H26.3714C25.9329 0 25.6197 0.313199 25.6197 0.751678V5.26174L19.9821 0.626398C19.481 0.250559 18.7919 0 18.1029 0C17.3512 0 16.6622 0.250559 16.1611 0.626398L0.313199 13.7181C0.12528 13.8434 0 14.094 0 14.2819C0 14.4698 0.12528 14.6577 0.187919 14.783L1.81655 16.7248C1.94183 16.9128 2.12975 16.9754 2.38031 16.9754C2.56823 16.9754 2.75615 16.9128 2.88143 16.7875L17.6018 4.69799C17.7271 4.57271 17.915 4.51007 18.1029 4.51007C18.2282 4.51007 18.4161 4.57271 18.5414 4.69799L33.2617 16.7875C33.387 16.9128 33.5749 16.9754 33.7629 16.9754C34.0134 16.9754 34.2013 16.9128 34.3266 16.7248L35.9553 14.783C36.0805 14.6577 36.1432 14.4698 36.1432 14.2819C36.1432 14.094 36.0179 13.8434 35.83 13.7181Z" fill="white"/>
</svg>
