<svg width="35" height="33" viewBox="0 0 35 33" fill="none" xmlns="http://www.w3.org/2000/svg">
<path d="M32.3738 11.1461L23.2315 9.83112L19.0987 1.50285C18.4099 0.0626186 16.2808 0 15.5294 1.50285L11.4592 9.83112L2.25427 11.1461C0.626186 11.3966 0 13.4004 1.18975 14.5901L7.76471 21.0398L6.19924 30.1195C5.94877 31.7476 7.70209 33 9.14231 32.2486L17.3454 27.9279L25.4858 32.2486C26.926 33 28.6793 31.7476 28.4288 30.1195L26.8634 21.0398L33.4383 14.5901C34.6281 13.4004 34.0019 11.3966 32.3738 11.1461ZM23.6072 19.9753L25.1101 28.6167L17.3454 24.5465L9.51803 28.6167L11.0209 19.9753L4.69639 13.8387L13.4004 12.5863L17.3454 4.69639L21.2277 12.5863L29.9317 13.8387L23.6072 19.9753Z" fill="black"/>
</svg>
