<svg width="89" height="21" viewBox="0 0 89 21" fill="none" xmlns="http://www.w3.org/2000/svg">
<path d="M36.5352 3.28125V17.5H34.6504V3.28125H36.5352ZM45.1191 3.28125L39.2109 9.91211L35.8906 13.3594L35.5781 11.3477L38.0781 8.59375L42.8535 3.28125H45.1191ZM43.3027 17.5L38.0391 10.5664L39.1621 9.07227L45.5488 17.5H43.3027Z" fill="black"/>
<path d="M53.166 15.6934V10.2539C53.166 9.83724 53.0814 9.47591 52.9121 9.16992C52.7493 8.85742 52.502 8.61654 52.1699 8.44727C51.8379 8.27799 51.4277 8.19336 50.9395 8.19336C50.4837 8.19336 50.0833 8.27148 49.7383 8.42773C49.3997 8.58398 49.1328 8.78906 48.9375 9.04297C48.7487 9.29688 48.6543 9.57031 48.6543 9.86328H46.8477C46.8477 9.48568 46.9453 9.11133 47.1406 8.74023C47.3359 8.36914 47.6159 8.03385 47.9805 7.73438C48.3516 7.42839 48.7943 7.1875 49.3086 7.01172C49.8294 6.82943 50.4089 6.73828 51.0469 6.73828C51.8151 6.73828 52.4922 6.86849 53.0781 7.12891C53.6706 7.38932 54.1328 7.7832 54.4648 8.31055C54.8034 8.83138 54.9727 9.48568 54.9727 10.2734V15.1953C54.9727 15.5469 55.002 15.9212 55.0605 16.3184C55.1257 16.7155 55.2201 17.0573 55.3438 17.3438V17.5H53.459C53.3678 17.2917 53.2962 17.015 53.2441 16.6699C53.1921 16.3184 53.166 15.9928 53.166 15.6934ZM53.4785 11.0938L53.498 12.3633H51.6719C51.1576 12.3633 50.6986 12.4056 50.2949 12.4902C49.8913 12.5684 49.5527 12.6888 49.2793 12.8516C49.0059 13.0143 48.7975 13.2194 48.6543 13.4668C48.5111 13.7077 48.4395 13.9909 48.4395 14.3164C48.4395 14.6484 48.5143 14.9512 48.6641 15.2246C48.8138 15.498 49.0384 15.7161 49.3379 15.8789C49.6439 16.0352 50.0182 16.1133 50.4609 16.1133C51.0143 16.1133 51.5026 15.9961 51.9258 15.7617C52.349 15.5273 52.6842 15.2409 52.9316 14.9023C53.1855 14.5638 53.3223 14.235 53.3418 13.916L54.1133 14.7852C54.0677 15.0586 53.944 15.3613 53.7422 15.6934C53.5404 16.0254 53.2702 16.3444 52.9316 16.6504C52.5996 16.9499 52.2025 17.2005 51.7402 17.4023C51.2845 17.5977 50.7702 17.6953 50.1973 17.6953C49.4811 17.6953 48.8529 17.5553 48.3125 17.2754C47.7786 16.9954 47.362 16.6211 47.0625 16.1523C46.7695 15.6771 46.623 15.1465 46.623 14.5605C46.623 13.9941 46.7337 13.4961 46.9551 13.0664C47.1764 12.6302 47.4954 12.2689 47.9121 11.9824C48.3288 11.6895 48.8301 11.4681 49.416 11.3184C50.002 11.1686 50.6562 11.0938 51.3789 11.0938H53.4785Z" fill="black"/>
<path d="M59.6113 9.0332V17.5H57.7949V6.93359H59.5137L59.6113 9.0332ZM59.2402 11.8164L58.4004 11.7871C58.4069 11.0645 58.5013 10.3971 58.6836 9.78516C58.8659 9.16667 59.1361 8.62956 59.4941 8.17383C59.8522 7.7181 60.2982 7.36654 60.832 7.11914C61.3659 6.86523 61.9844 6.73828 62.6875 6.73828C63.1823 6.73828 63.638 6.8099 64.0547 6.95312C64.4714 7.08984 64.8327 7.30794 65.1387 7.60742C65.4447 7.9069 65.6823 8.29102 65.8516 8.75977C66.0208 9.22852 66.1055 9.79492 66.1055 10.459V17.5H64.2988V10.5469C64.2988 9.99349 64.2044 9.55078 64.0156 9.21875C63.8333 8.88672 63.5729 8.64583 63.2344 8.49609C62.8958 8.33984 62.4987 8.26172 62.043 8.26172C61.5091 8.26172 61.0632 8.35612 60.7051 8.54492C60.347 8.73372 60.0605 8.99414 59.8457 9.32617C59.6309 9.6582 59.4746 10.0391 59.377 10.4688C59.2858 10.8919 59.2402 11.3411 59.2402 11.8164ZM66.0859 10.8203L64.875 11.1914C64.8815 10.612 64.9759 10.0553 65.1582 9.52148C65.347 8.98763 65.6172 8.51237 65.9688 8.0957C66.3268 7.67904 66.7663 7.35026 67.2871 7.10938C67.8079 6.86198 68.4036 6.73828 69.0742 6.73828C69.6406 6.73828 70.1419 6.81315 70.5781 6.96289C71.0208 7.11263 71.3919 7.34375 71.6914 7.65625C71.9974 7.96224 72.2285 8.35612 72.3848 8.83789C72.541 9.31966 72.6191 9.89258 72.6191 10.5566V17.5H70.8027V10.5371C70.8027 9.94466 70.7083 9.48568 70.5195 9.16016C70.3372 8.82812 70.0768 8.59701 69.7383 8.4668C69.4062 8.33008 69.0091 8.26172 68.5469 8.26172C68.1497 8.26172 67.7982 8.33008 67.4922 8.4668C67.1862 8.60352 66.929 8.79232 66.7207 9.0332C66.5124 9.26758 66.3529 9.53776 66.2422 9.84375C66.138 10.1497 66.0859 10.4753 66.0859 10.8203Z" fill="black"/>
<path d="M77.3164 6.93359V17.5H75.5V6.93359H77.3164ZM75.3633 4.13086C75.3633 3.83789 75.4512 3.59049 75.627 3.38867C75.8092 3.18685 76.0762 3.08594 76.4277 3.08594C76.7728 3.08594 77.0365 3.18685 77.2188 3.38867C77.4076 3.59049 77.502 3.83789 77.502 4.13086C77.502 4.41081 77.4076 4.65169 77.2188 4.85352C77.0365 5.04883 76.7728 5.14648 76.4277 5.14648C76.0762 5.14648 75.8092 5.04883 75.627 4.85352C75.4512 4.65169 75.3633 4.41081 75.3633 4.13086Z" fill="black"/>
<path d="M86.3691 14.6973C86.3691 14.4368 86.3105 14.196 86.1934 13.9746C86.0827 13.7467 85.8516 13.5417 85.5 13.3594C85.1549 13.1706 84.6341 13.0078 83.9375 12.8711C83.3516 12.7474 82.821 12.6009 82.3457 12.4316C81.877 12.2624 81.4766 12.0573 81.1445 11.8164C80.819 11.5755 80.5684 11.2923 80.3926 10.9668C80.2168 10.6413 80.1289 10.2604 80.1289 9.82422C80.1289 9.40755 80.2201 9.01367 80.4023 8.64258C80.5911 8.27148 80.8548 7.94271 81.1934 7.65625C81.5384 7.36979 81.9518 7.14518 82.4336 6.98242C82.9154 6.81966 83.4525 6.73828 84.0449 6.73828C84.8913 6.73828 85.6139 6.88802 86.2129 7.1875C86.8118 7.48698 87.2708 7.88737 87.5898 8.38867C87.9089 8.88346 88.0684 9.43359 88.0684 10.0391H86.2617C86.2617 9.74609 86.1738 9.46289 85.998 9.18945C85.8288 8.90951 85.5781 8.67839 85.2461 8.49609C84.9206 8.3138 84.5202 8.22266 84.0449 8.22266C83.5436 8.22266 83.1367 8.30078 82.8242 8.45703C82.5182 8.60677 82.2936 8.79883 82.1504 9.0332C82.0137 9.26758 81.9453 9.51497 81.9453 9.77539C81.9453 9.9707 81.9779 10.1465 82.043 10.3027C82.1146 10.4525 82.2383 10.5924 82.4141 10.7227C82.5898 10.8464 82.8372 10.9635 83.1562 11.0742C83.4753 11.1849 83.8822 11.2956 84.377 11.4062C85.2428 11.6016 85.9557 11.8359 86.5156 12.1094C87.0755 12.3828 87.4922 12.7181 87.7656 13.1152C88.0391 13.5124 88.1758 13.9941 88.1758 14.5605C88.1758 15.0228 88.0781 15.446 87.8828 15.8301C87.694 16.2142 87.4173 16.5462 87.0527 16.8262C86.6947 17.0996 86.265 17.3145 85.7637 17.4707C85.2689 17.6204 84.7122 17.6953 84.0938 17.6953C83.1628 17.6953 82.375 17.5293 81.7305 17.1973C81.0859 16.8652 80.5977 16.4355 80.2656 15.9082C79.9336 15.3809 79.7676 14.8242 79.7676 14.2383H81.584C81.61 14.7331 81.7533 15.127 82.0137 15.4199C82.2741 15.7064 82.5931 15.9115 82.9707 16.0352C83.3483 16.1523 83.7227 16.2109 84.0938 16.2109C84.5885 16.2109 85.002 16.1458 85.334 16.0156C85.6725 15.8854 85.9297 15.7064 86.1055 15.4785C86.2812 15.2507 86.3691 14.9902 86.3691 14.6973Z" fill="black"/>
<path d="M18.75 0H2.25C0.984375 0 0 1.03125 0 2.25V18.75C0 20.0156 0.984375 21 2.25 21H18.75C19.9688 21 21 20.0156 21 18.75V2.25C21 1.03125 19.9688 0 18.75 0ZM18.75 18.75H2.25V2.25H18.75V18.75ZM17.0625 7.45312C17.25 7.21875 17.25 6.89062 17.0625 6.65625L15.9844 5.57812C15.7969 5.34375 15.4219 5.34375 15.1875 5.57812L8.57812 12.1406L5.76562 9.32812C5.53125 9.09375 5.20312 9.09375 4.96875 9.32812L3.89062 10.3594C3.70312 10.5938 3.70312 10.9688 3.89062 11.1562L8.15625 15.4688C8.39062 15.7031 8.71875 15.7031 8.95312 15.4688L17.0625 7.45312Z" fill="black"/>
</svg>
