<svg width="199" height="19" viewBox="0 0 199 19" fill="none" xmlns="http://www.w3.org/2000/svg">
<path d="M0.715153 1.18411H2.90751L8.49976 15.1003L14.0803 1.18411H16.2844L9.34388 18.254H7.6322L0.715153 1.18411ZM0 1.18411H1.93443L2.25097 11.5949V18.254H0V1.18411ZM15.0534 1.18411H16.9878V18.254H14.7368V11.5949L15.0534 1.18411Z" fill="black"/>
<path d="M25.8979 18.4885C25.0147 18.4885 24.2136 18.34 23.4945 18.0429C22.7833 17.7381 22.1697 17.3122 21.6539 16.7651C21.1459 16.2179 20.7551 15.5692 20.4815 14.8189C20.2079 14.0686 20.0712 13.2479 20.0712 12.3569V11.8645C20.0712 10.8328 20.2236 9.91444 20.5284 9.1094C20.8332 8.29655 21.2475 7.60875 21.7711 7.04601C22.2948 6.48327 22.8888 6.0573 23.5531 5.76812C24.2175 5.47893 24.9053 5.33433 25.6165 5.33433C26.5232 5.33433 27.3048 5.49065 27.9613 5.80329C28.6256 6.11592 29.1688 6.55361 29.5909 7.11635C30.013 7.67128 30.3256 8.32782 30.5288 9.08595C30.732 9.83628 30.8336 10.6569 30.8336 11.548V12.521H21.3608V10.7507H28.6647V10.5866C28.6335 10.0239 28.5162 9.47675 28.313 8.94527C28.1176 8.41379 27.805 7.9761 27.3751 7.6322C26.9452 7.2883 26.359 7.11635 25.6165 7.11635C25.1241 7.11635 24.6708 7.22187 24.2566 7.4329C23.8423 7.63611 23.4867 7.94093 23.1897 8.34735C22.8927 8.75378 22.6621 9.25009 22.498 9.83628C22.3339 10.4225 22.2518 11.0985 22.2518 11.8645V12.3569C22.2518 12.9587 22.3339 13.5254 22.498 14.0569C22.6699 14.5805 22.9161 15.0417 23.2366 15.4403C23.5649 15.8389 23.9596 16.1515 24.4207 16.3782C24.8897 16.6048 25.4211 16.7182 26.0151 16.7182C26.7811 16.7182 27.4298 16.5618 27.9613 16.2492C28.4928 15.9366 28.9578 15.5184 29.3564 14.9948L30.6695 16.0382C30.3959 16.4524 30.0481 16.8471 29.6261 17.2223C29.204 17.5974 28.6843 17.9023 28.0668 18.1367C27.4572 18.3712 26.7342 18.4885 25.8979 18.4885Z" fill="black"/>
<path d="M35.5349 8.27701V18.254H33.366V5.56881H35.4176L35.5349 8.27701ZM35.019 11.4307L34.1163 11.3955C34.1241 10.528 34.2531 9.72686 34.5032 8.99216C34.7533 8.24966 35.105 7.60485 35.5583 7.05774C36.0116 6.51062 36.5509 6.08857 37.1762 5.79156C37.8093 5.48674 38.5088 5.33433 39.2748 5.33433C39.9 5.33433 40.4628 5.42031 40.963 5.59226C41.4632 5.75639 41.8892 6.02213 42.2409 6.38948C42.6004 6.75682 42.874 7.23359 43.0616 7.81978C43.2491 8.39816 43.3429 9.10549 43.3429 9.94179V18.254H41.1623V9.91835C41.1623 9.254 41.0646 8.72252 40.8692 8.32391C40.6738 7.91748 40.3885 7.62439 40.0134 7.44462C39.6382 7.25704 39.1771 7.16325 38.63 7.16325C38.0907 7.16325 37.5983 7.27658 37.1528 7.50324C36.7151 7.7299 36.336 8.04254 36.0156 8.44115C35.7029 8.83975 35.4567 9.29698 35.277 9.81283C35.105 10.3209 35.019 10.8602 35.019 11.4307Z" fill="black"/>
<path d="M54.633 15.792V0.2462H56.8136V18.254H54.8205L54.633 15.792ZM46.098 12.0521V11.8059C46.098 10.8367 46.2153 9.95743 46.4497 9.16802C46.692 8.3708 47.032 7.68691 47.4697 7.11635C47.9152 6.5458 48.4428 6.10811 49.0524 5.80329C49.6699 5.49065 50.3577 5.33433 51.1158 5.33433C51.913 5.33433 52.6087 5.47502 53.2027 5.75639C53.8045 6.02995 54.3125 6.43247 54.7268 6.96394C55.1488 7.48761 55.481 8.12069 55.7233 8.8632C55.9656 9.60571 56.1336 10.4459 56.2274 11.3838V12.4624C56.1414 13.3925 55.9734 14.2288 55.7233 14.9713C55.481 15.7138 55.1488 16.3469 54.7268 16.8706C54.3125 17.3942 53.8045 17.7967 53.2027 18.0781C52.6008 18.3517 51.8974 18.4885 51.0924 18.4885C50.3499 18.4885 49.6699 18.3282 49.0524 18.0078C48.4428 17.6873 47.9152 17.2379 47.4697 16.6595C47.032 16.0812 46.692 15.4012 46.4497 14.6196C46.2153 13.8302 46.098 12.9744 46.098 12.0521ZM48.2787 11.8059V12.0521C48.2787 12.6852 48.3412 13.2792 48.4662 13.8341C48.5991 14.389 48.8023 14.8775 49.0759 15.2996C49.3494 15.7216 49.6972 16.0538 50.1193 16.2961C50.5414 16.5306 51.0455 16.6478 51.6317 16.6478C52.3507 16.6478 52.9408 16.4954 53.402 16.1906C53.8709 15.8858 54.2461 15.4832 54.5275 14.983C54.8088 14.4828 55.0277 13.9396 55.184 13.3534V10.528C55.0902 10.0981 54.9534 9.68387 54.7737 9.28526C54.6017 8.87883 54.375 8.5193 54.0937 8.20667C53.8201 7.88622 53.4801 7.6322 53.0737 7.44462C52.6751 7.25704 52.2022 7.16325 51.6551 7.16325C51.0611 7.16325 50.5492 7.2883 50.1193 7.53841C49.6972 7.7807 49.3494 8.11679 49.0759 8.54666C48.8023 8.96872 48.5991 9.46112 48.4662 10.0239C48.3412 10.5788 48.2787 11.1728 48.2787 11.8059Z" fill="black"/>
<path d="M67.6698 16.0851V9.55491C67.6698 9.05469 67.5682 8.62091 67.365 8.25356C67.1696 7.8784 66.8726 7.58921 66.474 7.386C66.0754 7.18279 65.583 7.08118 64.9968 7.08118C64.4497 7.08118 63.969 7.17497 63.5548 7.36255C63.1484 7.55014 62.8279 7.79634 62.5934 8.10115C62.3668 8.40597 62.2534 8.73424 62.2534 9.08595H60.0845C60.0845 8.63263 60.2018 8.18322 60.4363 7.73772C60.6707 7.29221 61.0068 6.88969 61.4445 6.53016C61.89 6.16282 62.4215 5.87363 63.0389 5.6626C63.6642 5.44376 64.3598 5.33433 65.1258 5.33433C66.0481 5.33433 66.8609 5.49065 67.5643 5.80329C68.2756 6.11592 68.8305 6.58878 69.2291 7.22187C69.6355 7.84714 69.8388 8.63263 69.8388 9.57836V15.4872C69.8388 15.9092 69.8739 16.3586 69.9443 16.8354C70.0224 17.3122 70.1358 17.7225 70.2843 18.0664V18.254H68.0216C67.9121 18.0039 67.8262 17.6717 67.7636 17.2575C67.7011 16.8354 67.6698 16.4446 67.6698 16.0851ZM68.045 10.5632L68.0685 12.0873H65.8761C65.2587 12.0873 64.7076 12.1381 64.223 12.2397C63.7385 12.3335 63.332 12.478 63.0038 12.6734C62.6755 12.8688 62.4254 13.115 62.2534 13.412C62.0815 13.7012 61.9955 14.0412 61.9955 14.432C61.9955 14.8306 62.0854 15.1941 62.2652 15.5223C62.4449 15.8506 62.7146 16.1124 63.0741 16.3078C63.4415 16.4954 63.8909 16.5892 64.4224 16.5892C65.0867 16.5892 65.6729 16.4485 66.1809 16.1671C66.689 15.8858 67.0915 15.5419 67.3885 15.1354C67.6933 14.729 67.8574 14.3343 67.8809 13.9513L68.8071 14.9948C68.7523 15.323 68.6038 15.6865 68.3616 16.0851C68.1193 16.4837 67.7949 16.8667 67.3885 17.234C66.9899 17.5935 66.5131 17.8944 65.9582 18.1367C65.4111 18.3712 64.7936 18.4885 64.1058 18.4885C63.2461 18.4885 62.4918 18.3204 61.8431 17.9843C61.2022 17.6482 60.702 17.1988 60.3425 16.6361C59.9908 16.0655 59.8149 15.4285 59.8149 14.7251C59.8149 14.0451 59.9478 13.4472 60.2135 12.9314C60.4792 12.4077 60.8622 11.9739 61.3624 11.63C61.8627 11.2783 62.4645 11.0126 63.1679 10.8328C63.8713 10.653 64.6568 10.5632 65.5244 10.5632H68.045Z" fill="black"/>
<path d="M76.4862 18.254H74.3172V4.2323C74.3172 3.31784 74.4814 2.54798 74.8097 1.92271C75.1457 1.28962 75.6264 0.812851 76.2517 0.4924C76.8769 0.164133 77.6195 0 78.4792 0C78.7293 0 78.9794 0.0156318 79.2295 0.0468953C79.4875 0.0781588 79.7376 0.125054 79.9799 0.187581L79.8626 1.95788C79.6985 1.9188 79.5109 1.89144 79.2999 1.87581C79.0967 1.86018 78.8934 1.85236 78.6902 1.85236C78.2291 1.85236 77.8305 1.94615 77.4944 2.13373C77.1661 2.3135 76.916 2.57924 76.7441 2.93095C76.5721 3.28267 76.4862 3.71645 76.4862 4.2323V18.254ZM79.1826 5.56881V7.23359H72.3125V5.56881H79.1826Z" fill="black"/>
<path d="M86.9086 5.56881V7.23359H80.0502V5.56881H86.9086ZM82.3715 2.48545H84.5404V15.112C84.5404 15.5419 84.6068 15.8662 84.7397 16.0851C84.8726 16.3039 85.0445 16.4485 85.2556 16.5189C85.4666 16.5892 85.6933 16.6244 85.9355 16.6244C86.1153 16.6244 86.3029 16.6087 86.4983 16.5775C86.7015 16.5384 86.8539 16.5071 86.9555 16.4837L86.9672 18.254C86.7953 18.3087 86.5686 18.3595 86.2873 18.4064C86.0137 18.4611 85.6815 18.4885 85.2907 18.4885C84.7593 18.4885 84.2708 18.3829 83.8253 18.1719C83.3798 17.9609 83.0241 17.6092 82.7584 17.1168C82.5005 16.6166 82.3715 15.9444 82.3715 15.1003V2.48545Z" fill="black"/>
<path d="M96.9325 16.0851V9.55491C96.9325 9.05469 96.8309 8.62091 96.6277 8.25356C96.4323 7.8784 96.1353 7.58921 95.7367 7.386C95.338 7.18279 94.8456 7.08118 94.2595 7.08118C93.7123 7.08118 93.2317 7.17497 92.8174 7.36255C92.411 7.55014 92.0906 7.79634 91.8561 8.10115C91.6294 8.40597 91.5161 8.73424 91.5161 9.08595H89.3472C89.3472 8.63263 89.4644 8.18322 89.6989 7.73772C89.9334 7.29221 90.2695 6.88969 90.7071 6.53016C91.1526 6.16282 91.6841 5.87363 92.3016 5.6626C92.9268 5.44376 93.6225 5.33433 94.3884 5.33433C95.3107 5.33433 96.1235 5.49065 96.827 5.80329C97.5382 6.11592 98.0931 6.58878 98.4918 7.22187C98.8982 7.84714 99.1014 8.63263 99.1014 9.57836V15.4872C99.1014 15.9092 99.1366 16.3586 99.2069 16.8354C99.2851 17.3122 99.3984 17.7225 99.5469 18.0664V18.254H97.2842C97.1748 18.0039 97.0888 17.6717 97.0263 17.2575C96.9637 16.8354 96.9325 16.4446 96.9325 16.0851ZM97.3076 10.5632L97.3311 12.0873H95.1387C94.5213 12.0873 93.9703 12.1381 93.4857 12.2397C93.0011 12.3335 92.5947 12.478 92.2664 12.6734C91.9381 12.8688 91.688 13.115 91.5161 13.412C91.3441 13.7012 91.2582 14.0412 91.2582 14.432C91.2582 14.8306 91.348 15.1941 91.5278 15.5223C91.7076 15.8506 91.9772 16.1124 92.3368 16.3078C92.7041 16.4954 93.1535 16.5892 93.685 16.5892C94.3493 16.5892 94.9355 16.4485 95.4436 16.1671C95.9516 15.8858 96.3541 15.5419 96.6511 15.1354C96.9559 14.729 97.1201 14.3343 97.1435 13.9513L98.0697 14.9948C98.015 15.323 97.8665 15.6865 97.6242 16.0851C97.3819 16.4837 97.0575 16.8667 96.6511 17.234C96.2525 17.5935 95.7757 17.8944 95.2208 18.1367C94.6737 18.3712 94.0562 18.4885 93.3684 18.4885C92.5087 18.4885 91.7545 18.3204 91.1057 17.9843C90.4648 17.6482 89.9646 17.1988 89.6051 16.6361C89.2534 16.0655 89.0775 15.4285 89.0775 14.7251C89.0775 14.0451 89.2104 13.4472 89.4761 12.9314C89.7419 12.4077 90.1249 11.9739 90.6251 11.63C91.1253 11.2783 91.7271 11.0126 92.4305 10.8328C93.134 10.653 93.9195 10.5632 94.787 10.5632H97.3076Z" fill="black"/>
<path d="M104.682 7.56186V18.254H102.513V5.56881H104.623L104.682 7.56186ZM108.645 5.49847L108.633 7.51496C108.453 7.47588 108.281 7.45244 108.117 7.44462C107.961 7.42899 107.781 7.42117 107.578 7.42117C107.077 7.42117 106.636 7.49933 106.253 7.65565C105.87 7.81197 105.546 8.03081 105.28 8.31218C105.014 8.59355 104.803 8.92964 104.647 9.32043C104.498 9.70341 104.401 10.1255 104.354 10.5866L103.744 10.9383C103.744 10.1724 103.818 9.4533 103.967 8.78114C104.123 8.10897 104.361 7.51496 104.682 6.99912C105.002 6.47545 105.409 6.06903 105.901 5.77984C106.401 5.48284 106.995 5.33433 107.683 5.33433C107.84 5.33433 108.019 5.35387 108.223 5.39295C108.426 5.42422 108.566 5.45939 108.645 5.49847Z" fill="black"/>
<path d="M112.83 0.2462V18.254H110.649V0.2462H112.83ZM120.579 5.56881L115.046 11.4893L111.951 14.7017L111.775 12.3921L113.991 9.74249L117.93 5.56881H120.579ZM118.598 18.254L114.073 12.2045L115.198 10.2701L121.154 18.254H118.598Z" fill="black"/>
<path d="M130.298 16.0851V9.55491C130.298 9.05469 130.197 8.62091 129.994 8.25356C129.798 7.8784 129.501 7.58921 129.103 7.386C128.704 7.18279 128.212 7.08118 127.625 7.08118C127.078 7.08118 126.598 7.17497 126.183 7.36255C125.777 7.55014 125.457 7.79634 125.222 8.10115C124.995 8.40597 124.882 8.73424 124.882 9.08595H122.713C122.713 8.63263 122.83 8.18322 123.065 7.73772C123.299 7.29221 123.635 6.88969 124.073 6.53016C124.519 6.16282 125.05 5.87363 125.668 5.6626C126.293 5.44376 126.988 5.33433 127.754 5.33433C128.677 5.33433 129.49 5.49065 130.193 5.80329C130.904 6.11592 131.459 6.58878 131.858 7.22187C132.264 7.84714 132.467 8.63263 132.467 9.57836V15.4872C132.467 15.9092 132.503 16.3586 132.573 16.8354C132.651 17.3122 132.764 17.7225 132.913 18.0664V18.254H130.65C130.541 18.0039 130.455 17.6717 130.392 17.2575C130.33 16.8354 130.298 16.4446 130.298 16.0851ZM130.674 10.5632L130.697 12.0873H128.505C127.887 12.0873 127.336 12.1381 126.852 12.2397C126.367 12.3335 125.961 12.478 125.632 12.6734C125.304 12.8688 125.054 13.115 124.882 13.412C124.71 13.7012 124.624 14.0412 124.624 14.432C124.624 14.8306 124.714 15.1941 124.894 15.5223C125.074 15.8506 125.343 16.1124 125.703 16.3078C126.07 16.4954 126.519 16.5892 127.051 16.5892C127.715 16.5892 128.302 16.4485 128.81 16.1671C129.318 15.8858 129.72 15.5419 130.017 15.1354C130.322 14.729 130.486 14.3343 130.509 13.9513L131.436 14.9948C131.381 15.323 131.232 15.6865 130.99 16.0851C130.748 16.4837 130.424 16.8667 130.017 17.234C129.618 17.5935 129.142 17.8944 128.587 18.1367C128.04 18.3712 127.422 18.4885 126.734 18.4885C125.875 18.4885 125.12 18.3204 124.472 17.9843C123.831 17.6482 123.331 17.1988 122.971 16.6361C122.619 16.0655 122.444 15.4285 122.444 14.7251C122.444 14.0451 122.576 13.4472 122.842 12.9314C123.108 12.4077 123.491 11.9739 123.991 11.63C124.491 11.2783 125.093 11.0126 125.797 10.8328C126.5 10.653 127.285 10.5632 128.153 10.5632H130.674Z" fill="black"/>
<path d="M138.048 8.27701V18.254H135.879V5.56881H137.931L138.048 8.27701ZM137.532 11.4307L136.629 11.3955C136.637 10.528 136.766 9.72686 137.016 8.99216C137.266 8.24966 137.618 7.60485 138.071 7.05774C138.525 6.51062 139.064 6.08857 139.689 5.79156C140.322 5.48674 141.022 5.33433 141.788 5.33433C142.413 5.33433 142.976 5.42031 143.476 5.59226C143.976 5.75639 144.402 6.02213 144.754 6.38948C145.113 6.75682 145.387 7.23359 145.575 7.81978C145.762 8.39816 145.856 9.10549 145.856 9.94179V18.254H143.675V9.91835C143.675 9.254 143.578 8.72252 143.382 8.32391C143.187 7.91748 142.902 7.62439 142.526 7.44462C142.151 7.25704 141.69 7.16325 141.143 7.16325C140.604 7.16325 140.111 7.27658 139.666 7.50324C139.228 7.7299 138.849 8.04254 138.529 8.44115C138.216 8.83975 137.97 9.29698 137.79 9.81283C137.618 10.3209 137.532 10.8602 137.532 11.4307Z" fill="black"/>
<path d="M160.182 16.7064C160.698 16.7064 161.175 16.6009 161.613 16.3899C162.05 16.1789 162.41 15.8897 162.691 15.5223C162.973 15.1472 163.133 14.7212 163.172 14.2444H165.235C165.196 14.9948 164.942 15.6943 164.473 16.343C164.012 16.9839 163.407 17.5037 162.656 17.9023C161.906 18.2931 161.081 18.4885 160.182 18.4885C159.229 18.4885 158.397 18.3204 157.685 17.9843C156.982 17.6482 156.396 17.1871 155.927 16.6009C155.466 16.0147 155.118 15.3426 154.883 14.5844C154.657 13.8185 154.543 13.0095 154.543 12.1576V11.6652C154.543 10.8133 154.657 10.0082 154.883 9.25009C155.118 8.48413 155.466 7.80806 155.927 7.22187C156.396 6.63568 156.982 6.17454 157.685 5.83846C158.397 5.50238 159.229 5.33433 160.182 5.33433C161.175 5.33433 162.043 5.53755 162.785 5.94397C163.528 6.34258 164.11 6.88969 164.532 7.58531C164.962 8.2731 165.196 9.05469 165.235 9.93007H163.172C163.133 9.40641 162.984 8.93355 162.727 8.51149C162.476 8.08943 162.133 7.75335 161.695 7.50324C161.265 7.24532 160.761 7.11635 160.182 7.11635C159.518 7.11635 158.959 7.24922 158.506 7.51496C158.06 7.77289 157.705 8.1246 157.439 8.57011C157.181 9.0078 156.994 9.49629 156.876 10.0356C156.767 10.5671 156.712 11.1103 156.712 11.6652V12.1576C156.712 12.7125 156.767 13.2596 156.876 13.7989C156.986 14.3382 157.169 14.8267 157.427 15.2644C157.693 15.7021 158.049 16.0538 158.494 16.3195C158.948 16.5775 159.51 16.7064 160.182 16.7064Z" fill="black"/>
<path d="M175.154 16.0851V9.55491C175.154 9.05469 175.052 8.62091 174.849 8.25356C174.654 7.8784 174.357 7.58921 173.958 7.386C173.559 7.18279 173.067 7.08118 172.481 7.08118C171.934 7.08118 171.453 7.17497 171.039 7.36255C170.632 7.55014 170.312 7.79634 170.077 8.10115C169.851 8.40597 169.737 8.73424 169.737 9.08595H167.568C167.568 8.63263 167.686 8.18322 167.92 7.73772C168.155 7.29221 168.491 6.88969 168.928 6.53016C169.374 6.16282 169.905 5.87363 170.523 5.6626C171.148 5.44376 171.844 5.33433 172.61 5.33433C173.532 5.33433 174.345 5.49065 175.048 5.80329C175.759 6.11592 176.314 6.58878 176.713 7.22187C177.119 7.84714 177.323 8.63263 177.323 9.57836V15.4872C177.323 15.9092 177.358 16.3586 177.428 16.8354C177.506 17.3122 177.62 17.7225 177.768 18.0664V18.254H175.505C175.396 18.0039 175.31 17.6717 175.248 17.2575C175.185 16.8354 175.154 16.4446 175.154 16.0851ZM175.529 10.5632L175.552 12.0873H173.36C172.743 12.0873 172.192 12.1381 171.707 12.2397C171.222 12.3335 170.816 12.478 170.488 12.6734C170.159 12.8688 169.909 13.115 169.737 13.412C169.565 13.7012 169.479 14.0412 169.479 14.432C169.479 14.8306 169.569 15.1941 169.749 15.5223C169.929 15.8506 170.198 16.1124 170.558 16.3078C170.925 16.4954 171.375 16.5892 171.906 16.5892C172.571 16.5892 173.157 16.4485 173.665 16.1671C174.173 15.8858 174.575 15.5419 174.872 15.1354C175.177 14.729 175.341 14.3343 175.365 13.9513L176.291 14.9948C176.236 15.323 176.088 15.6865 175.845 16.0851C175.603 16.4837 175.279 16.8667 174.872 17.234C174.474 17.5935 173.997 17.8944 173.442 18.1367C172.895 18.3712 172.278 18.4885 171.59 18.4885C170.73 18.4885 169.976 18.3204 169.327 17.9843C168.686 17.6482 168.186 17.1988 167.826 16.6361C167.475 16.0655 167.299 15.4285 167.299 14.7251C167.299 14.0451 167.432 13.4472 167.697 12.9314C167.963 12.4077 168.346 11.9739 168.846 11.63C169.347 11.2783 169.948 11.0126 170.652 10.8328C171.355 10.653 172.141 10.5632 173.008 10.5632H175.529Z" fill="black"/>
<path d="M183.97 18.254H181.801V4.2323C181.801 3.31784 181.965 2.54798 182.294 1.92271C182.63 1.28962 183.11 0.812851 183.736 0.4924C184.361 0.164133 185.103 0 185.963 0C186.213 0 186.463 0.0156318 186.713 0.0468953C186.971 0.0781588 187.221 0.125054 187.464 0.187581L187.347 1.95788C187.182 1.9188 186.995 1.89144 186.784 1.87581C186.581 1.86018 186.377 1.85236 186.174 1.85236C185.713 1.85236 185.314 1.94615 184.978 2.13373C184.65 2.3135 184.4 2.57924 184.228 2.93095C184.056 3.28267 183.97 3.71645 183.97 4.2323V18.254ZM186.667 5.56881V7.23359H179.796V5.56881H186.667Z" fill="black"/>
<path d="M194.064 18.4885C193.181 18.4885 192.38 18.34 191.661 18.0429C190.95 17.7381 190.336 17.3122 189.82 16.7651C189.312 16.2179 188.921 15.5692 188.648 14.8189C188.374 14.0686 188.238 13.2479 188.238 12.3569V11.8645C188.238 10.8328 188.39 9.91444 188.695 9.1094C189 8.29655 189.414 7.60875 189.937 7.04601C190.461 6.48327 191.055 6.0573 191.72 5.76812C192.384 5.47893 193.072 5.33433 193.783 5.33433C194.69 5.33433 195.471 5.49065 196.128 5.80329C196.792 6.11592 197.335 6.55361 197.757 7.11635C198.179 7.67128 198.492 8.32782 198.695 9.08595C198.898 9.83628 199 10.6569 199 11.548V12.521H189.527V10.7507H196.831V10.5866C196.8 10.0239 196.683 9.47675 196.479 8.94527C196.284 8.41379 195.971 7.9761 195.541 7.6322C195.112 7.2883 194.525 7.11635 193.783 7.11635C193.291 7.11635 192.837 7.22187 192.423 7.4329C192.009 7.63611 191.653 7.94093 191.356 8.34735C191.059 8.75378 190.829 9.25009 190.664 9.83628C190.5 10.4225 190.418 11.0985 190.418 11.8645V12.3569C190.418 12.9587 190.5 13.5254 190.664 14.0569C190.836 14.5805 191.083 15.0417 191.403 15.4403C191.731 15.8389 192.126 16.1515 192.587 16.3782C193.056 16.6048 193.588 16.7182 194.182 16.7182C194.947 16.7182 195.596 16.5618 196.128 16.2492C196.659 15.9366 197.124 15.5184 197.523 14.9948L198.836 16.0382C198.562 16.4524 198.215 16.8471 197.792 17.2223C197.37 17.5974 196.851 17.9023 196.233 18.1367C195.624 18.3712 194.901 18.4885 194.064 18.4885Z" fill="black"/>
</svg>
