<svg width="242" height="13" viewBox="0 0 242 13" fill="none" xmlns="http://www.w3.org/2000/svg">
<path d="M5.45034 7.61756H6.578C6.51927 8.1579 6.36461 8.64146 6.11402 9.06825C5.86343 9.49503 5.50908 9.83372 5.05097 10.0843C4.59286 10.331 4.0212 10.4543 3.33599 10.4543C2.83481 10.4543 2.37865 10.3604 1.96753 10.1724C1.56032 9.98447 1.20988 9.71822 0.916222 9.37365C0.622561 9.02518 0.395463 8.60818 0.234929 8.12266C0.0783095 7.63322 0 7.08897 0 6.4899V5.63829C0 5.03922 0.0783095 4.49693 0.234929 4.01141C0.395463 3.52197 0.624519 3.10302 0.922095 2.75454C1.22359 2.40606 1.58577 2.13785 2.00864 1.94991C2.43151 1.76196 2.90724 1.66799 3.43583 1.66799C4.08189 1.66799 4.62809 1.78937 5.07446 2.03213C5.52082 2.27489 5.86734 2.61162 6.11402 3.04233C6.36461 3.46911 6.51927 3.96442 6.578 4.52825H5.45034C5.39553 4.12887 5.29373 3.78627 5.14494 3.50044C4.99615 3.21069 4.78471 2.98751 4.51063 2.83089C4.23655 2.67427 3.87828 2.59596 3.43583 2.59596C3.05603 2.59596 2.72126 2.6684 2.43151 2.81327C2.14568 2.95814 1.90488 3.16371 1.70911 3.42996C1.51725 3.69621 1.37237 4.01532 1.27449 4.38729C1.1766 4.75926 1.12766 5.17235 1.12766 5.62654V6.4899C1.12766 6.90886 1.17073 7.30237 1.25687 7.67042C1.34692 8.03848 1.48201 8.3615 1.66212 8.6395C1.84223 8.9175 2.07129 9.13677 2.34929 9.2973C2.62729 9.45392 2.95619 9.53223 3.33599 9.53223C3.81759 9.53223 4.20131 9.45588 4.48714 9.30317C4.77297 9.15047 4.98832 8.9312 5.13319 8.64537C5.28198 8.35954 5.3877 8.01694 5.45034 7.61756ZM7.67042 7.22993V7.09485C7.67042 6.63673 7.73698 6.2119 7.87011 5.82036C8.00324 5.42489 8.19509 5.08229 8.44568 4.79254C8.69628 4.49888 8.99972 4.27179 9.35603 4.11125C9.71234 3.9468 10.1117 3.86458 10.5542 3.86458C11.0005 3.86458 11.4019 3.9468 11.7582 4.11125C12.1184 4.27179 12.4238 4.49888 12.6744 4.79254C12.9289 5.08229 13.1227 5.42489 13.2558 5.82036C13.389 6.2119 13.4555 6.63673 13.4555 7.09485V7.22993C13.4555 7.68804 13.389 8.11287 13.2558 8.50442C13.1227 8.89596 12.9289 9.23857 12.6744 9.53223C12.4238 9.82198 12.1204 10.0491 11.7641 10.2135C11.4117 10.3741 11.0123 10.4543 10.5659 10.4543C10.1196 10.4543 9.71822 10.3741 9.36191 10.2135C9.0056 10.0491 8.70019 9.82198 8.44568 9.53223C8.19509 9.23857 8.00324 8.89596 7.87011 8.50442C7.73698 8.11287 7.67042 7.68804 7.67042 7.22993ZM8.75697 7.09485V7.22993C8.75697 7.54708 8.79416 7.84662 8.86856 8.12853C8.94295 8.40653 9.05454 8.65321 9.20333 8.86856C9.35603 9.08391 9.54593 9.25423 9.77303 9.37953C10.0001 9.50091 10.2644 9.5616 10.5659 9.5616C10.8635 9.5616 11.1239 9.50091 11.3471 9.37953C11.5742 9.25423 11.7621 9.08391 11.9109 8.86856C12.0597 8.65321 12.1713 8.40653 12.2457 8.12853C12.324 7.84662 12.3631 7.54708 12.3631 7.22993V7.09485C12.3631 6.78161 12.324 6.48599 12.2457 6.20799C12.1713 5.92608 12.0577 5.67744 11.905 5.46209C11.7562 5.24282 11.5683 5.07054 11.3412 4.94525C11.118 4.81995 10.8557 4.75731 10.5542 4.75731C10.2566 4.75731 9.99426 4.81995 9.76716 4.94525C9.54398 5.07054 9.35603 5.24282 9.20333 5.46209C9.05454 5.67744 8.94295 5.92608 8.86856 6.20799C8.79416 6.48599 8.75697 6.78161 8.75697 7.09485ZM15.9047 5.20367V12.7801H14.8123V3.98204H15.8107L15.9047 5.20367ZM20.1862 7.10659V7.22993C20.1862 7.69196 20.1314 8.1207 20.0218 8.51616C19.9122 8.90771 19.7516 9.24836 19.5402 9.5381C19.3327 9.82785 19.0762 10.053 18.7708 10.2135C18.4654 10.3741 18.115 10.4543 17.7195 10.4543C17.3162 10.4543 16.9599 10.3878 16.6506 10.2546C16.3412 10.1215 16.0789 9.92769 15.8636 9.67319C15.6482 9.41868 15.4759 9.11327 15.3467 8.75697C15.2214 8.40066 15.1353 7.99932 15.0883 7.55296V6.89516C15.1353 6.4253 15.2234 6.00438 15.3526 5.63241C15.4818 5.26044 15.6521 4.94329 15.8636 4.68095C16.0789 4.4147 16.3393 4.21305 16.6447 4.07601C16.9501 3.93505 17.3025 3.86458 17.7019 3.86458C18.1013 3.86458 18.4556 3.94289 18.7649 4.0995C19.0742 4.25221 19.3346 4.47148 19.5461 4.75731C19.7575 5.04313 19.9161 5.38574 20.0218 5.78512C20.1314 6.18058 20.1862 6.62107 20.1862 7.10659ZM19.0938 7.22993V7.10659C19.0938 6.78944 19.0605 6.49186 18.994 6.21386C18.9274 5.93195 18.8237 5.68527 18.6827 5.47384C18.5457 5.25849 18.3695 5.09012 18.1541 4.96874C17.9388 4.84345 17.6823 4.7808 17.3847 4.7808C17.1106 4.7808 16.8718 4.82778 16.6682 4.92176C16.4685 5.01573 16.2982 5.14298 16.1572 5.30351C16.0163 5.46013 15.9008 5.64025 15.8107 5.84385C15.7246 6.04354 15.66 6.25106 15.6169 6.46641V7.98757C15.6952 8.26166 15.8048 8.52008 15.9458 8.76284C16.0867 9.00168 16.2747 9.1955 16.5096 9.34429C16.7445 9.48916 17.0402 9.5616 17.3965 9.5616C17.6901 9.5616 17.9427 9.50091 18.1541 9.37953C18.3695 9.25423 18.5457 9.08391 18.6827 8.86856C18.8237 8.65321 18.9274 8.40653 18.994 8.12853C19.0605 7.84662 19.0938 7.54708 19.0938 7.22993ZM23.2873 9.67906L25.0551 3.98204H26.218L23.6691 11.3177C23.6103 11.4743 23.532 11.6427 23.4341 11.8228C23.3402 12.0068 23.2188 12.1811 23.07 12.3455C22.9212 12.51 22.7411 12.6431 22.5297 12.7449C22.3221 12.8506 22.0735 12.9035 21.7838 12.9035C21.6976 12.9035 21.588 12.8917 21.4549 12.8682C21.3217 12.8447 21.2278 12.8251 21.1729 12.8095L21.1671 11.9285C21.1984 11.9324 21.2473 11.9363 21.3139 11.9402C21.3844 11.9481 21.4333 11.952 21.4607 11.952C21.7074 11.952 21.9169 11.9187 22.0892 11.8522C22.2614 11.7895 22.4063 11.6818 22.5238 11.5291C22.6452 11.3803 22.7489 11.1748 22.8351 10.9124L23.2873 9.67906ZM21.9893 3.98204L23.6397 8.91554L23.9216 10.0608L23.1405 10.4602L20.8029 3.98204H21.9893ZM28.2854 4.98049V10.3369H27.1989V3.98204H28.256L28.2854 4.98049ZM30.2706 3.9468L30.2647 4.95699C30.1746 4.93742 30.0885 4.92567 30.0063 4.92176C29.928 4.91392 29.8379 4.91001 29.7361 4.91001C29.4855 4.91001 29.2643 4.94916 29.0724 5.02747C28.8806 5.10578 28.7181 5.21542 28.5849 5.35637C28.4518 5.49733 28.3461 5.6657 28.2678 5.86147C28.1934 6.05333 28.1445 6.26476 28.121 6.49578L27.8156 6.67197C27.8156 6.28826 27.8527 5.92803 27.9271 5.5913C28.0055 5.25457 28.1249 4.95699 28.2854 4.69857C28.4459 4.43624 28.6495 4.23263 28.8962 4.08776C29.1468 3.93897 29.4444 3.86458 29.789 3.86458C29.8673 3.86458 29.9573 3.87436 30.0591 3.89394C30.1609 3.9096 30.2314 3.92722 30.2706 3.9468ZM32.4554 3.98204V10.3369H31.363V3.98204H32.4554ZM31.2807 2.29643C31.2807 2.12023 31.3336 1.97144 31.4393 1.85006C31.549 1.72868 31.7095 1.66799 31.9209 1.66799C32.1285 1.66799 32.287 1.72868 32.3967 1.85006C32.5102 1.97144 32.567 2.12023 32.567 2.29643C32.567 2.46479 32.5102 2.60967 32.3967 2.73105C32.287 2.84851 32.1285 2.90724 31.9209 2.90724C31.7095 2.90724 31.549 2.84851 31.4393 2.73105C31.3336 2.60967 31.2807 2.46479 31.2807 2.29643ZM38.3169 3.98204H39.3036V10.2018C39.3036 10.7617 39.19 11.2394 38.9629 11.6348C38.7358 12.0303 38.4187 12.3298 38.0115 12.5334C37.6082 12.741 37.1422 12.8447 36.6136 12.8447C36.3944 12.8447 36.1359 12.8095 35.8384 12.739C35.5447 12.6724 35.255 12.5569 34.9691 12.3925C34.6872 12.232 34.4503 12.0146 34.2585 11.7406L34.8282 11.0945C35.0944 11.4156 35.3724 11.6388 35.6622 11.7641C35.9558 11.8893 36.2456 11.952 36.5314 11.952C36.876 11.952 37.1735 11.8874 37.4241 11.7582C37.6747 11.629 37.8685 11.4371 38.0056 11.1826C38.1465 10.932 38.217 10.6227 38.217 10.2546V5.37987L38.3169 3.98204ZM33.9413 7.22993V7.10659C33.9413 6.62107 33.9981 6.18058 34.1116 5.78512C34.2291 5.38574 34.3955 5.04313 34.6109 4.75731C34.8301 4.47148 35.0944 4.25221 35.4037 4.0995C35.7131 3.94289 36.0615 3.86458 36.4492 3.86458C36.8486 3.86458 37.197 3.93505 37.4946 4.07601C37.7961 4.21305 38.0506 4.4147 38.2581 4.68095C38.4696 4.94329 38.636 5.26044 38.7574 5.63241C38.8787 6.00438 38.9629 6.4253 39.0099 6.89516V7.43549C38.9668 7.90143 38.8826 8.32039 38.7574 8.69236C38.636 9.06433 38.4696 9.38148 38.2581 9.64382C38.0506 9.90616 37.7961 10.1078 37.4946 10.2488C37.1931 10.3858 36.8407 10.4543 36.4374 10.4543C36.0576 10.4543 35.7131 10.3741 35.4037 10.2135C35.0983 10.053 34.836 9.82785 34.6167 9.5381C34.3975 9.24836 34.2291 8.90771 34.1116 8.51616C33.9981 8.1207 33.9413 7.69196 33.9413 7.22993ZM35.0279 7.10659V7.22993C35.0279 7.54708 35.0592 7.84466 35.1218 8.12266C35.1884 8.40066 35.2882 8.64537 35.4214 8.85681C35.5584 9.06825 35.7326 9.23465 35.9441 9.35603C36.1555 9.4735 36.4081 9.53223 36.7017 9.53223C37.062 9.53223 37.3595 9.45588 37.5945 9.30317C37.8294 9.15047 38.0154 8.94882 38.1524 8.69823C38.2934 8.44764 38.403 8.17552 38.4813 7.88186V6.46641C38.4382 6.25106 38.3717 6.04354 38.2816 5.84385C38.1955 5.64025 38.0819 5.46013 37.941 5.30351C37.8039 5.14298 37.6336 5.01573 37.43 4.92176C37.2264 4.82778 36.9876 4.7808 36.7135 4.7808C36.4159 4.7808 36.1594 4.84345 35.9441 4.96874C35.7326 5.09012 35.5584 5.25849 35.4214 5.47384C35.2882 5.68527 35.1884 5.93195 35.1218 6.21386C35.0592 6.49186 35.0279 6.78944 35.0279 7.10659ZM42.0405 1.3156V10.3369H40.9539V1.3156H42.0405ZM41.7821 6.91865L41.3298 6.90103C41.3337 6.46641 41.3983 6.06507 41.5236 5.69702C41.6489 5.32505 41.8251 5.00202 42.0522 4.72794C42.2793 4.45386 42.5495 4.24242 42.8627 4.09363C43.1799 3.94093 43.5303 3.86458 43.914 3.86458C44.2273 3.86458 44.5092 3.90765 44.7598 3.99379C45.0104 4.07601 45.2238 4.20914 45.4 4.39317C45.5801 4.57719 45.7171 4.81604 45.8111 5.1097C45.9051 5.39944 45.952 5.75379 45.952 6.17275V10.3369H44.8596V6.161C44.8596 5.82819 44.8107 5.56194 44.7128 5.36225C44.6149 5.15864 44.472 5.01181 44.2841 4.92176C44.0961 4.82778 43.8651 4.7808 43.591 4.7808C43.3208 4.7808 43.0742 4.83757 42.851 4.95112C42.6317 5.06467 42.4418 5.22129 42.2813 5.42098C42.1247 5.62067 42.0013 5.84972 41.9113 6.10814C41.8251 6.36265 41.7821 6.63282 41.7821 6.91865ZM50.2395 3.98204V4.81604H46.8037V3.98204H50.2395ZM47.9666 2.43738H49.0531V8.76284C49.0531 8.97819 49.0864 9.14068 49.1529 9.25032C49.2195 9.35995 49.3056 9.43239 49.4114 9.46762C49.5171 9.50286 49.6306 9.52048 49.752 9.52048C49.8421 9.52048 49.936 9.51265 50.0339 9.49699C50.1357 9.47741 50.2121 9.46175 50.263 9.45L50.2689 10.3369C50.1827 10.3643 50.0692 10.3897 49.9282 10.4132C49.7912 10.4406 49.6248 10.4543 49.429 10.4543C49.1627 10.4543 48.918 10.4015 48.6948 10.2957C48.4717 10.19 48.2935 10.0138 48.1604 9.76716C48.0312 9.51657 47.9666 9.17984 47.9666 8.75697V2.43738ZM59.6836 0C56.4651 0 53.8574 2.6312 53.8574 5.82623C53.8574 9.04475 56.4651 11.6525 59.6836 11.6525C62.8787 11.6525 65.5099 9.04475 65.5099 5.82623C65.5099 2.6312 62.8787 0 59.6836 0ZM59.6836 10.5248C57.0759 10.5248 54.985 8.43394 54.985 5.82623C54.985 3.24202 57.0759 1.12766 59.6836 1.12766C62.2678 1.12766 64.3822 3.24202 64.3822 5.82623C64.3822 8.43394 62.2678 10.5248 59.6836 10.5248ZM62.1974 8.15202C62.2443 8.10504 62.2678 8.03456 62.2678 7.96408C62.2678 7.8936 62.2443 7.84662 62.2209 7.79963L61.751 7.16532C61.657 7.02437 61.4691 7.00087 61.3281 7.11834C61.1167 7.30628 60.5529 7.75265 59.8011 7.75265C58.5795 7.75265 57.9452 6.76595 57.9452 5.80274C57.9452 4.74556 58.6499 3.89982 59.7776 3.89982C60.4824 3.89982 61.0227 4.2757 61.2342 4.44015C61.3516 4.53412 61.5631 4.51063 61.6335 4.36967L62.0799 3.71187C62.1034 3.66489 62.1269 3.6179 62.1269 3.54742C62.1269 3.47694 62.0799 3.40647 62.0329 3.35948C61.8215 3.14804 61.0462 2.53723 59.7306 2.53723C57.8747 2.53723 56.4416 3.9468 56.4416 5.80274C56.4416 7.68217 57.8042 9.13872 59.7541 9.13872C61.1167 9.13872 61.9624 8.38695 62.1974 8.15202ZM74.9775 7.84074V1.78546H76.1051V7.84074C76.1051 8.40457 75.9896 8.8803 75.7586 9.26794C75.5276 9.65557 75.2085 9.95119 74.8013 10.1548C74.398 10.3545 73.934 10.4543 73.4093 10.4543C72.8847 10.4543 72.4187 10.3643 72.0115 10.1842C71.6043 10.004 71.2852 9.72996 71.0542 9.36191C70.8232 8.99385 70.7076 8.52987 70.7076 7.96995H71.8412C71.8412 8.33018 71.9077 8.6258 72.0409 8.85681C72.174 9.08782 72.358 9.25815 72.593 9.36778C72.8318 9.47741 73.1039 9.53223 73.4093 9.53223C73.7069 9.53223 73.9732 9.46958 74.2081 9.34429C74.4469 9.21508 74.6349 9.02518 74.7719 8.77458C74.909 8.52008 74.9775 8.2088 74.9775 7.84074ZM77.5734 7.22993V7.09485C77.5734 6.63673 77.64 6.2119 77.7731 5.82036C77.9063 5.42489 78.0981 5.08229 78.3487 4.79254C78.5993 4.49888 78.9027 4.27179 79.2591 4.11125C79.6154 3.9468 80.0147 3.86458 80.4572 3.86458C80.9036 3.86458 81.3049 3.9468 81.6612 4.11125C82.0214 4.27179 82.3268 4.49888 82.5774 4.79254C82.8319 5.08229 83.0257 5.42489 83.1589 5.82036C83.292 6.2119 83.3586 6.63673 83.3586 7.09485V7.22993C83.3586 7.68804 83.292 8.11287 83.1589 8.50442C83.0257 8.89596 82.8319 9.23857 82.5774 9.53223C82.3268 9.82198 82.0234 10.0491 81.6671 10.2135C81.3147 10.3741 80.9153 10.4543 80.4689 10.4543C80.0226 10.4543 79.6212 10.3741 79.2649 10.2135C78.9086 10.0491 78.6032 9.82198 78.3487 9.53223C78.0981 9.23857 77.9063 8.89596 77.7731 8.50442C77.64 8.11287 77.5734 7.68804 77.5734 7.22993ZM78.66 7.09485V7.22993C78.66 7.54708 78.6972 7.84662 78.7716 8.12853C78.846 8.40653 78.9576 8.65321 79.1063 8.86856C79.2591 9.08391 79.449 9.25423 79.6761 9.37953C79.9031 9.50091 80.1674 9.5616 80.4689 9.5616C80.7665 9.5616 81.0269 9.50091 81.2501 9.37953C81.4772 9.25423 81.6651 9.08391 81.8139 8.86856C81.9627 8.65321 82.0743 8.40653 82.1487 8.12853C82.227 7.84662 82.2661 7.54708 82.2661 7.22993V7.09485C82.2661 6.78161 82.227 6.48599 82.1487 6.20799C82.0743 5.92608 81.9607 5.67744 81.808 5.46209C81.6592 5.24282 81.4713 5.07054 81.2442 4.94525C81.021 4.81995 80.7587 4.75731 80.4572 4.75731C80.1596 4.75731 79.8973 4.81995 79.6702 4.94525C79.447 5.07054 79.2591 5.24282 79.1063 5.46209C78.9576 5.67744 78.846 5.92608 78.7716 6.20799C78.6972 6.48599 78.66 6.78161 78.66 7.09485ZM85.8077 5.33875V10.3369H84.7211V3.98204H85.749L85.8077 5.33875ZM85.5493 6.91865L85.097 6.90103C85.1009 6.46641 85.1656 6.06507 85.2908 5.69702C85.4161 5.32505 85.5923 5.00202 85.8194 4.72794C86.0465 4.45386 86.3167 4.24242 86.6299 4.09363C86.9471 3.94093 87.2975 3.86458 87.6812 3.86458C87.9945 3.86458 88.2764 3.90765 88.527 3.99379C88.7776 4.07601 88.991 4.20914 89.1672 4.39317C89.3473 4.57719 89.4843 4.81604 89.5783 5.1097C89.6723 5.39944 89.7193 5.75379 89.7193 6.17275V10.3369H88.6268V6.161C88.6268 5.82819 88.5779 5.56194 88.48 5.36225C88.3821 5.15864 88.2392 5.01181 88.0513 4.92176C87.8633 4.82778 87.6323 4.7808 87.3582 4.7808C87.088 4.7808 86.8414 4.83757 86.6182 4.95112C86.3989 5.06467 86.209 5.22129 86.0485 5.42098C85.8919 5.62067 85.7685 5.84972 85.6785 6.10814C85.5923 6.36265 85.5493 6.63282 85.5493 6.91865ZM95.1167 9.25032V5.97893C95.1167 5.72834 95.0658 5.51103 94.964 5.32701C94.8661 5.13906 94.7174 4.99419 94.5177 4.89239C94.318 4.79059 94.0713 4.73969 93.7776 4.73969C93.5036 4.73969 93.2628 4.78667 93.0552 4.88064C92.8516 4.97461 92.6911 5.09795 92.5736 5.25066C92.4601 5.40336 92.4033 5.56781 92.4033 5.74401H91.3168C91.3168 5.51691 91.3755 5.29177 91.493 5.06859C91.6104 4.8454 91.7788 4.64376 91.9981 4.46364C92.2212 4.27962 92.4875 4.13474 92.7968 4.02903C93.1101 3.91939 93.4585 3.86458 93.8422 3.86458C94.3043 3.86458 94.7115 3.94289 95.0639 4.0995C95.4202 4.25612 95.6982 4.49301 95.8979 4.81016C96.1015 5.1234 96.2033 5.51691 96.2033 5.99068V8.95078C96.2033 9.16222 96.2209 9.38736 96.2561 9.6262C96.2953 9.86505 96.3521 10.0706 96.4265 10.2429V10.3369H95.2929C95.2381 10.2116 95.195 10.0452 95.1637 9.83764C95.1324 9.6262 95.1167 9.43043 95.1167 9.25032ZM95.3047 6.48403L95.3164 7.24755H94.2181C93.9088 7.24755 93.6328 7.273 93.39 7.3239C93.1473 7.37089 92.9436 7.44332 92.7792 7.54121C92.6147 7.6391 92.4895 7.76243 92.4033 7.91122C92.3172 8.05609 92.2741 8.22642 92.2741 8.42219C92.2741 8.62188 92.3191 8.80395 92.4092 8.9684C92.4992 9.13285 92.6343 9.26402 92.8144 9.36191C92.9985 9.45588 93.2236 9.50286 93.4899 9.50286C93.8227 9.50286 94.1163 9.43239 94.3708 9.29143C94.6253 9.15047 94.827 8.97819 94.9758 8.77458C95.1285 8.57098 95.2107 8.37325 95.2225 8.18139L95.6864 8.70411C95.659 8.86856 95.5846 9.05063 95.4633 9.25032C95.3419 9.45 95.1794 9.64186 94.9758 9.82589C94.7761 10.006 94.5372 10.1567 94.2592 10.2781C93.9852 10.3956 93.6758 10.4543 93.3313 10.4543C92.9006 10.4543 92.5227 10.3701 92.1977 10.2018C91.8767 10.0334 91.6261 9.80827 91.446 9.52636C91.2698 9.24053 91.1817 8.92142 91.1817 8.56902C91.1817 8.22838 91.2482 7.92884 91.3814 7.67042C91.5145 7.40808 91.7064 7.19077 91.9569 7.01849C92.2075 6.8423 92.509 6.70917 92.8614 6.61911C93.2138 6.52906 93.6073 6.48403 94.0419 6.48403H95.3047ZM100.573 3.98204V4.81604H97.1371V3.98204H100.573ZM98.3 2.43738H99.3866V8.76284C99.3866 8.97819 99.4198 9.14068 99.4864 9.25032C99.553 9.35995 99.6391 9.43239 99.7448 9.46762C99.8505 9.50286 99.9641 9.52048 100.085 9.52048C100.176 9.52048 100.27 9.51265 100.367 9.49699C100.469 9.47741 100.546 9.46175 100.596 9.45L100.602 10.3369C100.516 10.3643 100.403 10.3897 100.262 10.4132C100.125 10.4406 99.9582 10.4543 99.7625 10.4543C99.4962 10.4543 99.2515 10.4015 99.0283 10.2957C98.8051 10.19 98.627 10.0138 98.4938 9.76716C98.3646 9.51657 98.3 9.17984 98.3 8.75697V2.43738ZM102.934 1.3156V10.3369H101.847V1.3156H102.934ZM102.676 6.91865L102.223 6.90103C102.227 6.46641 102.292 6.06507 102.417 5.69702C102.542 5.32505 102.719 5.00202 102.946 4.72794C103.173 4.45386 103.443 4.24242 103.756 4.09363C104.073 3.94093 104.424 3.86458 104.808 3.86458C105.121 3.86458 105.403 3.90765 105.653 3.99379C105.904 4.07601 106.117 4.20914 106.293 4.39317C106.474 4.57719 106.611 4.81604 106.705 5.1097C106.799 5.39944 106.846 5.75379 106.846 6.17275V10.3369H105.753V6.161C105.753 5.82819 105.704 5.56194 105.606 5.36225C105.508 5.15864 105.365 5.01181 105.178 4.92176C104.99 4.82778 104.759 4.7808 104.485 4.7808C104.214 4.7808 103.968 4.83757 103.744 4.95112C103.525 5.06467 103.335 5.22129 103.175 5.42098C103.018 5.62067 102.895 5.84972 102.805 6.10814C102.719 6.36265 102.676 6.63282 102.676 6.91865ZM112.22 9.25032V5.97893C112.22 5.72834 112.169 5.51103 112.067 5.32701C111.969 5.13906 111.82 4.99419 111.62 4.89239C111.421 4.79059 111.174 4.73969 110.88 4.73969C110.606 4.73969 110.366 4.78667 110.158 4.88064C109.954 4.97461 109.794 5.09795 109.676 5.25066C109.563 5.40336 109.506 5.56781 109.506 5.74401H108.42C108.42 5.51691 108.478 5.29177 108.596 5.06859C108.713 4.8454 108.882 4.64376 109.101 4.46364C109.324 4.27962 109.59 4.13474 109.9 4.02903C110.213 3.91939 110.561 3.86458 110.945 3.86458C111.407 3.86458 111.814 3.94289 112.167 4.0995C112.523 4.25612 112.801 4.49301 113.001 4.81016C113.204 5.1234 113.306 5.51691 113.306 5.99068V8.95078C113.306 9.16222 113.324 9.38736 113.359 9.6262C113.398 9.86505 113.455 10.0706 113.529 10.2429V10.3369H112.396C112.341 10.2116 112.298 10.0452 112.267 9.83764C112.235 9.6262 112.22 9.43043 112.22 9.25032ZM112.407 6.48403L112.419 7.24755H111.321C111.012 7.24755 110.736 7.273 110.493 7.3239C110.25 7.37089 110.046 7.44332 109.882 7.54121C109.718 7.6391 109.592 7.76243 109.506 7.91122C109.42 8.05609 109.377 8.22642 109.377 8.42219C109.377 8.62188 109.422 8.80395 109.512 8.9684C109.602 9.13285 109.737 9.26402 109.917 9.36191C110.101 9.45588 110.326 9.50286 110.593 9.50286C110.925 9.50286 111.219 9.43239 111.474 9.29143C111.728 9.15047 111.93 8.97819 112.079 8.77458C112.231 8.57098 112.314 8.37325 112.325 8.18139L112.789 8.70411C112.762 8.86856 112.687 9.05063 112.566 9.25032C112.445 9.45 112.282 9.64186 112.079 9.82589C111.879 10.006 111.64 10.1567 111.362 10.2781C111.088 10.3956 110.779 10.4543 110.434 10.4543C110.003 10.4543 109.626 10.3701 109.301 10.2018C108.979 10.0334 108.729 9.80827 108.549 9.52636C108.373 9.24053 108.284 8.92142 108.284 8.56902C108.284 8.22838 108.351 7.92884 108.484 7.67042C108.617 7.40808 108.809 7.19077 109.06 7.01849C109.31 6.8423 109.612 6.70917 109.964 6.61911C110.317 6.52906 110.71 6.48403 111.145 6.48403H112.407ZM116.102 5.33875V10.3369H115.015V3.98204H116.043L116.102 5.33875ZM115.843 6.91865L115.391 6.90103C115.395 6.46641 115.46 6.06507 115.585 5.69702C115.71 5.32505 115.886 5.00202 116.113 4.72794C116.341 4.45386 116.611 4.24242 116.924 4.09363C117.241 3.94093 117.592 3.86458 117.975 3.86458C118.289 3.86458 118.57 3.90765 118.821 3.99379C119.072 4.07601 119.285 4.20914 119.461 4.39317C119.641 4.57719 119.778 4.81604 119.872 5.1097C119.966 5.39944 120.013 5.75379 120.013 6.17275V10.3369H118.921V6.161C118.921 5.82819 118.872 5.56194 118.774 5.36225C118.676 5.15864 118.533 5.01181 118.345 4.92176C118.157 4.82778 117.926 4.7808 117.652 4.7808C117.382 4.7808 117.135 4.83757 116.912 4.95112C116.693 5.06467 116.503 5.22129 116.343 5.42098C116.186 5.62067 116.063 5.84972 115.973 6.10814C115.886 6.36265 115.843 6.63282 115.843 6.91865ZM127.977 2.5431L125.146 10.3369H123.989L127.249 1.78546H127.995L127.977 2.5431ZM130.35 10.3369L127.513 2.5431L127.496 1.78546H128.242L131.513 10.3369H130.35ZM130.203 7.1712V8.09917H125.399V7.1712H130.203ZM133.674 1.3156V10.3369H132.582V1.3156H133.674ZM135.413 1.3156H136.505V9.10349L136.411 10.3369H135.413V1.3156ZM140.799 7.10659V7.22993C140.799 7.69196 140.744 8.1207 140.634 8.51616C140.525 8.90771 140.364 9.24836 140.153 9.5381C139.941 9.82785 139.683 10.053 139.377 10.2135C139.072 10.3741 138.721 10.4543 138.326 10.4543C137.923 10.4543 137.568 10.3858 137.263 10.2488C136.961 10.1078 136.707 9.90616 136.499 9.64382C136.292 9.38148 136.125 9.06433 136 8.69236C135.879 8.32039 135.795 7.90143 135.748 7.43549V6.89516C135.795 6.4253 135.879 6.00438 136 5.63241C136.125 5.26044 136.292 4.94329 136.499 4.68095C136.707 4.4147 136.961 4.21305 137.263 4.07601C137.564 3.93505 137.915 3.86458 138.314 3.86458C138.714 3.86458 139.068 3.94289 139.377 4.0995C139.687 4.25221 139.945 4.47148 140.153 4.75731C140.364 5.04313 140.525 5.38574 140.634 5.78512C140.744 6.18058 140.799 6.62107 140.799 7.10659ZM139.706 7.22993V7.10659C139.706 6.78944 139.677 6.49186 139.618 6.21386C139.559 5.93195 139.465 5.68527 139.336 5.47384C139.207 5.25849 139.037 5.09012 138.825 4.96874C138.614 4.84345 138.353 4.7808 138.044 4.7808C137.77 4.7808 137.531 4.82778 137.328 4.92176C137.128 5.01573 136.958 5.14298 136.817 5.30351C136.676 5.46013 136.56 5.64025 136.47 5.84385C136.384 6.04354 136.319 6.25106 136.276 6.46641V7.88186C136.339 8.15594 136.441 8.42023 136.582 8.67474C136.727 8.92533 136.918 9.13089 137.157 9.29143C137.4 9.45196 137.7 9.53223 138.056 9.53223C138.349 9.53223 138.6 9.4735 138.808 9.35603C139.019 9.23465 139.189 9.06825 139.319 8.85681C139.452 8.64537 139.55 8.40066 139.612 8.12266C139.675 7.84466 139.706 7.54708 139.706 7.22993ZM144.81 10.4543C144.368 10.4543 143.966 10.3799 143.606 10.2311C143.25 10.0784 142.942 9.86505 142.684 9.59096C142.429 9.31688 142.234 8.99189 142.097 8.61601C141.96 8.24012 141.891 7.829 141.891 7.38263V7.13596C141.891 6.61911 141.967 6.15905 142.12 5.75575C142.273 5.34854 142.48 5.00398 142.743 4.72207C143.005 4.44015 143.303 4.22676 143.635 4.08189C143.968 3.93701 144.313 3.86458 144.669 3.86458C145.123 3.86458 145.515 3.94289 145.844 4.0995C146.177 4.25612 146.449 4.47539 146.66 4.75731C146.872 5.0353 147.028 5.3642 147.13 5.74401C147.232 6.11989 147.283 6.53102 147.283 6.97738V7.46486H142.537V6.578H146.196V6.49578C146.18 6.21386 146.122 5.93978 146.02 5.67353C145.922 5.40727 145.765 5.18801 145.55 5.01573C145.335 4.84345 145.041 4.75731 144.669 4.75731C144.422 4.75731 144.195 4.81016 143.988 4.91588C143.78 5.01768 143.602 5.17039 143.453 5.37399C143.305 5.5776 143.189 5.82623 143.107 6.11989C143.025 6.41355 142.983 6.75224 142.983 7.13596V7.38263C142.983 7.68412 143.025 7.968 143.107 8.23425C143.193 8.49659 143.316 8.7276 143.477 8.92729C143.641 9.12698 143.839 9.2836 144.07 9.39715C144.305 9.51069 144.571 9.56747 144.869 9.56747C145.252 9.56747 145.577 9.48916 145.844 9.33254C146.11 9.17592 146.343 8.96644 146.543 8.70411L147.2 9.22682C147.063 9.43434 146.889 9.63207 146.678 9.82002C146.466 10.008 146.206 10.1607 145.897 10.2781C145.591 10.3956 145.229 10.4543 144.81 10.4543ZM149.638 4.98049V10.3369H148.551V3.98204H149.608L149.638 4.98049ZM151.623 3.9468L151.617 4.95699C151.527 4.93742 151.441 4.92567 151.359 4.92176C151.28 4.91392 151.19 4.91001 151.088 4.91001C150.838 4.91001 150.617 4.94916 150.425 5.02747C150.233 5.10578 150.07 5.21542 149.937 5.35637C149.804 5.49733 149.698 5.6657 149.62 5.86147C149.546 6.05333 149.497 6.26476 149.473 6.49578L149.168 6.67197C149.168 6.28826 149.205 5.92803 149.28 5.5913C149.358 5.25457 149.477 4.95699 149.638 4.69857C149.798 4.43624 150.002 4.23263 150.249 4.08776C150.499 3.93897 150.797 3.86458 151.141 3.86458C151.22 3.86458 151.31 3.87436 151.412 3.89394C151.513 3.9096 151.584 3.92722 151.623 3.9468ZM155.581 3.98204V4.81604H152.146V3.98204H155.581ZM153.309 2.43738H154.395V8.76284C154.395 8.97819 154.428 9.14068 154.495 9.25032C154.562 9.35995 154.648 9.43239 154.753 9.46762C154.859 9.50286 154.973 9.52048 155.094 9.52048C155.184 9.52048 155.278 9.51265 155.376 9.49699C155.478 9.47741 155.554 9.46175 155.605 9.45L155.611 10.3369C155.525 10.3643 155.411 10.3897 155.27 10.4132C155.133 10.4406 154.967 10.4543 154.771 10.4543C154.505 10.4543 154.26 10.4015 154.037 10.2957C153.814 10.19 153.636 10.0138 153.502 9.76716C153.373 9.51657 153.309 9.17984 153.309 8.75697V2.43738ZM163.158 6.98325H160.873V6.06116H163.158C163.6 6.06116 163.959 5.99068 164.233 5.84972C164.507 5.70877 164.707 5.51299 164.832 5.2624C164.961 5.01181 165.026 4.72598 165.026 4.40491C165.026 4.11125 164.961 3.83521 164.832 3.57679C164.707 3.31837 164.507 3.11085 164.233 2.95423C163.959 2.79369 163.6 2.71343 163.158 2.71343H161.138V10.3369H160.004V1.78546H163.158C163.804 1.78546 164.35 1.89705 164.797 2.12023C165.243 2.34341 165.582 2.65274 165.813 3.0482C166.044 3.43975 166.159 3.88807 166.159 4.39317C166.159 4.94133 166.044 5.40923 165.813 5.79686C165.582 6.1845 165.243 6.48012 164.797 6.68372C164.35 6.88341 163.804 6.98325 163.158 6.98325ZM171.316 8.86856V3.98204H172.408V10.3369H171.369L171.316 8.86856ZM171.521 7.52946L171.974 7.51772C171.974 7.94059 171.929 8.33214 171.839 8.69236C171.752 9.04867 171.611 9.35799 171.416 9.62033C171.22 9.88267 170.963 10.0882 170.646 10.237C170.329 10.3819 169.943 10.4543 169.489 10.4543C169.18 10.4543 168.896 10.4093 168.638 10.3192C168.383 10.2292 168.164 10.0902 167.98 9.90224C167.796 9.7143 167.653 9.46958 167.551 9.16809C167.453 8.8666 167.404 8.50442 167.404 8.08155V3.98204H168.491V8.09329C168.491 8.37912 168.522 8.61601 168.585 8.80395C168.651 8.98798 168.739 9.13481 168.849 9.24444C168.963 9.35016 169.088 9.42455 169.225 9.46762C169.366 9.51069 169.511 9.53223 169.66 9.53223C170.122 9.53223 170.488 9.44413 170.758 9.26794C171.028 9.08782 171.222 8.84702 171.339 8.54553C171.461 8.24012 171.521 7.90143 171.521 7.52946ZM175.151 4.98049V10.3369H174.065V3.98204H175.122L175.151 4.98049ZM177.136 3.9468L177.13 4.95699C177.04 4.93742 176.954 4.92567 176.872 4.92176C176.794 4.91392 176.704 4.91001 176.602 4.91001C176.351 4.91001 176.13 4.94916 175.938 5.02747C175.746 5.10578 175.584 5.21542 175.451 5.35637C175.317 5.49733 175.212 5.6657 175.133 5.86147C175.059 6.05333 175.01 6.26476 174.987 6.49578L174.681 6.67197C174.681 6.28826 174.718 5.92803 174.793 5.5913C174.871 5.25457 174.991 4.95699 175.151 4.69857C175.312 4.43624 175.515 4.23263 175.762 4.08776C176.012 3.93897 176.31 3.86458 176.655 3.86458C176.733 3.86458 176.823 3.87436 176.925 3.89394C177.027 3.9096 177.097 3.92722 177.136 3.9468ZM179.227 5.33875V10.3369H178.141V3.98204H179.168L179.227 5.33875ZM178.969 6.91865L178.516 6.90103C178.52 6.46641 178.585 6.06507 178.71 5.69702C178.836 5.32505 179.012 5.00202 179.239 4.72794C179.466 4.45386 179.736 4.24242 180.049 4.09363C180.366 3.94093 180.717 3.86458 181.101 3.86458C181.414 3.86458 181.696 3.90765 181.946 3.99379C182.197 4.07601 182.41 4.20914 182.587 4.39317C182.767 4.57719 182.904 4.81604 182.998 5.1097C183.092 5.39944 183.139 5.75379 183.139 6.17275V10.3369H182.046V6.161C182.046 5.82819 181.997 5.56194 181.899 5.36225C181.801 5.15864 181.659 5.01181 181.471 4.92176C181.283 4.82778 181.052 4.7808 180.778 4.7808C180.507 4.7808 180.261 4.83757 180.038 4.95112C179.818 5.06467 179.628 5.22129 179.468 5.42098C179.311 5.62067 179.188 5.84972 179.098 6.10814C179.012 6.36265 178.969 6.63282 178.969 6.91865ZM188.536 9.25032V5.97893C188.536 5.72834 188.485 5.51103 188.383 5.32701C188.286 5.13906 188.137 4.99419 187.937 4.89239C187.737 4.79059 187.491 4.73969 187.197 4.73969C186.923 4.73969 186.682 4.78667 186.475 4.88064C186.271 4.97461 186.11 5.09795 185.993 5.25066C185.879 5.40336 185.823 5.56781 185.823 5.74401H184.736C184.736 5.51691 184.795 5.29177 184.912 5.06859C185.03 4.8454 185.198 4.64376 185.417 4.46364C185.641 4.27962 185.907 4.13474 186.216 4.02903C186.529 3.91939 186.878 3.86458 187.262 3.86458C187.724 3.86458 188.131 3.94289 188.483 4.0995C188.84 4.25612 189.118 4.49301 189.317 4.81016C189.521 5.1234 189.623 5.51691 189.623 5.99068V8.95078C189.623 9.16222 189.64 9.38736 189.676 9.6262C189.715 9.86505 189.771 10.0706 189.846 10.2429V10.3369H188.712C188.657 10.2116 188.614 10.0452 188.583 9.83764C188.552 9.6262 188.536 9.43043 188.536 9.25032ZM188.724 6.48403L188.736 7.24755H187.638C187.328 7.24755 187.052 7.273 186.809 7.3239C186.567 7.37089 186.363 7.44332 186.199 7.54121C186.034 7.6391 185.909 7.76243 185.823 7.91122C185.737 8.05609 185.693 8.22642 185.693 8.42219C185.693 8.62188 185.739 8.80395 185.829 8.9684C185.919 9.13285 186.054 9.26402 186.234 9.36191C186.418 9.45588 186.643 9.50286 186.909 9.50286C187.242 9.50286 187.536 9.43239 187.79 9.29143C188.045 9.15047 188.246 8.97819 188.395 8.77458C188.548 8.57098 188.63 8.37325 188.642 8.18139L189.106 8.70411C189.078 8.86856 189.004 9.05063 188.883 9.25032C188.761 9.45 188.599 9.64186 188.395 9.82589C188.195 10.006 187.957 10.1567 187.679 10.2781C187.405 10.3956 187.095 10.4543 186.751 10.4543C186.32 10.4543 185.942 10.3701 185.617 10.2018C185.296 10.0334 185.045 9.80827 184.865 9.52636C184.689 9.24053 184.601 8.92142 184.601 8.56902C184.601 8.22838 184.668 7.92884 184.801 7.67042C184.934 7.40808 185.126 7.19077 185.376 7.01849C185.627 6.8423 185.928 6.70917 186.281 6.61911C186.633 6.52906 187.027 6.48403 187.461 6.48403H188.724ZM192.941 9.2092L194.574 3.98204H195.29L195.149 5.0216L193.487 10.3369H192.788L192.941 9.2092ZM191.843 3.98204L193.235 9.26794L193.335 10.3369H192.6L190.756 3.98204H191.843ZM196.853 9.22682L198.18 3.98204H199.261L197.416 10.3369H196.688L196.853 9.22682ZM195.449 3.98204L197.046 9.1211L197.228 10.3369H196.535L194.826 5.00985L194.685 3.98204H195.449ZM204.124 9.25032V5.97893C204.124 5.72834 204.073 5.51103 203.971 5.32701C203.873 5.13906 203.724 4.99419 203.525 4.89239C203.325 4.79059 203.078 4.73969 202.785 4.73969C202.51 4.73969 202.27 4.78667 202.062 4.88064C201.859 4.97461 201.698 5.09795 201.581 5.25066C201.467 5.40336 201.41 5.56781 201.41 5.74401H200.324C200.324 5.51691 200.382 5.29177 200.5 5.06859C200.617 4.8454 200.786 4.64376 201.005 4.46364C201.228 4.27962 201.494 4.13474 201.804 4.02903C202.117 3.91939 202.465 3.86458 202.849 3.86458C203.311 3.86458 203.718 3.94289 204.071 4.0995C204.427 4.25612 204.705 4.49301 204.905 4.81016C205.108 5.1234 205.21 5.51691 205.21 5.99068V8.95078C205.21 9.16222 205.228 9.38736 205.263 9.6262C205.302 9.86505 205.359 10.0706 205.433 10.2429V10.3369H204.3C204.245 10.2116 204.202 10.0452 204.171 9.83764C204.139 9.6262 204.124 9.43043 204.124 9.25032ZM204.312 6.48403L204.323 7.24755H203.225C202.916 7.24755 202.64 7.273 202.397 7.3239C202.154 7.37089 201.951 7.44332 201.786 7.54121C201.622 7.6391 201.496 7.76243 201.41 7.91122C201.324 8.05609 201.281 8.22642 201.281 8.42219C201.281 8.62188 201.326 8.80395 201.416 8.9684C201.506 9.13285 201.641 9.26402 201.821 9.36191C202.005 9.45588 202.23 9.50286 202.497 9.50286C202.83 9.50286 203.123 9.43239 203.378 9.29143C203.632 9.15047 203.834 8.97819 203.983 8.77458C204.135 8.57098 204.218 8.37325 204.229 8.18139L204.693 8.70411C204.666 8.86856 204.592 9.05063 204.47 9.25032C204.349 9.45 204.186 9.64186 203.983 9.82589C203.783 10.006 203.544 10.1567 203.266 10.2781C202.992 10.3956 202.683 10.4543 202.338 10.4543C201.907 10.4543 201.53 10.3701 201.205 10.2018C200.884 10.0334 200.633 9.80827 200.453 9.52636C200.277 9.24053 200.189 8.92142 200.189 8.56902C200.189 8.22838 200.255 7.92884 200.388 7.67042C200.521 7.40808 200.713 7.19077 200.964 7.01849C201.214 6.8423 201.516 6.70917 201.868 6.61911C202.221 6.52906 202.614 6.48403 203.049 6.48403H204.312ZM208.006 5.33875V10.3369H206.919V3.98204H207.947L208.006 5.33875ZM207.747 6.91865L207.295 6.90103C207.299 6.46641 207.364 6.06507 207.489 5.69702C207.614 5.32505 207.79 5.00202 208.018 4.72794C208.245 4.45386 208.515 4.24242 208.828 4.09363C209.145 3.94093 209.496 3.86458 209.879 3.86458C210.193 3.86458 210.475 3.90765 210.725 3.99379C210.976 4.07601 211.189 4.20914 211.365 4.39317C211.545 4.57719 211.682 4.81604 211.776 5.1097C211.87 5.39944 211.917 5.75379 211.917 6.17275V10.3369H210.825V6.161C210.825 5.82819 210.776 5.56194 210.678 5.36225C210.58 5.15864 210.437 5.01181 210.249 4.92176C210.061 4.82778 209.83 4.7808 209.556 4.7808C209.286 4.7808 209.04 4.83757 208.816 4.95112C208.597 5.06467 208.407 5.22129 208.247 5.42098C208.09 5.62067 207.967 5.84972 207.877 6.10814C207.79 6.36265 207.747 6.63282 207.747 6.91865ZM222.037 9.44413V10.3369H216.44V9.55572L219.241 6.43704C219.586 6.05333 219.852 5.72834 220.04 5.46209C220.232 5.19192 220.365 4.95112 220.439 4.73969C220.518 4.52433 220.557 4.30507 220.557 4.08189C220.557 3.79997 220.498 3.54546 220.381 3.31837C220.267 3.08735 220.099 2.90333 219.876 2.76628C219.652 2.62924 219.382 2.56072 219.065 2.56072C218.685 2.56072 218.368 2.63512 218.114 2.7839C217.863 2.92878 217.675 3.13238 217.55 3.39472C217.425 3.65706 217.362 3.95855 217.362 4.29919H216.275C216.275 3.81759 216.381 3.3771 216.592 2.97772C216.804 2.57834 217.117 2.26119 217.532 2.02626C217.947 1.78742 218.458 1.66799 219.065 1.66799C219.605 1.66799 220.067 1.76392 220.451 1.95578C220.835 2.14372 221.129 2.40998 221.332 2.75454C221.54 3.09518 221.643 3.49456 221.643 3.95267C221.643 4.20327 221.6 4.45777 221.514 4.71619C221.432 4.9707 221.316 5.2252 221.168 5.47971C221.023 5.73422 220.853 5.98481 220.657 6.23148C220.465 6.47816 220.259 6.72092 220.04 6.95976L217.749 9.44413H222.037ZM228.568 5.37987V6.68372C228.568 7.38459 228.505 7.97583 228.38 8.45743C228.255 8.93904 228.075 9.32667 227.84 9.62033C227.605 9.91399 227.321 10.1274 226.988 10.2605C226.659 10.3897 226.287 10.4543 225.872 10.4543C225.543 10.4543 225.24 10.4132 224.962 10.331C224.684 10.2488 224.433 10.1176 224.21 9.93748C223.991 9.75345 223.803 9.51461 223.646 9.22095C223.49 8.92729 223.37 8.57098 223.288 8.15202C223.206 7.73307 223.165 7.24363 223.165 6.68372V5.37987C223.165 4.679 223.227 4.09167 223.353 3.6179C223.482 3.14413 223.664 2.76433 223.899 2.4785C224.134 2.18875 224.416 1.98123 224.744 1.85594C225.077 1.73064 225.449 1.66799 225.86 1.66799C226.193 1.66799 226.499 1.70911 226.777 1.79133C227.059 1.86964 227.309 1.99689 227.528 2.17309C227.748 2.34537 227.934 2.57638 228.086 2.86613C228.243 3.15196 228.362 3.50239 228.445 3.91744C228.527 4.33248 228.568 4.81995 228.568 5.37987ZM227.476 6.85992V5.1978C227.476 4.81408 227.452 4.47735 227.405 4.1876C227.362 3.89394 227.297 3.64335 227.211 3.43583C227.125 3.22831 227.015 3.05995 226.882 2.93073C226.753 2.80152 226.602 2.70755 226.43 2.64882C226.262 2.58617 226.072 2.55485 225.86 2.55485C225.602 2.55485 225.373 2.60379 225.173 2.70168C224.974 2.79565 224.805 2.9464 224.668 3.15392C224.535 3.36144 224.433 3.63356 224.363 3.97029C224.292 4.30703 224.257 4.71619 224.257 5.1978V6.85992C224.257 7.24363 224.279 7.58232 224.322 7.87598C224.369 8.16964 224.437 8.42415 224.527 8.6395C224.617 8.85094 224.727 9.02518 224.856 9.16222C224.985 9.29926 225.134 9.40106 225.302 9.46762C225.475 9.53027 225.665 9.5616 225.872 9.5616C226.138 9.5616 226.371 9.51069 226.571 9.40889C226.771 9.30709 226.937 9.14851 227.07 8.93316C227.207 8.7139 227.309 8.43394 227.376 8.09329C227.442 7.74873 227.476 7.3376 227.476 6.85992ZM235.569 9.44413V10.3369H229.972V9.55572L232.773 6.43704C233.118 6.05333 233.384 5.72834 233.572 5.46209C233.764 5.19192 233.897 4.95112 233.971 4.73969C234.05 4.52433 234.089 4.30507 234.089 4.08189C234.089 3.79997 234.03 3.54546 233.913 3.31837C233.799 3.08735 233.631 2.90333 233.407 2.76628C233.184 2.62924 232.914 2.56072 232.597 2.56072C232.217 2.56072 231.9 2.63512 231.646 2.7839C231.395 2.92878 231.207 3.13238 231.082 3.39472C230.956 3.65706 230.894 3.95855 230.894 4.29919H229.807C229.807 3.81759 229.913 3.3771 230.124 2.97772C230.336 2.57834 230.649 2.26119 231.064 2.02626C231.479 1.78742 231.99 1.66799 232.597 1.66799C233.137 1.66799 233.599 1.76392 233.983 1.95578C234.367 2.14372 234.66 2.40998 234.864 2.75454C235.072 3.09518 235.175 3.49456 235.175 3.95267C235.175 4.20327 235.132 4.45777 235.046 4.71619C234.964 4.9707 234.848 5.2252 234.7 5.47971C234.555 5.73422 234.384 5.98481 234.189 6.23148C233.997 6.47816 233.791 6.72092 233.572 6.95976L231.281 9.44413H235.569ZM238.317 5.5267H239.093C239.473 5.5267 239.786 5.46405 240.032 5.33875C240.283 5.20954 240.469 5.0353 240.59 4.81604C240.716 4.59286 240.778 4.34226 240.778 4.06427C240.778 3.73537 240.724 3.45932 240.614 3.23614C240.504 3.01296 240.34 2.84459 240.121 2.73105C239.901 2.6175 239.623 2.56072 239.287 2.56072C238.981 2.56072 238.711 2.62141 238.476 2.74279C238.245 2.86026 238.063 3.02862 237.93 3.24789C237.801 3.46716 237.736 3.72558 237.736 4.02315H236.65C236.65 3.58854 236.759 3.19307 236.978 2.83676C237.198 2.48045 237.505 2.19658 237.9 1.98515C238.3 1.77371 238.762 1.66799 239.287 1.66799C239.803 1.66799 240.256 1.76001 240.643 1.94403C241.031 2.12415 241.332 2.39431 241.548 2.75454C241.763 3.11085 241.871 3.55525 241.871 4.08776C241.871 4.30311 241.82 4.53412 241.718 4.7808C241.62 5.02356 241.466 5.25066 241.254 5.46209C241.047 5.67353 240.776 5.84777 240.444 5.98481C240.111 6.11793 239.711 6.1845 239.245 6.1845H238.317V5.5267ZM238.317 6.41943V5.7675H239.245C239.79 5.7675 240.24 5.8321 240.596 5.96131C240.953 6.09053 241.233 6.26281 241.436 6.47816C241.644 6.69351 241.789 6.9304 241.871 7.18882C241.957 7.44332 242 7.69783 242 7.95233C242 8.35171 241.931 8.70606 241.794 9.01539C241.661 9.32471 241.471 9.58705 241.225 9.8024C240.982 10.0177 240.696 10.1802 240.367 10.2899C240.038 10.3995 239.68 10.4543 239.292 10.4543C238.92 10.4543 238.57 10.4015 238.241 10.2957C237.916 10.19 237.628 10.0373 237.378 9.83764C237.127 9.63403 236.931 9.3854 236.79 9.09174C236.65 8.79416 236.579 8.45547 236.579 8.07567H237.666C237.666 8.37325 237.73 8.63363 237.859 8.85681C237.993 9.07999 238.18 9.25423 238.423 9.37953C238.67 9.50091 238.96 9.5616 239.292 9.5616C239.625 9.5616 239.911 9.50482 240.15 9.39127C240.393 9.27381 240.579 9.09761 240.708 8.86268C240.841 8.62775 240.908 8.33214 240.908 7.97583C240.908 7.61952 240.833 7.32782 240.684 7.10072C240.536 6.86971 240.324 6.69938 240.05 6.58975C239.78 6.4762 239.461 6.41943 239.093 6.41943H238.317Z" fill="#C70000"/>
</svg>
