<svg width="84" height="21" viewBox="0 0 84 21" fill="none" xmlns="http://www.w3.org/2000/svg">
<path d="M42.2285 13.9062C42.2285 13.5742 42.1764 13.2812 42.0723 13.0273C41.9746 12.7669 41.7988 12.5326 41.5449 12.3242C41.2975 12.1159 40.9525 11.9173 40.5098 11.7285C40.0736 11.5397 39.5202 11.3477 38.8496 11.1523C38.1465 10.944 37.5117 10.7129 36.9453 10.459C36.3789 10.1986 35.8939 9.90234 35.4902 9.57031C35.0866 9.23828 34.7773 8.85742 34.5625 8.42773C34.3477 7.99805 34.2402 7.50651 34.2402 6.95312C34.2402 6.39974 34.3542 5.88867 34.582 5.41992C34.8099 4.95117 35.1354 4.54427 35.5586 4.19922C35.9883 3.84766 36.4993 3.57422 37.0918 3.37891C37.6842 3.18359 38.3451 3.08594 39.0742 3.08594C40.1419 3.08594 41.0469 3.29102 41.7891 3.70117C42.5378 4.10482 43.1074 4.63542 43.498 5.29297C43.8887 5.94401 44.084 6.64062 44.084 7.38281H42.209C42.209 6.84896 42.0951 6.37695 41.8672 5.9668C41.6393 5.55013 41.2943 5.22461 40.832 4.99023C40.3698 4.74935 39.7839 4.62891 39.0742 4.62891C38.4036 4.62891 37.8503 4.72982 37.4141 4.93164C36.9779 5.13346 36.6523 5.4069 36.4375 5.75195C36.2292 6.09701 36.125 6.49089 36.125 6.93359C36.125 7.23307 36.1868 7.50651 36.3105 7.75391C36.4408 7.99479 36.6393 8.2194 36.9062 8.42773C37.1797 8.63607 37.5247 8.82812 37.9414 9.00391C38.3646 9.17969 38.8691 9.34896 39.4551 9.51172C40.2624 9.73958 40.959 9.99349 41.5449 10.2734C42.1309 10.5534 42.6126 10.8691 42.9902 11.2207C43.3743 11.5658 43.6576 11.9596 43.8398 12.4023C44.0286 12.8385 44.123 13.3333 44.123 13.8867C44.123 14.4661 44.0059 14.9902 43.7715 15.459C43.5371 15.9277 43.2018 16.3281 42.7656 16.6602C42.3294 16.9922 41.8053 17.2493 41.1934 17.4316C40.5879 17.6074 39.9108 17.6953 39.1621 17.6953C38.5046 17.6953 37.8568 17.6042 37.2188 17.4219C36.5872 17.2396 36.0111 16.9661 35.4902 16.6016C34.9759 16.237 34.5625 15.7878 34.25 15.2539C33.944 14.7135 33.791 14.0885 33.791 13.3789H35.666C35.666 13.8672 35.7604 14.2871 35.9492 14.6387C36.138 14.9837 36.3952 15.2702 36.7207 15.498C37.0527 15.7259 37.4271 15.8952 37.8438 16.0059C38.2669 16.11 38.7064 16.1621 39.1621 16.1621C39.8197 16.1621 40.3763 16.071 40.832 15.8887C41.2878 15.7064 41.6328 15.446 41.8672 15.1074C42.1081 14.7689 42.2285 14.3685 42.2285 13.9062Z" fill="black"/>
<path d="M52.4824 15.6934V10.2539C52.4824 9.83724 52.3978 9.47591 52.2285 9.16992C52.0658 8.85742 51.8184 8.61654 51.4863 8.44727C51.1543 8.27799 50.7441 8.19336 50.2559 8.19336C49.8001 8.19336 49.3997 8.27148 49.0547 8.42773C48.7161 8.58398 48.4492 8.78906 48.2539 9.04297C48.0651 9.29688 47.9707 9.57031 47.9707 9.86328H46.1641C46.1641 9.48568 46.2617 9.11133 46.457 8.74023C46.6523 8.36914 46.9323 8.03385 47.2969 7.73438C47.668 7.42839 48.1107 7.1875 48.625 7.01172C49.1458 6.82943 49.7253 6.73828 50.3633 6.73828C51.1315 6.73828 51.8086 6.86849 52.3945 7.12891C52.987 7.38932 53.4492 7.7832 53.7812 8.31055C54.1198 8.83138 54.2891 9.48568 54.2891 10.2734V15.1953C54.2891 15.5469 54.3184 15.9212 54.377 16.3184C54.4421 16.7155 54.5365 17.0573 54.6602 17.3438V17.5H52.7754C52.6842 17.2917 52.6126 17.015 52.5605 16.6699C52.5085 16.3184 52.4824 15.9928 52.4824 15.6934ZM52.7949 11.0938L52.8145 12.3633H50.9883C50.474 12.3633 50.015 12.4056 49.6113 12.4902C49.2077 12.5684 48.8691 12.6888 48.5957 12.8516C48.3223 13.0143 48.1139 13.2194 47.9707 13.4668C47.8275 13.7077 47.7559 13.9909 47.7559 14.3164C47.7559 14.6484 47.8307 14.9512 47.9805 15.2246C48.1302 15.498 48.3548 15.7161 48.6543 15.8789C48.9603 16.0352 49.3346 16.1133 49.7773 16.1133C50.3307 16.1133 50.819 15.9961 51.2422 15.7617C51.6654 15.5273 52.0007 15.2409 52.248 14.9023C52.502 14.5638 52.6387 14.235 52.6582 13.916L53.4297 14.7852C53.3841 15.0586 53.2604 15.3613 53.0586 15.6934C52.8568 16.0254 52.5866 16.3444 52.248 16.6504C51.916 16.9499 51.5189 17.2005 51.0566 17.4023C50.6009 17.5977 50.0866 17.6953 49.5137 17.6953C48.7975 17.6953 48.1693 17.5553 47.6289 17.2754C47.0951 16.9954 46.6784 16.6211 46.3789 16.1523C46.0859 15.6771 45.9395 15.1465 45.9395 14.5605C45.9395 13.9941 46.0501 13.4961 46.2715 13.0664C46.4928 12.6302 46.8118 12.2689 47.2285 11.9824C47.6452 11.6895 48.1465 11.4681 48.7324 11.3184C49.3184 11.1686 49.9727 11.0938 50.6953 11.0938H52.7949Z" fill="black"/>
<path d="M57.1211 2.5H58.9375V15.4492L58.7812 17.5H57.1211V2.5ZM66.0762 12.1289V12.334C66.0762 13.1022 65.985 13.8151 65.8027 14.4727C65.6204 15.1237 65.3535 15.6901 65.002 16.1719C64.6504 16.6536 64.2207 17.028 63.7129 17.2949C63.2051 17.5618 62.6224 17.6953 61.9648 17.6953C61.2943 17.6953 60.7051 17.5814 60.1973 17.3535C59.696 17.1191 59.2728 16.7839 58.9277 16.3477C58.5827 15.9115 58.306 15.3841 58.0977 14.7656C57.8958 14.1471 57.7559 13.4505 57.6777 12.6758V11.7773C57.7559 10.9961 57.8958 10.2962 58.0977 9.67773C58.306 9.05924 58.5827 8.5319 58.9277 8.0957C59.2728 7.65299 59.696 7.31771 60.1973 7.08984C60.6986 6.85547 61.2812 6.73828 61.9453 6.73828C62.6094 6.73828 63.1986 6.86849 63.7129 7.12891C64.2272 7.38281 64.6569 7.7474 65.002 8.22266C65.3535 8.69792 65.6204 9.26758 65.8027 9.93164C65.985 10.5892 66.0762 11.3216 66.0762 12.1289ZM64.2598 12.334V12.1289C64.2598 11.6016 64.2109 11.1068 64.1133 10.6445C64.0156 10.1758 63.8594 9.76562 63.6445 9.41406C63.4297 9.05599 63.1465 8.77604 62.7949 8.57422C62.4434 8.36589 62.0104 8.26172 61.4961 8.26172C61.0404 8.26172 60.6432 8.33984 60.3047 8.49609C59.9727 8.65234 59.6895 8.86393 59.4551 9.13086C59.2207 9.39128 59.0286 9.69076 58.8789 10.0293C58.7357 10.3613 58.6283 10.7064 58.5566 11.0645V13.418C58.6608 13.8737 58.8301 14.3132 59.0645 14.7363C59.3053 15.153 59.6243 15.4948 60.0215 15.7617C60.4251 16.0286 60.9232 16.1621 61.5156 16.1621C62.0039 16.1621 62.4206 16.0645 62.7656 15.8691C63.1172 15.6673 63.4004 15.3906 63.6152 15.0391C63.8366 14.6875 63.9993 14.2806 64.1035 13.8184C64.2077 13.3561 64.2598 12.8613 64.2598 12.334Z" fill="black"/>
<path d="M72.7852 6.93359V8.32031H67.0723V6.93359H72.7852ZM69.0059 4.36523H70.8125V14.8828C70.8125 15.2409 70.8678 15.5111 70.9785 15.6934C71.0892 15.8757 71.2324 15.9961 71.4082 16.0547C71.584 16.1133 71.7728 16.1426 71.9746 16.1426C72.1243 16.1426 72.2806 16.1296 72.4434 16.1035C72.6126 16.071 72.7396 16.0449 72.8242 16.0254L72.834 17.5C72.6908 17.5456 72.502 17.5879 72.2676 17.627C72.0397 17.6725 71.763 17.6953 71.4375 17.6953C70.9948 17.6953 70.5879 17.6074 70.2168 17.4316C69.8457 17.2559 69.5495 16.9629 69.3281 16.5527C69.1133 16.1361 69.0059 15.5762 69.0059 14.873V4.36523Z" fill="black"/>
<path d="M81.3691 15.0586V6.93359H83.1855V17.5H81.457L81.3691 15.0586ZM81.7109 12.832L82.4629 12.8125C82.4629 13.5156 82.388 14.1667 82.2383 14.7656C82.0951 15.3581 81.8607 15.8724 81.5352 16.3086C81.2096 16.7448 80.7832 17.0866 80.2559 17.334C79.7285 17.5749 79.0872 17.6953 78.332 17.6953C77.8177 17.6953 77.3457 17.6204 76.916 17.4707C76.4928 17.321 76.1283 17.0898 75.8223 16.7773C75.5163 16.4648 75.2786 16.0579 75.1094 15.5566C74.9466 15.0553 74.8652 14.4531 74.8652 13.75V6.93359H76.6719V13.7695C76.6719 14.2448 76.724 14.6387 76.8281 14.9512C76.9388 15.2572 77.0853 15.5013 77.2676 15.6836C77.4564 15.8594 77.6647 15.9831 77.8926 16.0547C78.127 16.1263 78.3678 16.1621 78.6152 16.1621C79.3835 16.1621 79.9922 16.0156 80.4414 15.7227C80.8906 15.4232 81.2129 15.0228 81.4082 14.5215C81.61 14.0137 81.7109 13.4505 81.7109 12.832Z" fill="black"/>
<path d="M18.75 0H2.25C0.984375 0 0 1.03125 0 2.25V18.75C0 20.0156 0.984375 21 2.25 21H18.75C19.9688 21 21 20.0156 21 18.75V2.25C21 1.03125 19.9688 0 18.75 0ZM18.75 18.75H2.25V2.25H18.75V18.75ZM17.0625 7.45312C17.25 7.21875 17.25 6.89062 17.0625 6.65625L15.9844 5.57812C15.7969 5.34375 15.4219 5.34375 15.1875 5.57812L8.57812 12.1406L5.76562 9.32812C5.53125 9.09375 5.20312 9.09375 4.96875 9.32812L3.89062 10.3594C3.70312 10.5938 3.70312 10.9688 3.89062 11.1562L8.15625 15.4688C8.39062 15.7031 8.71875 15.7031 8.95312 15.4688L17.0625 7.45312Z" fill="black"/>
</svg>
