<svg width="24" height="24" viewBox="0 0 24 24" fill="none" xmlns="http://www.w3.org/2000/svg">
<path d="M12 0C5.32258 0 0 5.37097 0 12C0 18.6774 5.32258 24 12 24C14.3226 24 16.5968 23.3226 18.5323 22.0645C19.1129 21.6774 19.2581 20.9032 18.7742 20.371L18.2903 19.7419C17.9516 19.3065 17.2742 19.2097 16.7903 19.5C15.3387 20.4194 13.6935 20.9032 12 20.9032C7.06452 20.9032 3.09677 16.9355 3.09677 12C3.09677 7.1129 7.06452 3.09677 12 3.09677C16.8387 3.09677 20.9032 5.90323 20.9032 10.8387C20.9032 12.7258 19.8387 14.7097 18.0484 14.9032C17.2258 14.9032 17.2258 14.2742 17.4194 13.4516L18.5323 7.59677C18.6774 6.87097 18.1452 6.19355 17.4194 6.19355H15.2419C14.9032 6.19355 14.6129 6.48387 14.5645 6.77419V6.82258C13.8871 5.95161 12.629 5.75806 11.6613 5.75806C8.08065 5.75806 5.03226 8.75806 5.03226 13.0645C5.03226 16.2581 6.77419 18.1935 9.67742 18.1935C10.9355 18.1935 12.4355 17.4677 13.2581 16.3548C13.7419 18 15.2419 18 16.6935 18C21.9677 18 24 14.5161 24 10.8387C24 4.25806 18.6774 0 12 0ZM10.9355 14.7581C9.87097 14.7581 9.19355 13.9839 9.19355 12.7742C9.19355 10.5968 10.6935 9.24194 12 9.24194C13.1129 9.24194 13.7419 10.0161 13.7419 11.2258C13.7419 13.4032 12.0968 14.7581 10.9355 14.7581Z" fill="black" fill-opacity="0.5"/>
</svg>
