<svg width="82" height="21" viewBox="0 0 82 21" fill="none" xmlns="http://www.w3.org/2000/svg">
<path d="M42.2285 13.9062C42.2285 13.5742 42.1764 13.2812 42.0723 13.0273C41.9746 12.7669 41.7988 12.5326 41.5449 12.3242C41.2975 12.1159 40.9525 11.9173 40.5098 11.7285C40.0736 11.5397 39.5202 11.3477 38.8496 11.1523C38.1465 10.944 37.5117 10.7129 36.9453 10.459C36.3789 10.1986 35.8939 9.90234 35.4902 9.57031C35.0866 9.23828 34.7773 8.85742 34.5625 8.42773C34.3477 7.99805 34.2402 7.50651 34.2402 6.95312C34.2402 6.39974 34.3542 5.88867 34.582 5.41992C34.8099 4.95117 35.1354 4.54427 35.5586 4.19922C35.9883 3.84766 36.4993 3.57422 37.0918 3.37891C37.6842 3.18359 38.3451 3.08594 39.0742 3.08594C40.1419 3.08594 41.0469 3.29102 41.7891 3.70117C42.5378 4.10482 43.1074 4.63542 43.498 5.29297C43.8887 5.94401 44.084 6.64062 44.084 7.38281H42.209C42.209 6.84896 42.0951 6.37695 41.8672 5.9668C41.6393 5.55013 41.2943 5.22461 40.832 4.99023C40.3698 4.74935 39.7839 4.62891 39.0742 4.62891C38.4036 4.62891 37.8503 4.72982 37.4141 4.93164C36.9779 5.13346 36.6523 5.4069 36.4375 5.75195C36.2292 6.09701 36.125 6.49089 36.125 6.93359C36.125 7.23307 36.1868 7.50651 36.3105 7.75391C36.4408 7.99479 36.6393 8.2194 36.9062 8.42773C37.1797 8.63607 37.5247 8.82812 37.9414 9.00391C38.3646 9.17969 38.8691 9.34896 39.4551 9.51172C40.2624 9.73958 40.959 9.99349 41.5449 10.2734C42.1309 10.5534 42.6126 10.8691 42.9902 11.2207C43.3743 11.5658 43.6576 11.9596 43.8398 12.4023C44.0286 12.8385 44.123 13.3333 44.123 13.8867C44.123 14.4661 44.0059 14.9902 43.7715 15.459C43.5371 15.9277 43.2018 16.3281 42.7656 16.6602C42.3294 16.9922 41.8053 17.2493 41.1934 17.4316C40.5879 17.6074 39.9108 17.6953 39.1621 17.6953C38.5046 17.6953 37.8568 17.6042 37.2188 17.4219C36.5872 17.2396 36.0111 16.9661 35.4902 16.6016C34.9759 16.237 34.5625 15.7878 34.25 15.2539C33.944 14.7135 33.791 14.0885 33.791 13.3789H35.666C35.666 13.8672 35.7604 14.2871 35.9492 14.6387C36.138 14.9837 36.3952 15.2702 36.7207 15.498C37.0527 15.7259 37.4271 15.8952 37.8438 16.0059C38.2669 16.11 38.7064 16.1621 39.1621 16.1621C39.8197 16.1621 40.3763 16.071 40.832 15.8887C41.2878 15.7064 41.6328 15.446 41.8672 15.1074C42.1081 14.7689 42.2285 14.3685 42.2285 13.9062Z" fill="black"/>
<path d="M50.6367 17.6953C49.901 17.6953 49.2337 17.5716 48.6348 17.3242C48.0423 17.0703 47.5312 16.7155 47.1016 16.2598C46.6784 15.804 46.3529 15.2637 46.125 14.6387C45.8971 14.0137 45.7832 13.3301 45.7832 12.5879V12.1777C45.7832 11.3184 45.9102 10.5534 46.1641 9.88281C46.418 9.20573 46.763 8.63281 47.1992 8.16406C47.6354 7.69531 48.1302 7.34049 48.6836 7.09961C49.237 6.85872 49.8099 6.73828 50.4023 6.73828C51.1576 6.73828 51.8086 6.86849 52.3555 7.12891C52.9089 7.38932 53.3613 7.75391 53.7129 8.22266C54.0645 8.6849 54.3249 9.23177 54.4941 9.86328C54.6634 10.4883 54.748 11.1719 54.748 11.9141V12.7246H46.8574V11.25H52.9414V11.1133C52.9154 10.6445 52.8177 10.1888 52.6484 9.74609C52.4857 9.30339 52.2253 8.9388 51.8672 8.65234C51.5091 8.36589 51.0208 8.22266 50.4023 8.22266C49.9922 8.22266 49.6146 8.31055 49.2695 8.48633C48.9245 8.6556 48.6283 8.90951 48.3809 9.24805C48.1335 9.58659 47.9414 10 47.8047 10.4883C47.668 10.9766 47.5996 11.5397 47.5996 12.1777V12.5879C47.5996 13.0892 47.668 13.5612 47.8047 14.0039C47.9479 14.4401 48.153 14.8242 48.4199 15.1562C48.6934 15.4883 49.0221 15.7487 49.4062 15.9375C49.7969 16.1263 50.2396 16.2207 50.7344 16.2207C51.3724 16.2207 51.9128 16.0905 52.3555 15.8301C52.7982 15.5697 53.1855 15.2214 53.5176 14.7852L54.6113 15.6543C54.3835 15.9993 54.0938 16.3281 53.7422 16.6406C53.3906 16.9531 52.9577 17.207 52.4434 17.4023C51.9355 17.5977 51.3333 17.6953 50.6367 17.6953Z" fill="black"/>
<path d="M58.6641 9.18945V17.5H56.8574V6.93359H58.5664L58.6641 9.18945ZM58.2344 11.8164L57.4824 11.7871C57.4889 11.0645 57.5964 10.3971 57.8047 9.78516C58.013 9.16667 58.306 8.62956 58.6836 8.17383C59.0612 7.7181 59.5104 7.36654 60.0312 7.11914C60.5586 6.86523 61.1413 6.73828 61.7793 6.73828C62.3001 6.73828 62.7689 6.8099 63.1855 6.95312C63.6022 7.08984 63.957 7.3112 64.25 7.61719C64.5495 7.92318 64.7773 8.32031 64.9336 8.80859C65.0898 9.29036 65.168 9.87956 65.168 10.5762V17.5H63.3516V10.5566C63.3516 10.0033 63.2702 9.56055 63.1074 9.22852C62.9447 8.88997 62.707 8.64583 62.3945 8.49609C62.082 8.33984 61.6979 8.26172 61.2422 8.26172C60.793 8.26172 60.3828 8.35612 60.0117 8.54492C59.6471 8.73372 59.3314 8.99414 59.0645 9.32617C58.804 9.6582 58.599 10.0391 58.4492 10.4688C58.306 10.8919 58.2344 11.3411 58.2344 11.8164Z" fill="black"/>
<path d="M69.875 6.93359V17.5H68.0586V6.93359H69.875ZM67.9219 4.13086C67.9219 3.83789 68.0098 3.59049 68.1855 3.38867C68.3678 3.18685 68.6348 3.08594 68.9863 3.08594C69.3314 3.08594 69.5951 3.18685 69.7773 3.38867C69.9661 3.59049 70.0605 3.83789 70.0605 4.13086C70.0605 4.41081 69.9661 4.65169 69.7773 4.85352C69.5951 5.04883 69.3314 5.14648 68.9863 5.14648C68.6348 5.14648 68.3678 5.04883 68.1855 4.85352C68.0098 4.65169 67.9219 4.41081 67.9219 4.13086Z" fill="black"/>
<path d="M74.582 9.18945V17.5H72.7754V6.93359H74.4844L74.582 9.18945ZM74.1523 11.8164L73.4004 11.7871C73.4069 11.0645 73.5143 10.3971 73.7227 9.78516C73.931 9.16667 74.224 8.62956 74.6016 8.17383C74.9792 7.7181 75.4284 7.36654 75.9492 7.11914C76.4766 6.86523 77.0592 6.73828 77.6973 6.73828C78.2181 6.73828 78.6868 6.8099 79.1035 6.95312C79.5202 7.08984 79.875 7.3112 80.168 7.61719C80.4674 7.92318 80.6953 8.32031 80.8516 8.80859C81.0078 9.29036 81.0859 9.87956 81.0859 10.5762V17.5H79.2695V10.5566C79.2695 10.0033 79.1882 9.56055 79.0254 9.22852C78.8626 8.88997 78.625 8.64583 78.3125 8.49609C78 8.33984 77.6159 8.26172 77.1602 8.26172C76.7109 8.26172 76.3008 8.35612 75.9297 8.54492C75.5651 8.73372 75.2493 8.99414 74.9824 9.32617C74.722 9.6582 74.5169 10.0391 74.3672 10.4688C74.224 10.8919 74.1523 11.3411 74.1523 11.8164Z" fill="black"/>
<path d="M18.75 0H2.25C0.984375 0 0 1.03125 0 2.25V18.75C0 20.0156 0.984375 21 2.25 21H18.75C19.9688 21 21 20.0156 21 18.75V2.25C21 1.03125 19.9688 0 18.75 0ZM18.75 18.75H2.25V2.25H18.75V18.75ZM17.0625 7.45312C17.25 7.21875 17.25 6.89062 17.0625 6.65625L15.9844 5.57812C15.7969 5.34375 15.4219 5.34375 15.1875 5.57812L8.57812 12.1406L5.76562 9.32812C5.53125 9.09375 5.20312 9.09375 4.96875 9.32812L3.89062 10.3594C3.70312 10.5938 3.70312 10.9688 3.89062 11.1562L8.15625 15.4688C8.39062 15.7031 8.71875 15.7031 8.95312 15.4688L17.0625 7.45312Z" fill="black"/>
</svg>
