<svg width="25" height="25" viewBox="0 0 25 25" fill="none" xmlns="http://www.w3.org/2000/svg">
<path d="M24.5146 21.5049L19.6602 16.6505C19.4175 16.4563 19.1262 16.3107 18.835 16.3107H18.0583C19.3689 14.6117 20.1942 12.4757 20.1942 10.0971C20.1942 4.56311 15.6311 0 10.0971 0C4.51456 0 0 4.56311 0 10.0971C0 15.6796 4.51456 20.1942 10.0971 20.1942C12.4272 20.1942 14.5631 19.4175 16.3107 18.0583V18.8835C16.3107 19.1748 16.4078 19.466 16.6505 19.7087L21.4563 24.5146C21.9417 25 22.6699 25 23.1068 24.5146L24.466 23.1553C24.9515 22.7184 24.9515 21.9903 24.5146 21.5049ZM10.0971 16.3107C6.65049 16.3107 3.8835 13.5437 3.8835 10.0971C3.8835 6.69903 6.65049 3.8835 10.0971 3.8835C13.4951 3.8835 16.3107 6.69903 16.3107 10.0971C16.3107 13.5437 13.4951 16.3107 10.0971 16.3107Z" fill="black" fill-opacity="0.5"/>
</svg>
