<svg width="99" height="22" viewBox="0 0 99 22" fill="none" xmlns="http://www.w3.org/2000/svg">
<path d="M35.4257 3.29797H37.2612L41.9431 14.9488L46.6153 3.29797H48.4606L42.6498 17.5892H41.2168L35.4257 3.29797ZM34.827 3.29797H36.4465L36.7115 12.014V17.5892H34.827V3.29797ZM47.4299 3.29797H49.0495V17.5892H47.1649V12.014L47.4299 3.29797Z" fill="black"/>
<path d="M54.075 6.96893V17.5892H52.2493V6.96893H54.075ZM52.1119 4.15191C52.1119 3.85745 52.2002 3.60879 52.3769 3.40594C52.5601 3.20309 52.8284 3.10166 53.1818 3.10166C53.5286 3.10166 53.7936 3.20309 53.9768 3.40594C54.1666 3.60879 54.2614 3.85745 54.2614 4.15191C54.2614 4.43329 54.1666 4.6754 53.9768 4.87825C53.7936 5.07456 53.5286 5.17271 53.1818 5.17271C52.8284 5.17271 52.5601 5.07456 52.3769 4.87825C52.2002 4.6754 52.1119 4.43329 52.1119 4.15191Z" fill="black"/>
<path d="M58.806 9.23628V17.5892H56.9901V6.96893H58.7078L58.806 9.23628ZM58.3741 11.8766L57.6183 11.8472C57.6249 11.1208 57.7328 10.4501 57.9422 9.83502C58.1516 9.21338 58.4461 8.67353 58.8256 8.21548C59.2051 7.75743 59.6566 7.40408 60.1801 7.15542C60.7102 6.90022 61.2958 6.77262 61.9371 6.77262C62.4606 6.77262 62.9317 6.8446 63.3505 6.98856C63.7693 7.12597 64.1259 7.34846 64.4204 7.65601C64.7214 7.96355 64.9504 8.36271 65.1075 8.85348C65.2645 9.33771 65.343 9.9299 65.343 10.6301V17.5892H63.5174V10.6104C63.5174 10.0542 63.4356 9.60927 63.272 9.27554C63.1084 8.93528 62.8695 8.68989 62.5555 8.53939C62.2414 8.38234 61.8553 8.30382 61.3972 8.30382C60.9457 8.30382 60.5335 8.3987 60.1605 8.58847C59.7941 8.77823 59.4767 9.03998 59.2084 9.3737C58.9467 9.70742 58.7405 10.0902 58.59 10.5221C58.4461 10.9474 58.3741 11.3989 58.3741 11.8766Z" fill="black"/>
<path d="M74.9817 6.96893H76.6307V17.3634C76.6307 18.2992 76.441 19.0975 76.0614 19.7584C75.6819 20.4193 75.1519 20.9199 74.4713 21.2601C73.7973 21.6069 73.0187 21.7804 72.1353 21.7804C71.7688 21.7804 71.337 21.7215 70.8396 21.6037C70.3489 21.4924 69.8646 21.2994 69.387 21.0246C68.9158 20.7563 68.5199 20.3931 68.1993 19.9351L69.1514 18.8554C69.5964 19.3919 70.061 19.7649 70.5452 19.9743C71.036 20.1837 71.5202 20.2884 71.9979 20.2884C72.5737 20.2884 73.071 20.1804 73.4898 19.9645C73.9086 19.7486 74.2325 19.4279 74.4615 19.0026C74.6971 18.5838 74.8149 18.0669 74.8149 17.4518V9.30499L74.9817 6.96893ZM67.6693 12.3968V12.1907C67.6693 11.3793 67.7642 10.6432 67.9539 9.98225C68.1502 9.31481 68.4283 8.74224 68.7882 8.26456C69.1547 7.78688 69.5964 7.42044 70.1133 7.16524C70.6302 6.90349 71.2126 6.77262 71.8604 6.77262C72.5279 6.77262 73.1103 6.8904 73.6076 7.12597C74.1114 7.355 74.5368 7.69199 74.8836 8.13696C75.2369 8.57538 75.515 9.10541 75.7179 9.72705C75.9207 10.3487 76.0614 11.0521 76.14 11.8374V12.7404C76.068 13.5191 75.9273 14.2192 75.7179 14.8409C75.515 15.4625 75.2369 15.9925 74.8836 16.431C74.5368 16.8694 74.1114 17.2064 73.6076 17.442C73.1037 17.671 72.5148 17.7855 71.8408 17.7855C71.2061 17.7855 70.6302 17.6513 70.1133 17.3831C69.6029 17.1148 69.1645 16.7385 68.798 16.2543C68.4316 15.7701 68.1502 15.2008 67.9539 14.5464C67.7642 13.8855 67.6693 13.169 67.6693 12.3968ZM69.4851 12.1907V12.3968C69.4851 12.9269 69.5375 13.4242 69.6422 13.8888C69.7534 14.3534 69.9203 14.7623 70.1427 15.1157C70.3718 15.4691 70.663 15.7472 71.0163 15.95C71.3697 16.1463 71.7917 16.2445 72.2825 16.2445C72.8845 16.2445 73.3818 16.1169 73.7744 15.8617C74.1671 15.6065 74.4779 15.2695 74.7069 14.8507C74.9425 14.4319 75.1257 13.9771 75.2566 13.4863V11.1208C75.1846 10.7609 75.0733 10.4141 74.9228 10.0804C74.7789 9.74014 74.5891 9.43913 74.3536 9.17739C74.1245 8.9091 73.8399 8.69644 73.4996 8.53939C73.1593 8.38234 72.7602 8.30382 72.3021 8.30382C71.8048 8.30382 71.3762 8.40852 71.0163 8.61791C70.663 8.82076 70.3718 9.10214 70.1427 9.46204C69.9203 9.81539 69.7534 10.2276 69.6422 10.6988C69.5375 11.1634 69.4851 11.6607 69.4851 12.1907Z" fill="black"/>
<path d="M86.2694 6.96893H87.9184V17.3634C87.9184 18.2992 87.7287 19.0975 87.3491 19.7584C86.9696 20.4193 86.4396 20.9199 85.759 21.2601C85.085 21.6069 84.3064 21.7804 83.423 21.7804C83.0565 21.7804 82.6247 21.7215 82.1273 21.6037C81.6366 21.4924 81.1523 21.2994 80.6747 21.0246C80.2035 20.7563 79.8076 20.3931 79.487 19.9351L80.4391 18.8554C80.8841 19.3919 81.3487 19.7649 81.8329 19.9743C82.3237 20.1837 82.8079 20.2884 83.2856 20.2884C83.8614 20.2884 84.3587 20.1804 84.7775 19.9645C85.1963 19.7486 85.5202 19.4279 85.7492 19.0026C85.9848 18.5838 86.1026 18.0669 86.1026 17.4518V9.30499L86.2694 6.96893ZM78.957 12.3968V12.1907C78.957 11.3793 79.0519 10.6432 79.2416 9.98225C79.4379 9.31481 79.716 8.74224 80.0759 8.26456C80.4424 7.78688 80.8841 7.42044 81.401 7.16524C81.9179 6.90349 82.5003 6.77262 83.1481 6.77262C83.8156 6.77262 84.398 6.8904 84.8953 7.12597C85.3991 7.355 85.8245 7.69199 86.1713 8.13696C86.5246 8.57538 86.8027 9.10541 87.0056 9.72705C87.2084 10.3487 87.3491 11.0521 87.4277 11.8374V12.7404C87.3557 13.5191 87.215 14.2192 87.0056 14.8409C86.8027 15.4625 86.5246 15.9925 86.1713 16.431C85.8245 16.8694 85.3991 17.2064 84.8953 17.442C84.3914 17.671 83.8025 17.7855 83.1285 17.7855C82.4938 17.7855 81.9179 17.6513 81.401 17.3831C80.8906 17.1148 80.4522 16.7385 80.0857 16.2543C79.7193 15.7701 79.4379 15.2008 79.2416 14.5464C79.0519 13.8855 78.957 13.169 78.957 12.3968ZM80.7728 12.1907V12.3968C80.7728 12.9269 80.8252 13.4242 80.9299 13.8888C81.0411 14.3534 81.208 14.7623 81.4304 15.1157C81.6595 15.4691 81.9507 15.7472 82.304 15.95C82.6574 16.1463 83.0794 16.2445 83.5702 16.2445C84.1722 16.2445 84.6695 16.1169 85.0621 15.8617C85.4548 15.6065 85.7656 15.2695 85.9946 14.8507C86.2302 14.4319 86.4134 13.9771 86.5443 13.4863V11.1208C86.4723 10.7609 86.361 10.4141 86.2105 10.0804C86.0666 9.74014 85.8768 9.43913 85.6413 9.17739C85.4122 8.9091 85.1276 8.69644 84.7873 8.53939C84.447 8.38234 84.0479 8.30382 83.5898 8.30382C83.0925 8.30382 82.6639 8.40852 82.304 8.61791C81.9507 8.82076 81.6595 9.10214 81.4304 9.46204C81.208 9.81539 81.0411 10.2276 80.9299 10.6988C80.8252 11.1634 80.7728 11.6607 80.7728 12.1907Z" fill="black"/>
<path d="M97.1743 15.1353V6.96893H99V17.5892H97.2627L97.1743 15.1353ZM97.5179 12.8974L98.2737 12.8778C98.2737 13.5845 98.1984 14.2389 98.0479 14.8409C97.9039 15.4363 97.6684 15.9533 97.3412 16.3917C97.014 16.8301 96.5854 17.1737 96.0554 17.4223C95.5254 17.6644 94.8808 17.7855 94.1218 17.7855C93.6048 17.7855 93.1304 17.7102 92.6985 17.5597C92.2732 17.4092 91.9067 17.1769 91.5992 16.8628C91.2916 16.5487 91.0528 16.1398 90.8827 15.6359C90.7191 15.1321 90.6373 14.5268 90.6373 13.8201V6.96893H92.4531V13.8397C92.4531 14.3174 92.5055 14.7133 92.6102 15.0274C92.7214 15.3349 92.8687 15.5803 93.0519 15.7635C93.2416 15.9402 93.451 16.0645 93.6801 16.1365C93.9156 16.2085 94.1577 16.2445 94.4064 16.2445C95.1785 16.2445 95.7904 16.0972 96.2419 15.8028C96.6934 15.5018 97.0173 15.0993 97.2136 14.5955C97.4165 14.0851 97.5179 13.5191 97.5179 12.8974Z" fill="black"/>
<path d="M18.8456 0H2.26147C0.989391 0 0 1.03651 0 2.26147V18.8456C0 20.1176 0.989391 21.107 2.26147 21.107H18.8456C20.0705 21.107 21.107 20.1176 21.107 18.8456V2.26147C21.107 1.03651 20.0705 0 18.8456 0ZM18.8456 18.8456H2.26147V2.26147H18.8456V18.8456ZM17.1495 7.49111C17.3379 7.25554 17.3379 6.92574 17.1495 6.69017L16.0658 5.60655C15.8774 5.37098 15.5005 5.37098 15.2649 5.60655L8.62184 12.2025L5.79501 9.37566C5.55944 9.14009 5.22964 9.14009 4.99407 9.37566L3.91045 10.4122C3.722 10.6477 3.722 11.0246 3.91045 11.2131L8.19781 15.5476C8.43338 15.7831 8.76318 15.7831 8.99875 15.5476L17.1495 7.49111Z" fill="black"/>
</svg>
