<svg width="320" height="53" viewBox="0 0 320 53" fill="none" xmlns="http://www.w3.org/2000/svg">
<path d="M0.5 20C0.5 9.23045 9.23045 0.5 20 0.5H300C310.77 0.5 319.5 9.23045 319.5 20V33C319.5 43.7696 310.77 52.5 300 52.5H20C9.23045 52.5 0.5 43.7696 0.5 33V20Z" fill="#D9D9D9" stroke="black"/>
<path d="M36.1093 16.1719L31.2343 15.0469C30.7187 14.9063 30.1562 15.1875 29.9218 15.7031L27.6718 20.9531C27.4843 21.4219 27.625 21.9375 28 22.2656L30.8593 24.6094C29.1718 28.1719 26.2187 31.1719 22.5625 32.9062L20.2187 30.0469C19.8906 29.6719 19.375 29.5313 18.9062 29.7188L13.6562 31.9688C13.1406 32.2031 12.9062 32.7656 13 33.2812L14.125 38.1562C14.2656 38.6719 14.6875 39 15.25 39C27.25 39 37 29.2969 37 17.25C37 16.7344 36.625 16.3125 36.1093 16.1719Z" fill="black" fill-opacity="0.5"/>
<path d="M88.1055 19.9375V37H85.832L77.2422 23.8398V37H74.9805V19.9375H77.2422L85.8672 33.1328V19.9375H88.1055Z" fill="black" fill-opacity="0.5"/>
<path d="M91.2109 30.8008V30.5312C91.2109 29.6172 91.3438 28.7695 91.6094 27.9883C91.875 27.1992 92.2578 26.5156 92.7578 25.9375C93.2578 25.3516 93.8633 24.8984 94.5742 24.5781C95.2852 24.25 96.082 24.0859 96.9648 24.0859C97.8555 24.0859 98.6562 24.25 99.3672 24.5781C100.086 24.8984 100.695 25.3516 101.195 25.9375C101.703 26.5156 102.09 27.1992 102.355 27.9883C102.621 28.7695 102.754 29.6172 102.754 30.5312V30.8008C102.754 31.7148 102.621 32.5625 102.355 33.3438C102.09 34.125 101.703 34.8086 101.195 35.3945C100.695 35.9727 100.09 36.4258 99.3789 36.7539C98.6758 37.0742 97.8789 37.2344 96.9883 37.2344C96.0977 37.2344 95.2969 37.0742 94.5859 36.7539C93.875 36.4258 93.2656 35.9727 92.7578 35.3945C92.2578 34.8086 91.875 34.125 91.6094 33.3438C91.3438 32.5625 91.2109 31.7148 91.2109 30.8008ZM93.3789 30.5312V30.8008C93.3789 31.4336 93.4531 32.0312 93.6016 32.5938C93.75 33.1484 93.9727 33.6406 94.2695 34.0703C94.5742 34.5 94.9531 34.8398 95.4062 35.0898C95.8594 35.332 96.3867 35.4531 96.9883 35.4531C97.582 35.4531 98.1016 35.332 98.5469 35.0898C99 34.8398 99.375 34.5 99.6719 34.0703C99.9688 33.6406 100.191 33.1484 100.34 32.5938C100.496 32.0312 100.574 31.4336 100.574 30.8008V30.5312C100.574 29.9062 100.496 29.3164 100.34 28.7617C100.191 28.1992 99.9648 27.7031 99.6602 27.2734C99.3633 26.8359 98.9883 26.4922 98.5352 26.2422C98.0898 25.9922 97.5664 25.8672 96.9648 25.8672C96.3711 25.8672 95.8477 25.9922 95.3945 26.2422C94.9492 26.4922 94.5742 26.8359 94.2695 27.2734C93.9727 27.7031 93.75 28.1992 93.6016 28.7617C93.4531 29.3164 93.3789 29.9062 93.3789 30.5312Z" fill="black" fill-opacity="0.5"/>
<path d="M107.629 26.8398V37H105.449V24.3203H107.512L107.629 26.8398ZM107.184 30.1797L106.176 30.1445C106.184 29.2773 106.297 28.4766 106.516 27.7422C106.734 27 107.059 26.3555 107.488 25.8086C107.918 25.2617 108.453 24.8398 109.094 24.543C109.734 24.2383 110.477 24.0859 111.32 24.0859C111.914 24.0859 112.461 24.1719 112.961 24.3438C113.461 24.5078 113.895 24.7695 114.262 25.1289C114.629 25.4883 114.914 25.9492 115.117 26.5117C115.32 27.0742 115.422 27.7539 115.422 28.5508V37H113.254V28.6562C113.254 27.9922 113.141 27.4609 112.914 27.0625C112.695 26.6641 112.383 26.375 111.977 26.1953C111.57 26.0078 111.094 25.9141 110.547 25.9141C109.906 25.9141 109.371 26.0273 108.941 26.2539C108.512 26.4805 108.168 26.793 107.91 27.1914C107.652 27.5898 107.465 28.0469 107.348 28.5625C107.238 29.0703 107.184 29.6094 107.184 30.1797ZM115.398 28.9844L113.945 29.4297C113.953 28.7344 114.066 28.0664 114.285 27.4258C114.512 26.7852 114.836 26.2148 115.258 25.7148C115.688 25.2148 116.215 24.8203 116.84 24.5312C117.465 24.2344 118.18 24.0859 118.984 24.0859C119.664 24.0859 120.266 24.1758 120.789 24.3555C121.32 24.5352 121.766 24.8125 122.125 25.1875C122.492 25.5547 122.77 26.0273 122.957 26.6055C123.145 27.1836 123.238 27.8711 123.238 28.668V37H121.059V28.6445C121.059 27.9336 120.945 27.3828 120.719 26.9922C120.5 26.5938 120.188 26.3164 119.781 26.1602C119.383 25.9961 118.906 25.9141 118.352 25.9141C117.875 25.9141 117.453 25.9961 117.086 26.1602C116.719 26.3242 116.41 26.5508 116.16 26.8398C115.91 27.1211 115.719 27.4453 115.586 27.8125C115.461 28.1797 115.398 28.5703 115.398 28.9844Z" fill="black" fill-opacity="0.5"/>
<path d="M125.945 30.8008V30.5312C125.945 29.6172 126.078 28.7695 126.344 27.9883C126.609 27.1992 126.992 26.5156 127.492 25.9375C127.992 25.3516 128.598 24.8984 129.309 24.5781C130.02 24.25 130.816 24.0859 131.699 24.0859C132.59 24.0859 133.391 24.25 134.102 24.5781C134.82 24.8984 135.43 25.3516 135.93 25.9375C136.438 26.5156 136.824 27.1992 137.09 27.9883C137.355 28.7695 137.488 29.6172 137.488 30.5312V30.8008C137.488 31.7148 137.355 32.5625 137.09 33.3438C136.824 34.125 136.438 34.8086 135.93 35.3945C135.43 35.9727 134.824 36.4258 134.113 36.7539C133.41 37.0742 132.613 37.2344 131.723 37.2344C130.832 37.2344 130.031 37.0742 129.32 36.7539C128.609 36.4258 128 35.9727 127.492 35.3945C126.992 34.8086 126.609 34.125 126.344 33.3438C126.078 32.5625 125.945 31.7148 125.945 30.8008ZM128.113 30.5312V30.8008C128.113 31.4336 128.188 32.0312 128.336 32.5938C128.484 33.1484 128.707 33.6406 129.004 34.0703C129.309 34.5 129.688 34.8398 130.141 35.0898C130.594 35.332 131.121 35.4531 131.723 35.4531C132.316 35.4531 132.836 35.332 133.281 35.0898C133.734 34.8398 134.109 34.5 134.406 34.0703C134.703 33.6406 134.926 33.1484 135.074 32.5938C135.23 32.0312 135.309 31.4336 135.309 30.8008V30.5312C135.309 29.9062 135.23 29.3164 135.074 28.7617C134.926 28.1992 134.699 27.7031 134.395 27.2734C134.098 26.8359 133.723 26.4922 133.27 26.2422C132.824 25.9922 132.301 25.8672 131.699 25.8672C131.105 25.8672 130.582 25.9922 130.129 26.2422C129.684 26.4922 129.309 26.8359 129.004 27.2734C128.707 27.7031 128.484 28.1992 128.336 28.7617C128.188 29.3164 128.113 29.9062 128.113 30.5312Z" fill="black" fill-opacity="0.5"/>
<path d="M142.375 26.3125V37H140.207V24.3203H142.316L142.375 26.3125ZM146.336 24.25L146.324 26.2656C146.145 26.2266 145.973 26.2031 145.809 26.1953C145.652 26.1797 145.473 26.1719 145.27 26.1719C144.77 26.1719 144.328 26.25 143.945 26.4062C143.562 26.5625 143.238 26.7812 142.973 27.0625C142.707 27.3438 142.496 27.6797 142.34 28.0703C142.191 28.4531 142.094 28.875 142.047 29.3359L141.438 29.6875C141.438 28.9219 141.512 28.2031 141.66 27.5312C141.816 26.8594 142.055 26.2656 142.375 25.75C142.695 25.2266 143.102 24.8203 143.594 24.5312C144.094 24.2344 144.688 24.0859 145.375 24.0859C145.531 24.0859 145.711 24.1055 145.914 24.1445C146.117 24.1758 146.258 24.2109 146.336 24.25Z" fill="black" fill-opacity="0.5"/>
<path d="M159.602 24.3203V25.9844H152.746V24.3203H159.602ZM155.066 21.2383H157.234V33.8594C157.234 34.2891 157.301 34.6133 157.434 34.832C157.566 35.0508 157.738 35.1953 157.949 35.2656C158.16 35.3359 158.387 35.3711 158.629 35.3711C158.809 35.3711 158.996 35.3555 159.191 35.3242C159.395 35.2852 159.547 35.2539 159.648 35.2305L159.66 37C159.488 37.0547 159.262 37.1055 158.98 37.1523C158.707 37.207 158.375 37.2344 157.984 37.2344C157.453 37.2344 156.965 37.1289 156.52 36.918C156.074 36.707 155.719 36.3555 155.453 35.8633C155.195 35.3633 155.066 34.6914 155.066 33.8477V21.2383Z" fill="black" fill-opacity="0.5"/>
<path d="M167.406 37.2344C166.523 37.2344 165.723 37.0859 165.004 36.7891C164.293 36.4844 163.68 36.0586 163.164 35.5117C162.656 34.9648 162.266 34.3164 161.992 33.5664C161.719 32.8164 161.582 31.9961 161.582 31.1055V30.6133C161.582 29.582 161.734 28.6641 162.039 27.8594C162.344 27.0469 162.758 26.3594 163.281 25.7969C163.805 25.2344 164.398 24.8086 165.062 24.5195C165.727 24.2305 166.414 24.0859 167.125 24.0859C168.031 24.0859 168.812 24.2422 169.469 24.5547C170.133 24.8672 170.676 25.3047 171.098 25.8672C171.52 26.4219 171.832 27.0781 172.035 27.8359C172.238 28.5859 172.34 29.4062 172.34 30.2969V31.2695H162.871V29.5H170.172V29.3359C170.141 28.7734 170.023 28.2266 169.82 27.6953C169.625 27.1641 169.312 26.7266 168.883 26.3828C168.453 26.0391 167.867 25.8672 167.125 25.8672C166.633 25.8672 166.18 25.9727 165.766 26.1836C165.352 26.3867 164.996 26.6914 164.699 27.0977C164.402 27.5039 164.172 28 164.008 28.5859C163.844 29.1719 163.762 29.8477 163.762 30.6133V31.1055C163.762 31.707 163.844 32.2734 164.008 32.8047C164.18 33.3281 164.426 33.7891 164.746 34.1875C165.074 34.5859 165.469 34.8984 165.93 35.125C166.398 35.3516 166.93 35.4648 167.523 35.4648C168.289 35.4648 168.938 35.3086 169.469 34.9961C170 34.6836 170.465 34.2656 170.863 33.7422L172.176 34.7852C171.902 35.1992 171.555 35.5938 171.133 35.9688C170.711 36.3438 170.191 36.6484 169.574 36.8828C168.965 37.1172 168.242 37.2344 167.406 37.2344Z" fill="black" fill-opacity="0.5"/>
<path d="M177.227 19V37H175.047V19H177.227Z" fill="black" fill-opacity="0.5"/>
<path d="M185.969 37.2344C185.086 37.2344 184.285 37.0859 183.566 36.7891C182.855 36.4844 182.242 36.0586 181.727 35.5117C181.219 34.9648 180.828 34.3164 180.555 33.5664C180.281 32.8164 180.145 31.9961 180.145 31.1055V30.6133C180.145 29.582 180.297 28.6641 180.602 27.8594C180.906 27.0469 181.32 26.3594 181.844 25.7969C182.367 25.2344 182.961 24.8086 183.625 24.5195C184.289 24.2305 184.977 24.0859 185.688 24.0859C186.594 24.0859 187.375 24.2422 188.031 24.5547C188.695 24.8672 189.238 25.3047 189.66 25.8672C190.082 26.4219 190.395 27.0781 190.598 27.8359C190.801 28.5859 190.902 29.4062 190.902 30.2969V31.2695H181.434V29.5H188.734V29.3359C188.703 28.7734 188.586 28.2266 188.383 27.6953C188.188 27.1641 187.875 26.7266 187.445 26.3828C187.016 26.0391 186.43 25.8672 185.688 25.8672C185.195 25.8672 184.742 25.9727 184.328 26.1836C183.914 26.3867 183.559 26.6914 183.262 27.0977C182.965 27.5039 182.734 28 182.57 28.5859C182.406 29.1719 182.324 29.8477 182.324 30.6133V31.1055C182.324 31.707 182.406 32.2734 182.57 32.8047C182.742 33.3281 182.988 33.7891 183.309 34.1875C183.637 34.5859 184.031 34.8984 184.492 35.125C184.961 35.3516 185.492 35.4648 186.086 35.4648C186.852 35.4648 187.5 35.3086 188.031 34.9961C188.562 34.6836 189.027 34.2656 189.426 33.7422L190.738 34.7852C190.465 35.1992 190.117 35.5938 189.695 35.9688C189.273 36.3438 188.754 36.6484 188.137 36.8828C187.527 37.1172 186.805 37.2344 185.969 37.2344Z" fill="black" fill-opacity="0.5"/>
<path d="M195.602 26.7578V41.875H193.422V24.3203H195.414L195.602 26.7578ZM204.145 30.5547V30.8008C204.145 31.7227 204.035 32.5781 203.816 33.3672C203.598 34.1484 203.277 34.8281 202.855 35.4062C202.441 35.9844 201.93 36.4336 201.32 36.7539C200.711 37.0742 200.012 37.2344 199.223 37.2344C198.418 37.2344 197.707 37.1016 197.09 36.8359C196.473 36.5703 195.949 36.1836 195.52 35.6758C195.09 35.168 194.746 34.5586 194.488 33.8477C194.238 33.1367 194.066 32.3359 193.973 31.4453V30.1328C194.066 29.1953 194.242 28.3555 194.5 27.6133C194.758 26.8711 195.098 26.2383 195.52 25.7148C195.949 25.1836 196.469 24.7812 197.078 24.5078C197.688 24.2266 198.391 24.0859 199.188 24.0859C199.984 24.0859 200.691 24.2422 201.309 24.5547C201.926 24.8594 202.445 25.2969 202.867 25.8672C203.289 26.4375 203.605 27.1211 203.816 27.918C204.035 28.707 204.145 29.5859 204.145 30.5547ZM201.965 30.8008V30.5547C201.965 29.9219 201.898 29.3281 201.766 28.7734C201.633 28.2109 201.426 27.7188 201.145 27.2969C200.871 26.8672 200.52 26.5312 200.09 26.2891C199.66 26.0391 199.148 25.9141 198.555 25.9141C198.008 25.9141 197.531 26.0078 197.125 26.1953C196.727 26.3828 196.387 26.6367 196.105 26.957C195.824 27.2695 195.594 27.6289 195.414 28.0352C195.242 28.4336 195.113 28.8477 195.027 29.2773V32.3125C195.184 32.8594 195.402 33.375 195.684 33.8594C195.965 34.3359 196.34 34.7227 196.809 35.0195C197.277 35.3086 197.867 35.4531 198.578 35.4531C199.164 35.4531 199.668 35.332 200.09 35.0898C200.52 34.8398 200.871 34.5 201.145 34.0703C201.426 33.6406 201.633 33.1484 201.766 32.5938C201.898 32.0312 201.965 31.4336 201.965 30.8008Z" fill="black" fill-opacity="0.5"/>
<path d="M206.336 30.8008V30.5312C206.336 29.6172 206.469 28.7695 206.734 27.9883C207 27.1992 207.383 26.5156 207.883 25.9375C208.383 25.3516 208.988 24.8984 209.699 24.5781C210.41 24.25 211.207 24.0859 212.09 24.0859C212.98 24.0859 213.781 24.25 214.492 24.5781C215.211 24.8984 215.82 25.3516 216.32 25.9375C216.828 26.5156 217.215 27.1992 217.48 27.9883C217.746 28.7695 217.879 29.6172 217.879 30.5312V30.8008C217.879 31.7148 217.746 32.5625 217.48 33.3438C217.215 34.125 216.828 34.8086 216.32 35.3945C215.82 35.9727 215.215 36.4258 214.504 36.7539C213.801 37.0742 213.004 37.2344 212.113 37.2344C211.223 37.2344 210.422 37.0742 209.711 36.7539C209 36.4258 208.391 35.9727 207.883 35.3945C207.383 34.8086 207 34.125 206.734 33.3438C206.469 32.5625 206.336 31.7148 206.336 30.8008ZM208.504 30.5312V30.8008C208.504 31.4336 208.578 32.0312 208.727 32.5938C208.875 33.1484 209.098 33.6406 209.395 34.0703C209.699 34.5 210.078 34.8398 210.531 35.0898C210.984 35.332 211.512 35.4531 212.113 35.4531C212.707 35.4531 213.227 35.332 213.672 35.0898C214.125 34.8398 214.5 34.5 214.797 34.0703C215.094 33.6406 215.316 33.1484 215.465 32.5938C215.621 32.0312 215.699 31.4336 215.699 30.8008V30.5312C215.699 29.9062 215.621 29.3164 215.465 28.7617C215.316 28.1992 215.09 27.7031 214.785 27.2734C214.488 26.8359 214.113 26.4922 213.66 26.2422C213.215 25.9922 212.691 25.8672 212.09 25.8672C211.496 25.8672 210.973 25.9922 210.52 26.2422C210.074 26.4922 209.699 26.8359 209.395 27.2734C209.098 27.7031 208.875 28.1992 208.727 28.7617C208.578 29.3164 208.504 29.9062 208.504 30.5312Z" fill="black" fill-opacity="0.5"/>
<path d="M222.766 27.0273V37H220.598V24.3203H222.648L222.766 27.0273ZM222.25 30.1797L221.348 30.1445C221.355 29.2773 221.484 28.4766 221.734 27.7422C221.984 27 222.336 26.3555 222.789 25.8086C223.242 25.2617 223.781 24.8398 224.406 24.543C225.039 24.2383 225.738 24.0859 226.504 24.0859C227.129 24.0859 227.691 24.1719 228.191 24.3438C228.691 24.5078 229.117 24.7734 229.469 25.1406C229.828 25.5078 230.102 25.9844 230.289 26.5703C230.477 27.1484 230.57 27.8555 230.57 28.6914V37H228.391V28.668C228.391 28.0039 228.293 27.4727 228.098 27.0742C227.902 26.668 227.617 26.375 227.242 26.1953C226.867 26.0078 226.406 25.9141 225.859 25.9141C225.32 25.9141 224.828 26.0273 224.383 26.2539C223.945 26.4805 223.566 26.793 223.246 27.1914C222.934 27.5898 222.688 28.0469 222.508 28.5625C222.336 29.0703 222.25 29.6094 222.25 30.1797Z" fill="black" fill-opacity="0.5"/>
<path d="M244.891 35.4531C245.406 35.4531 245.883 35.3477 246.32 35.1367C246.758 34.9258 247.117 34.6367 247.398 34.2695C247.68 33.8945 247.84 33.4688 247.879 32.9922H249.941C249.902 33.7422 249.648 34.4414 249.18 35.0898C248.719 35.7305 248.113 36.25 247.363 36.6484C246.613 37.0391 245.789 37.2344 244.891 37.2344C243.938 37.2344 243.105 37.0664 242.395 36.7305C241.691 36.3945 241.105 35.9336 240.637 35.3477C240.176 34.7617 239.828 34.0898 239.594 33.332C239.367 32.5664 239.254 31.7578 239.254 30.9062V30.4141C239.254 29.5625 239.367 28.7578 239.594 28C239.828 27.2344 240.176 26.5586 240.637 25.9727C241.105 25.3867 241.691 24.9258 242.395 24.5898C243.105 24.2539 243.938 24.0859 244.891 24.0859C245.883 24.0859 246.75 24.2891 247.492 24.6953C248.234 25.0938 248.816 25.6406 249.238 26.3359C249.668 27.0234 249.902 27.8047 249.941 28.6797H247.879C247.84 28.1562 247.691 27.6836 247.434 27.2617C247.184 26.8398 246.84 26.5039 246.402 26.2539C245.973 25.9961 245.469 25.8672 244.891 25.8672C244.227 25.8672 243.668 26 243.215 26.2656C242.77 26.5234 242.414 26.875 242.148 27.3203C241.891 27.7578 241.703 28.2461 241.586 28.7852C241.477 29.3164 241.422 29.8594 241.422 30.4141V30.9062C241.422 31.4609 241.477 32.0078 241.586 32.5469C241.695 33.0859 241.879 33.5742 242.137 34.0117C242.402 34.4492 242.758 34.8008 243.203 35.0664C243.656 35.3242 244.219 35.4531 244.891 35.4531Z" fill="black" fill-opacity="0.5"/>
<path d="M259.855 34.832V28.3047C259.855 27.8047 259.754 27.3711 259.551 27.0039C259.355 26.6289 259.059 26.3398 258.66 26.1367C258.262 25.9336 257.77 25.832 257.184 25.832C256.637 25.832 256.156 25.9258 255.742 26.1133C255.336 26.3008 255.016 26.5469 254.781 26.8516C254.555 27.1562 254.441 27.4844 254.441 27.8359H252.273C252.273 27.3828 252.391 26.9336 252.625 26.4883C252.859 26.043 253.195 25.6406 253.633 25.2812C254.078 24.9141 254.609 24.625 255.227 24.4141C255.852 24.1953 256.547 24.0859 257.312 24.0859C258.234 24.0859 259.047 24.2422 259.75 24.5547C260.461 24.8672 261.016 25.3398 261.414 25.9727C261.82 26.5977 262.023 27.3828 262.023 28.3281V34.2344C262.023 34.6562 262.059 35.1055 262.129 35.582C262.207 36.0586 262.32 36.4688 262.469 36.8125V37H260.207C260.098 36.75 260.012 36.418 259.949 36.0039C259.887 35.582 259.855 35.1914 259.855 34.832ZM260.23 29.3125L260.254 30.8359H258.062C257.445 30.8359 256.895 30.8867 256.41 30.9883C255.926 31.082 255.52 31.2266 255.191 31.4219C254.863 31.6172 254.613 31.8633 254.441 32.1602C254.27 32.4492 254.184 32.7891 254.184 33.1797C254.184 33.5781 254.273 33.9414 254.453 34.2695C254.633 34.5977 254.902 34.8594 255.262 35.0547C255.629 35.2422 256.078 35.3359 256.609 35.3359C257.273 35.3359 257.859 35.1953 258.367 34.9141C258.875 34.6328 259.277 34.2891 259.574 33.8828C259.879 33.4766 260.043 33.082 260.066 32.6992L260.992 33.7422C260.938 34.0703 260.789 34.4336 260.547 34.832C260.305 35.2305 259.98 35.6133 259.574 35.9805C259.176 36.3398 258.699 36.6406 258.145 36.8828C257.598 37.1172 256.98 37.2344 256.293 37.2344C255.434 37.2344 254.68 37.0664 254.031 36.7305C253.391 36.3945 252.891 35.9453 252.531 35.3828C252.18 34.8125 252.004 34.1758 252.004 33.4727C252.004 32.793 252.137 32.1953 252.402 31.6797C252.668 31.1562 253.051 30.7227 253.551 30.3789C254.051 30.0273 254.652 29.7617 255.355 29.582C256.059 29.4023 256.844 29.3125 257.711 29.3125H260.23Z" fill="black" fill-opacity="0.5"/>
<path d="M268.668 37H266.5V22.9844C266.5 22.0703 266.664 21.3008 266.992 20.6758C267.328 20.043 267.809 19.5664 268.434 19.2461C269.059 18.918 269.801 18.7539 270.66 18.7539C270.91 18.7539 271.16 18.7695 271.41 18.8008C271.668 18.832 271.918 18.8789 272.16 18.9414L272.043 20.7109C271.879 20.6719 271.691 20.6445 271.48 20.6289C271.277 20.6133 271.074 20.6055 270.871 20.6055C270.41 20.6055 270.012 20.6992 269.676 20.8867C269.348 21.0664 269.098 21.332 268.926 21.6836C268.754 22.0352 268.668 22.4688 268.668 22.9844V37ZM271.363 24.3203V25.9844H264.496V24.3203H271.363Z" fill="black" fill-opacity="0.5"/>
<path d="M278.758 37.2344C277.875 37.2344 277.074 37.0859 276.355 36.7891C275.645 36.4844 275.031 36.0586 274.516 35.5117C274.008 34.9648 273.617 34.3164 273.344 33.5664C273.07 32.8164 272.934 31.9961 272.934 31.1055V30.6133C272.934 29.582 273.086 28.6641 273.391 27.8594C273.695 27.0469 274.109 26.3594 274.633 25.7969C275.156 25.2344 275.75 24.8086 276.414 24.5195C277.078 24.2305 277.766 24.0859 278.477 24.0859C279.383 24.0859 280.164 24.2422 280.82 24.5547C281.484 24.8672 282.027 25.3047 282.449 25.8672C282.871 26.4219 283.184 27.0781 283.387 27.8359C283.59 28.5859 283.691 29.4062 283.691 30.2969V31.2695H274.223V29.5H281.523V29.3359C281.492 28.7734 281.375 28.2266 281.172 27.6953C280.977 27.1641 280.664 26.7266 280.234 26.3828C279.805 26.0391 279.219 25.8672 278.477 25.8672C277.984 25.8672 277.531 25.9727 277.117 26.1836C276.703 26.3867 276.348 26.6914 276.051 27.0977C275.754 27.5039 275.523 28 275.359 28.5859C275.195 29.1719 275.113 29.8477 275.113 30.6133V31.1055C275.113 31.707 275.195 32.2734 275.359 32.8047C275.531 33.3281 275.777 33.7891 276.098 34.1875C276.426 34.5859 276.82 34.8984 277.281 35.125C277.75 35.3516 278.281 35.4648 278.875 35.4648C279.641 35.4648 280.289 35.3086 280.82 34.9961C281.352 34.6836 281.816 34.2656 282.215 33.7422L283.527 34.7852C283.254 35.1992 282.906 35.5938 282.484 35.9688C282.062 36.3438 281.543 36.6484 280.926 36.8828C280.316 37.1172 279.594 37.2344 278.758 37.2344Z" fill="black" fill-opacity="0.5"/>
</svg>
