<svg width="78" height="21" viewBox="0 0 78 21" fill="none" xmlns="http://www.w3.org/2000/svg">
<path d="M34.6504 3.28125H39.3574C40.4251 3.28125 41.3268 3.44401 42.0625 3.76953C42.8047 4.09505 43.3678 4.57682 43.752 5.21484C44.1426 5.84635 44.3379 6.62435 44.3379 7.54883C44.3379 8.19987 44.2044 8.79557 43.9375 9.33594C43.6771 9.86979 43.2995 10.3255 42.8047 10.7031C42.3164 11.0742 41.7305 11.3509 41.0469 11.5332L40.5195 11.7383H36.0957L36.0762 10.2051H39.416C40.0931 10.2051 40.6562 10.0879 41.1055 9.85352C41.5547 9.61263 41.8932 9.29036 42.1211 8.88672C42.349 8.48307 42.4629 8.03711 42.4629 7.54883C42.4629 7.00195 42.3555 6.52344 42.1406 6.11328C41.9258 5.70312 41.5872 5.38737 41.125 5.16602C40.6693 4.93815 40.0801 4.82422 39.3574 4.82422H36.5352V17.5H34.6504V3.28125ZM42.9609 17.5L39.5039 11.0547L41.4668 11.0449L44.9727 17.3828V17.5H42.9609Z" fill="black"/>
<path d="M52.9316 15.6934V10.2539C52.9316 9.83724 52.847 9.47591 52.6777 9.16992C52.515 8.85742 52.2676 8.61654 51.9355 8.44727C51.6035 8.27799 51.1934 8.19336 50.7051 8.19336C50.2493 8.19336 49.849 8.27148 49.5039 8.42773C49.1654 8.58398 48.8984 8.78906 48.7031 9.04297C48.5143 9.29688 48.4199 9.57031 48.4199 9.86328H46.6133C46.6133 9.48568 46.7109 9.11133 46.9062 8.74023C47.1016 8.36914 47.3815 8.03385 47.7461 7.73438C48.1172 7.42839 48.5599 7.1875 49.0742 7.01172C49.5951 6.82943 50.1745 6.73828 50.8125 6.73828C51.5807 6.73828 52.2578 6.86849 52.8438 7.12891C53.4362 7.38932 53.8984 7.7832 54.2305 8.31055C54.569 8.83138 54.7383 9.48568 54.7383 10.2734V15.1953C54.7383 15.5469 54.7676 15.9212 54.8262 16.3184C54.8913 16.7155 54.9857 17.0573 55.1094 17.3438V17.5H53.2246C53.1335 17.2917 53.0618 17.015 53.0098 16.6699C52.9577 16.3184 52.9316 15.9928 52.9316 15.6934ZM53.2441 11.0938L53.2637 12.3633H51.4375C50.9232 12.3633 50.4642 12.4056 50.0605 12.4902C49.6569 12.5684 49.3184 12.6888 49.0449 12.8516C48.7715 13.0143 48.5632 13.2194 48.4199 13.4668C48.2767 13.7077 48.2051 13.9909 48.2051 14.3164C48.2051 14.6484 48.2799 14.9512 48.4297 15.2246C48.5794 15.498 48.804 15.7161 49.1035 15.8789C49.4095 16.0352 49.7839 16.1133 50.2266 16.1133C50.7799 16.1133 51.2682 15.9961 51.6914 15.7617C52.1146 15.5273 52.4499 15.2409 52.6973 14.9023C52.9512 14.5638 53.0879 14.235 53.1074 13.916L53.8789 14.7852C53.8333 15.0586 53.7096 15.3613 53.5078 15.6934C53.306 16.0254 53.0358 16.3444 52.6973 16.6504C52.3652 16.9499 51.9681 17.2005 51.5059 17.4023C51.0501 17.5977 50.5358 17.6953 49.9629 17.6953C49.2467 17.6953 48.6185 17.5553 48.0781 17.2754C47.5443 16.9954 47.1276 16.6211 46.8281 16.1523C46.5352 15.6771 46.3887 15.1465 46.3887 14.5605C46.3887 13.9941 46.4993 13.4961 46.7207 13.0664C46.9421 12.6302 47.2611 12.2689 47.6777 11.9824C48.0944 11.6895 48.5957 11.4681 49.1816 11.3184C49.7676 11.1686 50.4219 11.0938 51.1445 11.0938H53.2441Z" fill="black"/>
<path d="M57.5703 2.5H59.3867V15.4492L59.2305 17.5H57.5703V2.5ZM66.5254 12.1289V12.334C66.5254 13.1022 66.4342 13.8151 66.252 14.4727C66.0697 15.1237 65.8027 15.6901 65.4512 16.1719C65.0996 16.6536 64.6699 17.028 64.1621 17.2949C63.6543 17.5618 63.0716 17.6953 62.4141 17.6953C61.7435 17.6953 61.1543 17.5814 60.6465 17.3535C60.1452 17.1191 59.722 16.7839 59.377 16.3477C59.0319 15.9115 58.7552 15.3841 58.5469 14.7656C58.3451 14.1471 58.2051 13.4505 58.127 12.6758V11.7773C58.2051 10.9961 58.3451 10.2962 58.5469 9.67773C58.7552 9.05924 59.0319 8.5319 59.377 8.0957C59.722 7.65299 60.1452 7.31771 60.6465 7.08984C61.1478 6.85547 61.7305 6.73828 62.3945 6.73828C63.0586 6.73828 63.6478 6.86849 64.1621 7.12891C64.6764 7.38281 65.1061 7.7474 65.4512 8.22266C65.8027 8.69792 66.0697 9.26758 66.252 9.93164C66.4342 10.5892 66.5254 11.3216 66.5254 12.1289ZM64.709 12.334V12.1289C64.709 11.6016 64.6602 11.1068 64.5625 10.6445C64.4648 10.1758 64.3086 9.76562 64.0938 9.41406C63.8789 9.05599 63.5957 8.77604 63.2441 8.57422C62.8926 8.36589 62.4596 8.26172 61.9453 8.26172C61.4896 8.26172 61.0924 8.33984 60.7539 8.49609C60.4219 8.65234 60.1387 8.86393 59.9043 9.13086C59.6699 9.39128 59.4779 9.69076 59.3281 10.0293C59.1849 10.3613 59.0775 10.7064 59.0059 11.0645V13.418C59.11 13.8737 59.2793 14.3132 59.5137 14.7363C59.7546 15.153 60.0736 15.4948 60.4707 15.7617C60.8743 16.0286 61.3724 16.1621 61.9648 16.1621C62.4531 16.1621 62.8698 16.0645 63.2148 15.8691C63.5664 15.6673 63.8496 15.3906 64.0645 15.0391C64.2858 14.6875 64.4486 14.2806 64.5527 13.8184C64.6569 13.3561 64.709 12.8613 64.709 12.334Z" fill="black"/>
<path d="M75.2754 15.0586V6.93359H77.0918V17.5H75.3633L75.2754 15.0586ZM75.6172 12.832L76.3691 12.8125C76.3691 13.5156 76.2943 14.1667 76.1445 14.7656C76.0013 15.3581 75.7669 15.8724 75.4414 16.3086C75.1159 16.7448 74.6895 17.0866 74.1621 17.334C73.6348 17.5749 72.9935 17.6953 72.2383 17.6953C71.724 17.6953 71.252 17.6204 70.8223 17.4707C70.3991 17.321 70.0345 17.0898 69.7285 16.7773C69.4225 16.4648 69.1849 16.0579 69.0156 15.5566C68.8529 15.0553 68.7715 14.4531 68.7715 13.75V6.93359H70.5781V13.7695C70.5781 14.2448 70.6302 14.6387 70.7344 14.9512C70.8451 15.2572 70.9915 15.5013 71.1738 15.6836C71.3626 15.8594 71.571 15.9831 71.7988 16.0547C72.0332 16.1263 72.2741 16.1621 72.5215 16.1621C73.2897 16.1621 73.8984 16.0156 74.3477 15.7227C74.7969 15.4232 75.1191 15.0228 75.3145 14.5215C75.5163 14.0137 75.6172 13.4505 75.6172 12.832Z" fill="black"/>
<path d="M18.75 0H2.25C0.984375 0 0 1.03125 0 2.25V18.75C0 20.0156 0.984375 21 2.25 21H18.75C19.9688 21 21 20.0156 21 18.75V2.25C21 1.03125 19.9688 0 18.75 0ZM18.75 18.75H2.25V2.25H18.75V18.75ZM17.0625 7.45312C17.25 7.21875 17.25 6.89062 17.0625 6.65625L15.9844 5.57812C15.7969 5.34375 15.4219 5.34375 15.1875 5.57812L8.57812 12.1406L5.76562 9.32812C5.53125 9.09375 5.20312 9.09375 4.96875 9.32812L3.89062 10.3594C3.70312 10.5938 3.70312 10.9688 3.89062 11.1562L8.15625 15.4688C8.39062 15.7031 8.71875 15.7031 8.95312 15.4688L17.0625 7.45312Z" fill="black"/>
</svg>
