<svg width="320" height="53" viewBox="0 0 320 53" fill="none" xmlns="http://www.w3.org/2000/svg">
<path d="M0.5 20C0.5 9.23045 9.23045 0.5 20 0.5H300C310.77 0.5 319.5 9.23045 319.5 20V33C319.5 43.7696 310.77 52.5 300 52.5H20C9.23045 52.5 0.5 43.7696 0.5 33V20Z" fill="#D9D9D9" stroke="black"/>
<path d="M26.5 15C23.2188 15 20.5938 17.6719 20.5938 20.9062C20.5938 23.5781 24.4375 28.3594 25.8906 30.1406C26.2188 30.4688 26.7344 30.4688 27.0625 30.1406C28.5156 28.3594 32.4062 23.5781 32.4062 20.9062C32.4062 17.6719 29.7344 15 26.5 15ZM26.5 22.875C25.375 22.875 24.5312 22.0312 24.5312 20.9062C24.5312 19.8281 25.375 18.9375 26.5 18.9375C27.5781 18.9375 28.4688 19.8281 28.4688 20.9062C28.4688 22.0312 27.5781 22.875 26.5 22.875ZM13.9375 25.125C13.375 25.3594 13 25.9219 13 26.5312V38.25C13 38.8125 13.5156 39.1875 13.9844 38.9531C17.9516 37.155 20.5 33.2021 20.5 28.8464V25.5528C20.5 25.2416 20.4042 24.9104 20.2553 24.6371C19.7568 23.7225 18.6536 23.2466 17.6859 23.632L13.9375 25.125ZM26.5 31.875C25.7969 31.875 25.1875 31.5938 24.7656 31.0781C23.8902 30.0714 22 30.6858 22 32.0198V34.5095C22 35.3996 22.5696 36.1899 23.414 36.4713L27.7304 37.9101C29.3389 38.4463 31 37.249 31 35.5535V32.0472C31 30.6613 29.0969 30.0323 28.1875 31.0781C27.7656 31.5938 27.1562 31.875 26.5 31.875ZM38.9688 22.5938L36.2616 23.81C33.9725 24.8384 32.5 27.1143 32.5 29.6238V31.9929C32.5 35.355 35.8893 37.6589 39.0156 36.4219C39.5781 36.1875 40 35.625 40 35.0156V23.2969C40 22.7344 39.4375 22.3594 38.9688 22.5938Z" fill="black" fill-opacity="0.5"/>
<path d="M81.3017 21.2404C81.2985 21.3787 81.2728 21.5155 81.2256 21.6455L75.9051 36.2935C75.751 36.7176 75.348 37 74.8968 37C74.1453 37 73.6267 36.2473 73.8944 35.5452L79.6305 20.497C79.7589 20.1601 80.082 19.9375 80.4425 19.9375C80.9304 19.9375 81.3227 20.339 81.3114 20.8268L81.3017 21.2404ZM86.7857 37C86.3327 37 85.9281 36.7167 85.7732 36.291L80.4427 21.6458C80.3953 21.5156 80.3695 21.3786 80.3662 21.24L80.3566 20.8272C80.3453 20.3392 80.7378 19.9375 81.2259 19.9375C81.5862 19.9375 81.9092 20.1598 82.038 20.4963L87.7921 35.5375C88.062 36.243 87.5411 37 86.7857 37ZM84.8125 30.6836C85.3238 30.6836 85.7383 31.0981 85.7383 31.6094C85.7383 32.1207 85.3238 32.5352 84.8125 32.5352H77.0781C76.5668 32.5352 76.1523 32.1207 76.1523 31.6094C76.1523 31.0981 76.5668 30.6836 77.0781 30.6836H84.8125Z" fill="black" fill-opacity="0.5"/>
<path d="M91.5742 19C92.1761 19 92.6641 19.4879 92.6641 20.0898V35.9102C92.6641 36.5121 92.1761 37 91.5742 37C90.9723 37 90.4844 36.5121 90.4844 35.9102V20.0898C90.4844 19.4879 90.9723 19 91.5742 19Z" fill="black" fill-opacity="0.5"/>
<path d="M103.621 34.832V28.3047C103.621 27.8047 103.52 27.3711 103.316 27.0039C103.121 26.6289 102.824 26.3398 102.426 26.1367C102.027 25.9336 101.535 25.832 100.949 25.832C100.402 25.832 99.9219 25.9258 99.5078 26.1133C99.1016 26.3008 98.7812 26.5469 98.5469 26.8516C98.1975 27.3214 97.7324 27.8359 97.147 27.8359H97.123C96.5244 27.8359 96.0268 27.3344 96.2539 26.7805C96.2939 26.6829 96.3395 26.5855 96.3906 26.4883C96.625 26.043 96.9609 25.6406 97.3984 25.2812C97.8438 24.9141 98.375 24.625 98.9922 24.4141C99.6172 24.1953 100.312 24.0859 101.078 24.0859C102 24.0859 102.812 24.2422 103.516 24.5547C104.227 24.8672 104.781 25.3398 105.18 25.9727C105.586 26.5977 105.789 27.3828 105.789 28.3281V34.2344C105.789 34.6562 105.824 35.1055 105.895 35.582C105.97 36.045 106.08 36.4453 106.222 36.783C106.23 36.8025 106.234 36.8234 106.234 36.8446C106.234 36.9304 106.165 37 106.079 37H104.867C104.324 37 103.828 36.6751 103.737 36.1396C103.729 36.0954 103.722 36.0502 103.715 36.0039C103.652 35.582 103.621 35.1914 103.621 34.832ZM103.246 29.3125C103.662 29.3125 104.001 29.6464 104.008 30.0625C104.014 30.4877 103.671 30.8359 103.246 30.8359H101.828C101.211 30.8359 100.66 30.8867 100.176 30.9883C99.6914 31.082 99.2852 31.2266 98.957 31.4219C98.6289 31.6172 98.3789 31.8633 98.207 32.1602C98.0352 32.4492 97.9492 32.7891 97.9492 33.1797C97.9492 33.5781 98.0391 33.9414 98.2188 34.2695C98.3984 34.5977 98.668 34.8594 99.0273 35.0547C99.3945 35.2422 99.8438 35.3359 100.375 35.3359C101.039 35.3359 101.625 35.1953 102.133 34.9141C102.641 34.6328 103.043 34.2891 103.34 33.8828C103.368 33.8458 103.394 33.8089 103.42 33.7721C103.664 33.4182 104.319 33.2479 104.605 33.5696C104.702 33.6788 104.747 33.8267 104.707 33.9672C104.632 34.2343 104.501 34.5225 104.312 34.832C104.07 35.2305 103.746 35.6133 103.34 35.9805C102.941 36.3398 102.465 36.6406 101.91 36.8828C101.363 37.1172 100.746 37.2344 100.059 37.2344C99.1992 37.2344 98.4453 37.0664 97.7969 36.7305C97.1562 36.3945 96.6562 35.9453 96.2969 35.3828C95.9453 34.8125 95.7695 34.1758 95.7695 33.4727C95.7695 32.793 95.9023 32.1953 96.168 31.6797C96.4336 31.1562 96.8164 30.7227 97.3164 30.3789C97.8164 30.0273 98.418 29.7617 99.1211 29.582C99.8242 29.4023 100.609 29.3125 101.477 29.3125H103.246Z" fill="black" fill-opacity="0.5"/>
<path d="M111.355 26.8398V35.9102C111.355 36.5121 110.868 37 110.266 37C109.664 37 109.176 36.5121 109.176 35.9102V25.3755C109.176 24.7928 109.648 24.3203 110.231 24.3203C110.795 24.3203 111.259 24.7634 111.285 25.3265L111.355 26.8398ZM110.926 29.6605C110.908 29.9439 110.675 30.1715 110.391 30.1616C110.119 30.1521 109.903 29.9275 109.918 29.6559C109.957 28.9745 110.065 28.3366 110.242 27.7422C110.461 27 110.785 26.3555 111.215 25.8086C111.645 25.2617 112.18 24.8398 112.82 24.543C113.461 24.2383 114.203 24.0859 115.047 24.0859C115.641 24.0859 116.188 24.1719 116.688 24.3438C117.188 24.5078 117.621 24.7695 117.988 25.1289C118.355 25.4883 118.641 25.9492 118.844 26.5117C119.047 27.0742 119.148 27.7539 119.148 28.5508V35.916C119.148 36.5147 118.663 37 118.064 37C117.466 37 116.98 36.5147 116.98 35.916V28.6562C116.98 27.9922 116.867 27.4609 116.641 27.0625C116.422 26.6641 116.109 26.375 115.703 26.1953C115.297 26.0078 114.82 25.9141 114.273 25.9141C113.633 25.9141 113.098 26.0273 112.668 26.2539C112.238 26.4805 111.895 26.793 111.637 27.1914C111.379 27.5898 111.191 28.0469 111.074 28.5625C110.999 28.9136 110.949 29.2795 110.926 29.6605ZM119.161 28.4528C119.117 28.7667 118.918 29.0478 118.615 29.1406C118.148 29.2836 117.677 28.9294 117.756 28.4476C117.813 28.0996 117.898 27.759 118.012 27.4258C118.238 26.7852 118.562 26.2148 118.984 25.7148C119.414 25.2148 119.941 24.8203 120.566 24.5312C121.191 24.2344 121.906 24.0859 122.711 24.0859C123.391 24.0859 123.992 24.1758 124.516 24.3555C125.047 24.5352 125.492 24.8125 125.852 25.1875C126.219 25.5547 126.496 26.0273 126.684 26.6055C126.871 27.1836 126.965 27.8711 126.965 28.668V35.9102C126.965 36.5121 126.477 37 125.875 37C125.273 37 124.785 36.5121 124.785 35.9102V28.6445C124.785 27.9336 124.672 27.3828 124.445 26.9922C124.227 26.5938 123.914 26.3164 123.508 26.1602C123.109 25.9961 122.633 25.9141 122.078 25.9141C121.602 25.9141 121.18 25.9961 120.812 26.1602C120.445 26.3242 120.137 26.5508 119.887 26.8398C119.637 27.1211 119.445 27.4453 119.312 27.8125C119.242 28.0186 119.192 28.232 119.161 28.4528Z" fill="black" fill-opacity="0.5"/>
<path d="M137.723 34.832V28.3047C137.723 27.8047 137.621 27.3711 137.418 27.0039C137.223 26.6289 136.926 26.3398 136.527 26.1367C136.129 25.9336 135.637 25.832 135.051 25.832C134.504 25.832 134.023 25.9258 133.609 26.1133C133.203 26.3008 132.883 26.5469 132.648 26.8516C132.299 27.3214 131.834 27.8359 131.249 27.8359H131.225C130.626 27.8359 130.128 27.3344 130.355 26.7805C130.395 26.6829 130.441 26.5855 130.492 26.4883C130.727 26.043 131.062 25.6406 131.5 25.2812C131.945 24.9141 132.477 24.625 133.094 24.4141C133.719 24.1953 134.414 24.0859 135.18 24.0859C136.102 24.0859 136.914 24.2422 137.617 24.5547C138.328 24.8672 138.883 25.3398 139.281 25.9727C139.688 26.5977 139.891 27.3828 139.891 28.3281V34.2344C139.891 34.6562 139.926 35.1055 139.996 35.582C140.072 36.045 140.181 36.4453 140.323 36.783C140.332 36.8025 140.336 36.8234 140.336 36.8446C140.336 36.9304 140.266 37 140.181 37H138.969C138.425 37 137.93 36.6751 137.838 36.1396C137.831 36.0954 137.823 36.0502 137.816 36.0039C137.754 35.582 137.723 35.1914 137.723 34.832ZM137.348 29.3125C137.764 29.3125 138.103 29.6464 138.109 30.0625C138.116 30.4877 137.773 30.8359 137.348 30.8359H135.93C135.312 30.8359 134.762 30.8867 134.277 30.9883C133.793 31.082 133.387 31.2266 133.059 31.4219C132.73 31.6172 132.48 31.8633 132.309 32.1602C132.137 32.4492 132.051 32.7891 132.051 33.1797C132.051 33.5781 132.141 33.9414 132.32 34.2695C132.5 34.5977 132.77 34.8594 133.129 35.0547C133.496 35.2422 133.945 35.3359 134.477 35.3359C135.141 35.3359 135.727 35.1953 136.234 34.9141C136.742 34.6328 137.145 34.2891 137.441 33.8828C137.469 33.8458 137.496 33.8089 137.521 33.7721C137.766 33.4182 138.421 33.2479 138.706 33.5696C138.803 33.6788 138.848 33.8267 138.809 33.9672C138.734 34.2343 138.602 34.5225 138.414 34.832C138.172 35.2305 137.848 35.6133 137.441 35.9805C137.043 36.3398 136.566 36.6406 136.012 36.8828C135.465 37.1172 134.848 37.2344 134.16 37.2344C133.301 37.2344 132.547 37.0664 131.898 36.7305C131.258 36.3945 130.758 35.9453 130.398 35.3828C130.047 34.8125 129.871 34.1758 129.871 33.4727C129.871 32.793 130.004 32.1953 130.27 31.6797C130.535 31.1562 130.918 30.7227 131.418 30.3789C131.918 30.0273 132.52 29.7617 133.223 29.582C133.926 29.4023 134.711 29.3125 135.578 29.3125H137.348Z" fill="black" fill-opacity="0.5"/>
<path d="M147.777 24.3203C148.237 24.3203 148.609 24.6928 148.609 25.1523C148.609 25.6119 148.237 25.9844 147.777 25.9844H142.586C142.126 25.9844 141.754 25.6119 141.754 25.1523C141.754 24.6928 142.126 24.3203 142.586 24.3203H147.777ZM144.074 22.3223C144.074 21.7236 144.56 21.2383 145.158 21.2383C145.757 21.2383 146.242 21.7236 146.242 22.3223V33.8594C146.242 34.2891 146.309 34.6133 146.441 34.832C146.574 35.0508 146.746 35.1953 146.957 35.2656C147.168 35.3359 147.395 35.3711 147.637 35.3711C147.816 35.3711 148.004 35.3555 148.199 35.3242C148.434 35.279 148.658 35.4577 148.659 35.697L148.664 36.3436C148.666 36.734 148.413 37.0797 148.028 37.1456C148.015 37.1478 148.002 37.1501 147.988 37.1523C147.715 37.207 147.383 37.2344 146.992 37.2344C146.461 37.2344 145.973 37.1289 145.527 36.918C145.082 36.707 144.727 36.3555 144.461 35.8633C144.203 35.3633 144.074 34.6914 144.074 33.8477V22.3223Z" fill="black" fill-opacity="0.5"/>
<path d="M162.18 35.4531C162.695 35.4531 163.172 35.3477 163.609 35.1367C164.047 34.9258 164.406 34.6367 164.688 34.2695C164.773 34.1554 164.847 34.0366 164.911 33.913C165.158 33.4289 165.587 32.9922 166.13 32.9922C166.728 32.9922 167.217 33.5042 167.015 34.0671C166.888 34.421 166.706 34.7619 166.469 35.0898C166.008 35.7305 165.402 36.25 164.652 36.6484C163.902 37.0391 163.078 37.2344 162.18 37.2344C161.227 37.2344 160.395 37.0664 159.684 36.7305C158.98 36.3945 158.395 35.9336 157.926 35.3477C157.465 34.7617 157.117 34.0898 156.883 33.332C156.656 32.5664 156.543 31.7578 156.543 30.9062V30.4141C156.543 29.5625 156.656 28.7578 156.883 28C157.117 27.2344 157.465 26.5586 157.926 25.9727C158.395 25.3867 158.98 24.9258 159.684 24.5898C160.395 24.2539 161.227 24.0859 162.18 24.0859C163.172 24.0859 164.039 24.2891 164.781 24.6953C165.523 25.0938 166.105 25.6406 166.527 26.3359C166.772 26.7272 166.953 27.1488 167.071 27.6007C167.222 28.1768 166.733 28.6797 166.138 28.6797C165.591 28.6797 165.157 28.2458 164.958 27.7364C164.894 27.5716 164.815 27.4134 164.723 27.2617C164.473 26.8398 164.129 26.5039 163.691 26.2539C163.262 25.9961 162.758 25.8672 162.18 25.8672C161.516 25.8672 160.957 26 160.504 26.2656C160.059 26.5234 159.703 26.875 159.438 27.3203C159.18 27.7578 158.992 28.2461 158.875 28.7852C158.766 29.3164 158.711 29.8594 158.711 30.4141V30.9062C158.711 31.4609 158.766 32.0078 158.875 32.5469C158.984 33.0859 159.168 33.5742 159.426 34.0117C159.691 34.4492 160.047 34.8008 160.492 35.0664C160.945 35.3242 161.508 35.4531 162.18 35.4531Z" fill="black" fill-opacity="0.5"/>
<path d="M177.145 34.832V28.3047C177.145 27.8047 177.043 27.3711 176.84 27.0039C176.645 26.6289 176.348 26.3398 175.949 26.1367C175.551 25.9336 175.059 25.832 174.473 25.832C173.926 25.832 173.445 25.9258 173.031 26.1133C172.625 26.3008 172.305 26.5469 172.07 26.8516C171.721 27.3214 171.256 27.8359 170.67 27.8359H170.646C170.048 27.8359 169.55 27.3344 169.777 26.7805C169.817 26.6829 169.863 26.5855 169.914 26.4883C170.148 26.043 170.484 25.6406 170.922 25.2812C171.367 24.9141 171.898 24.625 172.516 24.4141C173.141 24.1953 173.836 24.0859 174.602 24.0859C175.523 24.0859 176.336 24.2422 177.039 24.5547C177.75 24.8672 178.305 25.3398 178.703 25.9727C179.109 26.5977 179.312 27.3828 179.312 28.3281V34.2344C179.312 34.6562 179.348 35.1055 179.418 35.582C179.494 36.045 179.603 36.4453 179.745 36.783C179.753 36.8025 179.758 36.8234 179.758 36.8446C179.758 36.9304 179.688 37 179.602 37H178.39C177.847 37 177.352 36.6751 177.26 36.1396C177.253 36.0954 177.245 36.0502 177.238 36.0039C177.176 35.582 177.145 35.1914 177.145 34.832ZM176.769 29.3125C177.186 29.3125 177.525 29.6464 177.531 30.0625C177.538 30.4877 177.195 30.8359 176.769 30.8359H175.352C174.734 30.8359 174.184 30.8867 173.699 30.9883C173.215 31.082 172.809 31.2266 172.48 31.4219C172.152 31.6172 171.902 31.8633 171.73 32.1602C171.559 32.4492 171.473 32.7891 171.473 33.1797C171.473 33.5781 171.562 33.9414 171.742 34.2695C171.922 34.5977 172.191 34.8594 172.551 35.0547C172.918 35.2422 173.367 35.3359 173.898 35.3359C174.562 35.3359 175.148 35.1953 175.656 34.9141C176.164 34.6328 176.566 34.2891 176.863 33.8828C176.891 33.8458 176.918 33.8089 176.943 33.7721C177.187 33.4182 177.843 33.2479 178.128 33.5696C178.225 33.6788 178.27 33.8267 178.231 33.9672C178.156 34.2343 178.024 34.5225 177.836 34.832C177.594 35.2305 177.27 35.6133 176.863 35.9805C176.465 36.3398 175.988 36.6406 175.434 36.8828C174.887 37.1172 174.27 37.2344 173.582 37.2344C172.723 37.2344 171.969 37.0664 171.32 36.7305C170.68 36.3945 170.18 35.9453 169.82 35.3828C169.469 34.8125 169.293 34.1758 169.293 33.4727C169.293 32.793 169.426 32.1953 169.691 31.6797C169.957 31.1562 170.34 30.7227 170.84 30.3789C171.34 30.0273 171.941 29.7617 172.645 29.582C173.348 29.4023 174.133 29.3125 175 29.3125H176.769Z" fill="black" fill-opacity="0.5"/>
<path d="M185.957 35.916C185.957 36.5147 185.472 37 184.873 37C184.274 37 183.789 36.5147 183.789 35.916V22.9844C183.789 22.0703 183.953 21.3008 184.281 20.6758C184.617 20.043 185.098 19.5664 185.723 19.2461C186.348 18.918 187.09 18.7539 187.949 18.7539C188.199 18.7539 188.449 18.7695 188.699 18.8008C188.71 18.8021 188.721 18.8035 188.732 18.8048C189.152 18.8581 189.429 19.2476 189.401 19.6704L189.37 20.1431C189.35 20.4401 189.066 20.6509 188.77 20.6289C188.566 20.6133 188.363 20.6055 188.16 20.6055C187.699 20.6055 187.301 20.6992 186.965 20.8867C186.637 21.0664 186.387 21.332 186.215 21.6836C186.043 22.0352 185.957 22.4688 185.957 22.9844V35.916ZM187.82 24.3203C188.28 24.3203 188.652 24.6928 188.652 25.1523C188.652 25.6119 188.28 25.9844 187.82 25.9844H182.617C182.158 25.9844 181.785 25.6119 181.785 25.1523C181.785 24.6928 182.158 24.3203 182.617 24.3203H187.82Z" fill="black" fill-opacity="0.5"/>
<path d="M196.047 37.2344C195.164 37.2344 194.363 37.0859 193.645 36.7891C192.934 36.4844 192.32 36.0586 191.805 35.5117C191.297 34.9648 190.906 34.3164 190.633 33.5664C190.359 32.8164 190.223 31.9961 190.223 31.1055V30.6133C190.223 29.582 190.375 28.6641 190.68 27.8594C190.984 27.0469 191.398 26.3594 191.922 25.7969C192.445 25.2344 193.039 24.8086 193.703 24.5195C194.367 24.2305 195.055 24.0859 195.766 24.0859C196.672 24.0859 197.453 24.2422 198.109 24.5547C198.773 24.8672 199.316 25.3047 199.738 25.8672C200.16 26.4219 200.473 27.0781 200.676 27.8359C200.879 28.5859 200.98 29.4062 200.98 30.2969C200.98 30.8341 200.545 31.2695 200.008 31.2695H192.396C191.908 31.2695 191.512 30.8734 191.512 30.3848C191.512 29.8961 191.908 29.5 192.396 29.5H198.648C198.739 29.5 198.812 29.4265 198.812 29.3359C198.781 28.7734 198.664 28.2266 198.461 27.6953C198.266 27.1641 197.953 26.7266 197.523 26.3828C197.094 26.0391 196.508 25.8672 195.766 25.8672C195.273 25.8672 194.82 25.9727 194.406 26.1836C193.992 26.3867 193.637 26.6914 193.34 27.0977C193.043 27.5039 192.812 28 192.648 28.5859C192.484 29.1719 192.402 29.8477 192.402 30.6133V31.1055C192.402 31.707 192.484 32.2734 192.648 32.8047C192.82 33.3281 193.066 33.7891 193.387 34.1875C193.715 34.5859 194.109 34.8984 194.57 35.125C195.039 35.3516 195.57 35.4648 196.164 35.4648C196.93 35.4648 197.578 35.3086 198.109 34.9961C198.396 34.8273 198.664 34.6276 198.912 34.3972C199.268 34.0673 199.816 33.9902 200.196 34.292C200.547 34.5711 200.631 35.0768 200.332 35.4121C200.163 35.6022 199.977 35.7877 199.773 35.9688C199.352 36.3438 198.832 36.6484 198.215 36.8828C197.605 37.1172 196.883 37.2344 196.047 37.2344Z" fill="black" fill-opacity="0.5"/>
</svg>
