<svg width="23" height="18" viewBox="0 0 23 18" fill="none" xmlns="http://www.w3.org/2000/svg">
<path d="M22.3611 0C22.2812 0 22.2014 0.0399306 22.1215 0.0798611L15.3333 2.55556L8.46528 0.159722C8.18576 0.0798611 7.90625 0.0399306 7.62674 0C7.38715 0 7.10764 0.0798611 6.82812 0.159722L0.798611 2.23611C0.319444 2.43576 0 2.91493 0 3.43403V17.25C0 17.6493 0.279514 17.8889 0.598958 17.8889C0.678819 17.8889 0.758681 17.8889 0.838542 17.849L7.66667 15.3333L14.5347 17.7691C14.7743 17.849 15.0538 17.8889 15.3333 17.8889C15.6128 17.8889 15.8524 17.849 16.1319 17.7691L22.1615 15.6927C22.6406 15.4931 23 15.0139 23 14.4948V0.678819C23 0.279514 22.6806 0 22.3611 0ZM8.94444 2.3559L14.0556 4.15278V15.5729L8.94444 13.776V2.3559ZM1.91667 15.4531V3.91319L7.02778 2.11632V13.5365H6.98785L1.91667 15.4531ZM21.0833 14.0156L15.9722 15.8125V4.39236L21.0833 2.47569V14.0156Z" fill="black" fill-opacity="0.5"/>
</svg>
