<svg width="177" height="23" viewBox="0 0 177 23" fill="none" xmlns="http://www.w3.org/2000/svg">
<path d="M11.1482 8.27618V10.1166H1.91079V8.27618H11.1482ZM2.26247 0.93781V18.006H0V0.93781H2.26247ZM13.1176 0.93781V18.006H10.8669V0.93781H13.1176Z" fill="black"/>
<path d="M24.2893 15.8373V9.30777C24.2893 8.8076 24.1877 8.37387 23.9845 8.00656C23.7891 7.63143 23.4922 7.34227 23.0936 7.13908C22.695 6.93589 22.2027 6.83429 21.6165 6.83429C21.0695 6.83429 20.5888 6.92807 20.1746 7.11564C19.7683 7.3032 19.4478 7.54937 19.2134 7.85416C18.9868 8.15895 18.8734 8.48718 18.8734 8.83886H16.7047C16.7047 8.38559 16.822 7.93622 17.0564 7.49076C17.2909 7.0453 17.6269 6.64282 18.0646 6.28333C18.51 5.91602 19.0415 5.62686 19.6589 5.41586C20.2841 5.19703 20.9796 5.08762 21.7455 5.08762C22.6677 5.08762 23.4804 5.24392 24.1838 5.55653C24.895 5.86913 25.4498 6.34194 25.8484 6.97497C26.2548 7.60017 26.458 8.38559 26.458 9.33121V15.2394C26.458 15.6614 26.4931 16.1108 26.5635 16.5875C26.6416 17.0642 26.755 17.4745 26.9034 17.8184V18.006H24.641C24.5316 17.7559 24.4456 17.4237 24.3831 17.0095C24.3206 16.5875 24.2893 16.1968 24.2893 15.8373ZM24.6644 10.3159L24.6879 11.8399H22.4957C21.8783 11.8399 21.3274 11.8907 20.8428 11.9923C20.3583 12.086 19.9519 12.2306 19.6237 12.426C19.2955 12.6214 19.0454 12.8675 18.8734 13.1645C18.7015 13.4537 18.6155 13.7936 18.6155 14.1844C18.6155 14.583 18.7054 14.9464 18.8852 15.2746C19.0649 15.6028 19.3345 15.8646 19.694 16.06C20.0613 16.2476 20.5107 16.3413 21.0421 16.3413C21.7064 16.3413 22.2925 16.2007 22.8005 15.9193C23.3085 15.638 23.711 15.2941 24.0079 14.8877C24.3127 14.4814 24.4769 14.0867 24.5003 13.7038L25.4264 14.7471C25.3717 15.0753 25.2232 15.4387 24.9809 15.8373C24.7387 16.2358 24.4143 16.6188 24.0079 16.9861C23.6094 17.3456 23.1327 17.6465 22.5778 17.8887C22.0307 18.1232 21.4133 18.2404 20.7256 18.2404C19.866 18.2404 19.1118 18.0724 18.4631 17.7363C17.8223 17.4003 17.3221 16.9509 16.9626 16.3882C16.611 15.8177 16.4351 15.1808 16.4351 14.4774C16.4351 13.7975 16.568 13.1997 16.8337 12.6839C17.0994 12.1603 17.4823 11.7265 17.9825 11.3827C18.4827 11.031 19.0844 10.7653 19.7878 10.5855C20.4912 10.4058 21.2766 10.3159 22.144 10.3159H24.6644Z" fill="black"/>
<path d="M32.0379 7.31492V18.006H29.8693V5.32207H31.9793L32.0379 7.31492ZM36.0002 5.25174L35.9885 7.26803C35.8087 7.22896 35.6368 7.20551 35.4727 7.1977C35.3164 7.18207 35.1366 7.17425 34.9334 7.17425C34.4333 7.17425 33.9917 7.2524 33.6088 7.4087C33.2258 7.565 32.9015 7.78383 32.6358 8.06517C32.3701 8.34651 32.1591 8.68256 32.0028 9.07332C31.8543 9.45626 31.7566 9.87827 31.7097 10.3394L31.1001 10.691C31.1001 9.92516 31.1744 9.20617 31.3229 8.53408C31.4792 7.86198 31.7175 7.26803 32.0379 6.75224C32.3584 6.22862 32.7648 5.82224 33.2571 5.53308C33.7573 5.23611 34.3512 5.08762 35.0389 5.08762C35.1952 5.08762 35.375 5.10716 35.5782 5.14623C35.7814 5.1775 35.922 5.21266 36.0002 5.25174Z" fill="black"/>
<path d="M40.361 5.32207V18.006H38.1806V5.32207H40.361ZM38.0165 1.95768C38.0165 1.606 38.122 1.30903 38.333 1.06676C38.5518 0.824492 38.8722 0.703358 39.2943 0.703358C39.7085 0.703358 40.025 0.824492 40.2438 1.06676C40.4704 1.30903 40.5837 1.606 40.5837 1.95768C40.5837 2.29373 40.4704 2.58289 40.2438 2.82515C40.025 3.05961 39.7085 3.17683 39.2943 3.17683C38.8722 3.17683 38.5518 3.05961 38.333 2.82515C38.122 2.58289 38.0165 2.29373 38.0165 1.95768Z" fill="black"/>
<path d="M55.1784 11.8047V11.5351C55.1784 10.6207 55.3113 9.77277 55.577 8.99126C55.8427 8.20193 56.2256 7.51811 56.7258 6.9398C57.226 6.35367 57.8316 5.90039 58.5428 5.57997C59.254 5.25174 60.0511 5.08762 60.9342 5.08762C61.8252 5.08762 62.6262 5.25174 63.3374 5.57997C64.0564 5.90039 64.6659 6.35367 65.1661 6.9398C65.6741 7.51811 66.0609 8.20193 66.3266 8.99126C66.5924 9.77277 66.7252 10.6207 66.7252 11.5351V11.8047C66.7252 12.7191 66.5924 13.567 66.3266 14.3485C66.0609 15.13 65.6741 15.8138 65.1661 16.4C64.6659 16.9783 64.0603 17.4316 63.3491 17.7598C62.6457 18.0802 61.8486 18.2404 60.9577 18.2404C60.0668 18.2404 59.2657 18.0802 58.5545 17.7598C57.8434 17.4316 57.2338 16.9783 56.7258 16.4C56.2256 15.8138 55.8427 15.13 55.577 14.3485C55.3113 13.567 55.1784 12.7191 55.1784 11.8047ZM57.3471 11.5351V11.8047C57.3471 12.4377 57.4214 13.0356 57.5698 13.5983C57.7183 14.1531 57.9411 14.6455 58.238 15.0753C58.5428 15.5051 58.9218 15.8451 59.3751 16.0952C59.8284 16.3374 60.3559 16.4586 60.9577 16.4586C61.5516 16.4586 62.0713 16.3374 62.5168 16.0952C62.9701 15.8451 63.3452 15.5051 63.6422 15.0753C63.9391 14.6455 64.1619 14.1531 64.3104 13.5983C64.4667 13.0356 64.5448 12.4377 64.5448 11.8047V11.5351C64.5448 10.9099 64.4667 10.3198 64.3104 9.76495C64.1619 9.20227 63.9352 8.70601 63.6304 8.27618C63.3335 7.83853 62.9583 7.49467 62.5051 7.24459C62.0596 6.9945 61.536 6.86946 60.9342 6.86946C60.3403 6.86946 59.8167 6.9945 59.3634 7.24459C58.9179 7.49467 58.5428 7.83853 58.238 8.27618C57.9411 8.70601 57.7183 9.20227 57.5698 9.76495C57.4214 10.3198 57.3471 10.9099 57.3471 11.5351Z" fill="black"/>
<path d="M71.6136 7.76038V22.8826H69.4331V5.32207H71.426L71.6136 7.76038ZM80.1593 11.5585V11.8047C80.1593 12.7269 80.0499 13.5826 79.8311 14.3719C79.6123 15.1535 79.2919 15.8334 78.8699 16.4117C78.4557 16.99 77.9438 17.4394 77.3342 17.7598C76.7246 18.0802 76.0252 18.2404 75.2358 18.2404C74.4309 18.2404 73.7197 18.1076 73.1023 17.8418C72.4849 17.5761 71.9613 17.1893 71.5315 16.6813C71.1017 16.1733 70.7578 15.5637 70.4999 14.8526C70.2498 14.1414 70.0779 13.3404 69.9841 12.4494V11.1365C70.0779 10.1987 70.2537 9.35857 70.5116 8.61613C70.7695 7.8737 71.1095 7.24068 71.5315 6.71707C71.9613 6.18564 72.481 5.78316 73.0906 5.50964C73.7002 5.22829 74.4035 5.08762 75.2007 5.08762C75.9978 5.08762 76.7051 5.24392 77.3225 5.55653C77.9399 5.86132 78.4596 6.29896 78.8816 6.86946C79.3036 7.43996 79.6201 8.12378 79.8311 8.92092C80.0499 9.71025 80.1593 10.5894 80.1593 11.5585ZM77.9789 11.8047V11.5585C77.9789 10.9255 77.9125 10.3315 77.7797 9.77667C77.6468 9.21399 77.4397 8.72164 77.1584 8.29962C76.8848 7.86979 76.5331 7.53374 76.1033 7.29148C75.6735 7.04139 75.1616 6.91635 74.5677 6.91635C74.0206 6.91635 73.5439 7.01013 73.1375 7.1977C72.7389 7.38526 72.399 7.63925 72.1176 7.95967C71.8363 8.27227 71.6057 8.63176 71.426 9.03815C71.2541 9.43672 71.1251 9.85092 71.0391 10.2807V13.3169C71.1954 13.864 71.4143 14.3798 71.6956 14.8643C71.977 15.341 72.3521 15.7279 72.821 16.0248C73.2899 16.314 73.8799 16.4586 74.5911 16.4586C75.1772 16.4586 75.6813 16.3374 76.1033 16.0952C76.5331 15.8451 76.8848 15.5051 77.1584 15.0753C77.4397 14.6455 77.6468 14.1531 77.7797 13.5983C77.9125 13.0356 77.9789 12.4377 77.9789 11.8047Z" fill="black"/>
<path d="M88.1894 18.2404C87.3062 18.2404 86.5052 18.0919 85.7862 17.795C85.075 17.4902 84.4616 17.0642 83.9458 16.5172C83.4378 15.9701 83.047 15.3215 82.7735 14.5712C82.5 13.821 82.3632 13.0004 82.3632 12.1095V11.6171C82.3632 10.5855 82.5156 9.66726 82.8204 8.86231C83.1252 8.04954 83.5394 7.36181 84.063 6.79913C84.5866 6.23644 85.1805 5.81052 85.8448 5.52136C86.5091 5.2322 87.1968 5.08762 87.908 5.08762C88.8146 5.08762 89.5961 5.24392 90.2525 5.55653C90.9168 5.86913 91.46 6.30678 91.882 6.86946C92.304 7.42433 92.6166 8.0808 92.8198 8.83886C93.023 9.58911 93.1246 10.4097 93.1246 11.3006V12.2736H83.6527V10.5035H90.9559V10.3394C90.9246 9.77667 90.8074 9.22962 90.6042 8.69819C90.4088 8.16677 90.0962 7.72912 89.6664 7.38526C89.2366 7.04139 88.6504 6.86946 87.908 6.86946C87.4157 6.86946 86.9624 6.97497 86.5482 7.18597C86.134 7.38916 85.7784 7.69395 85.4814 8.10034C85.1844 8.50672 84.9539 9.00298 84.7898 9.58911C84.6257 10.1752 84.5436 10.8512 84.5436 11.6171V12.1095C84.5436 12.7112 84.6257 13.2778 84.7898 13.8093C84.9617 14.3329 85.2079 14.794 85.5283 15.1925C85.8565 15.5911 86.2512 15.9037 86.7123 16.1303C87.1812 16.357 87.7126 16.4703 88.3066 16.4703C89.0725 16.4703 89.7211 16.314 90.2525 16.0014C90.784 15.6888 91.249 15.2707 91.6475 14.7471L92.9605 15.7904C92.6869 16.2046 92.3392 16.5992 91.9171 16.9744C91.4951 17.3495 90.9754 17.6543 90.358 17.8887C89.7485 18.1232 89.0256 18.2404 88.1894 18.2404Z" fill="black"/>
<path d="M97.8254 7.31492V18.006H95.6567V5.32207H97.7667L97.8254 7.31492ZM101.788 5.25174L101.776 7.26803C101.596 7.22896 101.424 7.20551 101.26 7.1977C101.104 7.18207 100.924 7.17425 100.721 7.17425C100.221 7.17425 99.7791 7.2524 99.3962 7.4087C99.0132 7.565 98.6889 7.78383 98.4232 8.06517C98.1575 8.34651 97.9465 8.68256 97.7902 9.07332C97.6417 9.45626 97.544 9.87827 97.4971 10.3394L96.8875 10.691C96.8875 9.92516 96.9618 9.20617 97.1103 8.53408C97.2666 7.86198 97.5049 7.26803 97.8254 6.75224C98.1458 6.22862 98.5522 5.82224 99.0445 5.53308C99.5447 5.23611 100.139 5.08762 100.826 5.08762C100.983 5.08762 101.162 5.10716 101.366 5.14623C101.569 5.1775 101.709 5.21266 101.788 5.25174Z" fill="black"/>
<path d="M110.802 15.8373V9.30777C110.802 8.8076 110.701 8.37387 110.498 8.00656C110.302 7.63143 110.005 7.34227 109.607 7.13908C109.208 6.93589 108.716 6.83429 108.13 6.83429C107.582 6.83429 107.102 6.92807 106.688 7.11564C106.281 7.3032 105.961 7.54937 105.726 7.85416C105.5 8.15895 105.386 8.48718 105.386 8.83886H103.218C103.218 8.38559 103.335 7.93622 103.569 7.49076C103.804 7.0453 104.14 6.64282 104.578 6.28333C105.023 5.91602 105.554 5.62686 106.172 5.41586C106.797 5.19703 107.493 5.08762 108.258 5.08762C109.181 5.08762 109.993 5.24392 110.697 5.55653C111.408 5.86913 111.963 6.34194 112.361 6.97497C112.768 7.60017 112.971 8.38559 112.971 9.33121V15.2394C112.971 15.6614 113.006 16.1108 113.076 16.5875C113.155 17.0642 113.268 17.4745 113.416 17.8184V18.006H111.154C111.045 17.7559 110.959 17.4237 110.896 17.0095C110.834 16.5875 110.802 16.1968 110.802 15.8373ZM111.177 10.3159L111.201 11.8399H109.009C108.391 11.8399 107.84 11.8907 107.356 11.9923C106.871 12.086 106.465 12.2306 106.137 12.426C105.808 12.6214 105.558 12.8675 105.386 13.1645C105.215 13.4537 105.129 13.7936 105.129 14.1844C105.129 14.583 105.218 14.9464 105.398 15.2746C105.578 15.6028 105.848 15.8646 106.207 16.06C106.574 16.2476 107.024 16.3413 107.555 16.3413C108.219 16.3413 108.806 16.2007 109.314 15.9193C109.822 15.638 110.224 15.2941 110.521 14.8877C110.826 14.4814 110.99 14.0867 111.013 13.7038L111.939 14.7471C111.885 15.0753 111.736 15.4387 111.494 15.8373C111.252 16.2358 110.927 16.6188 110.521 16.9861C110.122 17.3456 109.646 17.6465 109.091 17.8887C108.544 18.1232 107.926 18.2404 107.239 18.2404C106.379 18.2404 105.625 18.0724 104.976 17.7363C104.335 17.4003 103.835 16.9509 103.476 16.3882C103.124 15.8177 102.948 15.1808 102.948 14.4774C102.948 13.7975 103.081 13.1997 103.347 12.6839C103.612 12.1603 103.995 11.7265 104.496 11.3827C104.996 11.031 105.597 10.7653 106.301 10.5855C107.004 10.4058 107.79 10.3159 108.657 10.3159H111.177Z" fill="black"/>
<path d="M123.768 14.6416C123.768 14.329 123.697 14.0398 123.557 13.7741C123.424 13.5006 123.146 13.2544 122.724 13.0356C122.31 12.8089 121.685 12.6136 120.849 12.4494C120.145 12.3009 119.508 12.1251 118.938 11.9219C118.375 11.7187 117.894 11.4725 117.496 11.1834C117.105 10.8942 116.804 10.5543 116.593 10.1635C116.382 9.77277 116.277 9.31558 116.277 8.79197C116.277 8.29181 116.386 7.81899 116.605 7.37353C116.832 6.92807 117.148 6.53341 117.555 6.18955C117.969 5.84569 118.465 5.57606 119.043 5.38069C119.622 5.18531 120.266 5.08762 120.978 5.08762C121.994 5.08762 122.861 5.26737 123.58 5.62686C124.299 5.98636 124.85 6.46698 125.233 7.06875C125.616 7.66269 125.807 8.32307 125.807 9.04987H123.639C123.639 8.69819 123.533 8.35824 123.322 8.03C123.119 7.69395 122.818 7.41652 122.419 7.1977C122.029 6.97887 121.548 6.86946 120.978 6.86946C120.376 6.86946 119.887 6.96324 119.512 7.1508C119.145 7.33055 118.875 7.5611 118.703 7.84244C118.539 8.12378 118.457 8.42076 118.457 8.73336C118.457 8.96781 118.496 9.17882 118.574 9.36638C118.66 9.54613 118.809 9.71415 119.02 9.87045C119.231 10.0189 119.528 10.1596 119.911 10.2925C120.294 10.4253 120.782 10.5582 121.376 10.691C122.416 10.9255 123.271 11.2068 123.943 11.5351C124.615 11.8633 125.116 12.2658 125.444 12.7425C125.772 13.2192 125.936 13.7975 125.936 14.4774C125.936 15.0323 125.819 15.5403 125.585 16.0014C125.358 16.4625 125.026 16.8611 124.588 17.1971C124.158 17.5253 123.642 17.7832 123.041 17.9708C122.447 18.1505 121.779 18.2404 121.036 18.2404C119.919 18.2404 118.973 18.0411 118.199 17.6426C117.426 17.244 116.839 16.7282 116.441 16.0952C116.042 15.4621 115.843 14.794 115.843 14.0906H118.023C118.055 14.6845 118.227 15.1574 118.539 15.509C118.852 15.8529 119.235 16.0991 119.688 16.2476C120.141 16.3882 120.591 16.4586 121.036 16.4586C121.63 16.4586 122.126 16.3804 122.525 16.2241C122.931 16.0678 123.24 15.8529 123.451 15.5794C123.662 15.3058 123.768 14.9932 123.768 14.6416Z" fill="black"/>
<path d="M131.141 5.32207V18.006H128.961V5.32207H131.141ZM128.797 1.95768C128.797 1.606 128.902 1.30903 129.113 1.06676C129.332 0.824492 129.652 0.703358 130.074 0.703358C130.489 0.703358 130.805 0.824492 131.024 1.06676C131.25 1.30903 131.364 1.606 131.364 1.95768C131.364 2.29373 131.25 2.58289 131.024 2.82515C130.805 3.05961 130.489 3.17683 130.074 3.17683C129.652 3.17683 129.332 3.05961 129.113 2.82515C128.902 2.58289 128.797 2.29373 128.797 1.95768Z" fill="black"/>
<path d="M134.048 11.8047V11.5351C134.048 10.6207 134.181 9.77277 134.447 8.99126C134.713 8.20193 135.096 7.51811 135.596 6.9398C136.096 6.35367 136.702 5.90039 137.413 5.57997C138.124 5.25174 138.921 5.08762 139.804 5.08762C140.695 5.08762 141.496 5.25174 142.207 5.57997C142.926 5.90039 143.536 6.35367 144.036 6.9398C144.544 7.51811 144.931 8.20193 145.197 8.99126C145.462 9.77277 145.595 10.6207 145.595 11.5351V11.8047C145.595 12.7191 145.462 13.567 145.197 14.3485C144.931 15.13 144.544 15.8138 144.036 16.4C143.536 16.9783 142.93 17.4316 142.219 17.7598C141.516 18.0802 140.718 18.2404 139.828 18.2404C138.937 18.2404 138.136 18.0802 137.424 17.7598C136.713 17.4316 136.104 16.9783 135.596 16.4C135.096 15.8138 134.713 15.13 134.447 14.3485C134.181 13.567 134.048 12.7191 134.048 11.8047ZM136.217 11.5351V11.8047C136.217 12.4377 136.291 13.0356 136.44 13.5983C136.588 14.1531 136.811 14.6455 137.108 15.0753C137.413 15.5051 137.792 15.8451 138.245 16.0952C138.698 16.3374 139.226 16.4586 139.828 16.4586C140.421 16.4586 140.941 16.3374 141.387 16.0952C141.84 15.8451 142.215 15.5051 142.512 15.0753C142.809 14.6455 143.032 14.1531 143.18 13.5983C143.337 13.0356 143.415 12.4377 143.415 11.8047V11.5351C143.415 10.9099 143.337 10.3198 143.18 9.76495C143.032 9.20227 142.805 8.70601 142.5 8.27618C142.203 7.83853 141.828 7.49467 141.375 7.24459C140.929 6.9945 140.406 6.86946 139.804 6.86946C139.21 6.86946 138.687 6.9945 138.233 7.24459C137.788 7.49467 137.413 7.83853 137.108 8.27618C136.811 8.70601 136.588 9.20227 136.44 9.76495C136.291 10.3198 136.217 10.9099 136.217 11.5351Z" fill="black"/>
<path d="M150.483 8.03V18.006H148.315V5.32207H150.366L150.483 8.03ZM149.968 11.1834L149.065 11.1482C149.073 10.2807 149.202 9.4797 149.452 8.74508C149.702 8.00265 150.054 7.3579 150.507 6.81085C150.96 6.26379 151.499 5.84178 152.125 5.5448C152.758 5.24002 153.457 5.08762 154.223 5.08762C154.848 5.08762 155.411 5.17359 155.911 5.34552C156.411 5.50964 156.837 5.77535 157.189 6.14266C157.548 6.50997 157.822 6.98669 158.009 7.57282C158.197 8.15114 158.291 8.8584 158.291 9.69462V18.006H156.11V9.67117C156.11 9.00689 156.013 8.47546 155.817 8.07689C155.622 7.67051 155.337 7.37744 154.961 7.1977C154.586 7.01013 154.125 6.91635 153.578 6.91635C153.039 6.91635 152.547 7.02967 152.101 7.25631C151.663 7.48295 151.284 7.79555 150.964 8.19412C150.651 8.59269 150.405 9.04987 150.226 9.56567C150.054 10.0736 149.968 10.6129 149.968 11.1834Z" fill="black"/>
<path d="M169.064 15.8373V9.30777C169.064 8.8076 168.962 8.37387 168.759 8.00656C168.564 7.63143 168.267 7.34227 167.868 7.13908C167.47 6.93589 166.977 6.83429 166.391 6.83429C165.844 6.83429 165.363 6.92807 164.949 7.11564C164.543 7.3032 164.222 7.54937 163.988 7.85416C163.761 8.15895 163.648 8.48718 163.648 8.83886H161.479C161.479 8.38559 161.596 7.93622 161.831 7.49076C162.065 7.0453 162.401 6.64282 162.839 6.28333C163.285 5.91602 163.816 5.62686 164.433 5.41586C165.059 5.19703 165.754 5.08762 166.52 5.08762C167.442 5.08762 168.255 5.24392 168.958 5.55653C169.669 5.86913 170.224 6.34194 170.623 6.97497C171.029 7.60017 171.232 8.38559 171.232 9.33121V15.2394C171.232 15.6614 171.268 16.1108 171.338 16.5875C171.416 17.0642 171.529 17.4745 171.678 17.8184V18.006H169.415C169.306 17.7559 169.22 17.4237 169.158 17.0095C169.095 16.5875 169.064 16.1968 169.064 15.8373ZM169.439 10.3159L169.462 11.8399H167.27C166.653 11.8399 166.102 11.8907 165.617 11.9923C165.133 12.086 164.726 12.2306 164.398 12.426C164.07 12.6214 163.82 12.8675 163.648 13.1645C163.476 13.4537 163.39 13.7936 163.39 14.1844C163.39 14.583 163.48 14.9464 163.66 15.2746C163.839 15.6028 164.109 15.8646 164.469 16.06C164.836 16.2476 165.285 16.3413 165.817 16.3413C166.481 16.3413 167.067 16.2007 167.575 15.9193C168.083 15.638 168.485 15.2941 168.782 14.8877C169.087 14.4814 169.251 14.0867 169.275 13.7038L170.201 14.7471C170.146 15.0753 169.998 15.4387 169.755 15.8373C169.513 16.2358 169.189 16.6188 168.782 16.9861C168.384 17.3456 167.907 17.6465 167.352 17.8887C166.805 18.1232 166.188 18.2404 165.5 18.2404C164.64 18.2404 163.886 18.0724 163.238 17.7363C162.597 17.4003 162.097 16.9509 161.737 16.3882C161.385 15.8177 161.21 15.1808 161.21 14.4774C161.21 13.7975 161.342 13.1997 161.608 12.6839C161.874 12.1603 162.257 11.7265 162.757 11.3827C163.257 11.031 163.859 10.7653 164.562 10.5855C165.266 10.4058 166.051 10.3159 166.919 10.3159H169.439Z" fill="black"/>
<path d="M177 0V18.006H174.82V0H177Z" fill="black"/>
</svg>
