<svg width="90" height="21" viewBox="0 0 90 21" fill="none" xmlns="http://www.w3.org/2000/svg">
<path d="M40.6172 13.3496V3.28125H42.4922V13.3496C42.4922 14.2871 42.3001 15.0781 41.916 15.7227C41.5319 16.3672 41.0013 16.8587 40.3242 17.1973C39.6536 17.5293 38.8822 17.6953 38.0098 17.6953C37.1374 17.6953 36.3626 17.5456 35.6855 17.2461C35.0085 16.9466 34.4779 16.4909 34.0938 15.8789C33.7096 15.2669 33.5176 14.4954 33.5176 13.5645H35.4023C35.4023 14.1634 35.513 14.6549 35.7344 15.0391C35.9557 15.4232 36.2617 15.7064 36.6523 15.8887C37.0495 16.071 37.502 16.1621 38.0098 16.1621C38.5046 16.1621 38.9473 16.0579 39.3379 15.8496C39.735 15.6348 40.0475 15.319 40.2754 14.9023C40.5033 14.4792 40.6172 13.9616 40.6172 13.3496Z" fill="black"/>
<path d="M51.877 15.0586V6.93359H53.6934V17.5H51.9648L51.877 15.0586ZM52.2188 12.832L52.9707 12.8125C52.9707 13.5156 52.8958 14.1667 52.7461 14.7656C52.6029 15.3581 52.3685 15.8724 52.043 16.3086C51.7174 16.7448 51.291 17.0866 50.7637 17.334C50.2363 17.5749 49.5951 17.6953 48.8398 17.6953C48.3255 17.6953 47.8535 17.6204 47.4238 17.4707C47.0007 17.321 46.6361 17.0898 46.3301 16.7773C46.0241 16.4648 45.7865 16.0579 45.6172 15.5566C45.4544 15.0553 45.373 14.4531 45.373 13.75V6.93359H47.1797V13.7695C47.1797 14.2448 47.2318 14.6387 47.3359 14.9512C47.4466 15.2572 47.5931 15.5013 47.7754 15.6836C47.9642 15.8594 48.1725 15.9831 48.4004 16.0547C48.6348 16.1263 48.8757 16.1621 49.123 16.1621C49.8913 16.1621 50.5 16.0156 50.9492 15.7227C51.3984 15.4232 51.7207 15.0228 51.916 14.5215C52.1178 14.0137 52.2188 13.4505 52.2188 12.832Z" fill="black"/>
<path d="M58.2441 9.0332V17.5H56.4277V6.93359H58.1465L58.2441 9.0332ZM57.873 11.8164L57.0332 11.7871C57.0397 11.0645 57.1341 10.3971 57.3164 9.78516C57.4987 9.16667 57.7689 8.62956 58.127 8.17383C58.485 7.7181 58.931 7.36654 59.4648 7.11914C59.9987 6.86523 60.6172 6.73828 61.3203 6.73828C61.8151 6.73828 62.2708 6.8099 62.6875 6.95312C63.1042 7.08984 63.4655 7.30794 63.7715 7.60742C64.0775 7.9069 64.3151 8.29102 64.4844 8.75977C64.6536 9.22852 64.7383 9.79492 64.7383 10.459V17.5H62.9316V10.5469C62.9316 9.99349 62.8372 9.55078 62.6484 9.21875C62.4661 8.88672 62.2057 8.64583 61.8672 8.49609C61.5286 8.33984 61.1315 8.26172 60.6758 8.26172C60.1419 8.26172 59.696 8.35612 59.3379 8.54492C58.9798 8.73372 58.6934 8.99414 58.4785 9.32617C58.2637 9.6582 58.1074 10.0391 58.0098 10.4688C57.9186 10.8919 57.873 11.3411 57.873 11.8164ZM64.7188 10.8203L63.5078 11.1914C63.5143 10.612 63.6087 10.0553 63.791 9.52148C63.9798 8.98763 64.25 8.51237 64.6016 8.0957C64.9596 7.67904 65.3991 7.35026 65.9199 7.10938C66.4408 6.86198 67.0365 6.73828 67.707 6.73828C68.2734 6.73828 68.7747 6.81315 69.2109 6.96289C69.6536 7.11263 70.0247 7.34375 70.3242 7.65625C70.6302 7.96224 70.8613 8.35612 71.0176 8.83789C71.1738 9.31966 71.252 9.89258 71.252 10.5566V17.5H69.4355V10.5371C69.4355 9.94466 69.3411 9.48568 69.1523 9.16016C68.9701 8.82812 68.7096 8.59701 68.3711 8.4668C68.0391 8.33008 67.6419 8.26172 67.1797 8.26172C66.7826 8.26172 66.431 8.33008 66.125 8.4668C65.819 8.60352 65.5618 8.79232 65.3535 9.0332C65.1452 9.26758 64.9857 9.53776 64.875 9.84375C64.7708 10.1497 64.7188 10.4753 64.7188 10.8203Z" fill="black"/>
<path d="M80.2168 15.6934V10.2539C80.2168 9.83724 80.1322 9.47591 79.9629 9.16992C79.8001 8.85742 79.5527 8.61654 79.2207 8.44727C78.8887 8.27799 78.4785 8.19336 77.9902 8.19336C77.5345 8.19336 77.1341 8.27148 76.7891 8.42773C76.4505 8.58398 76.1836 8.78906 75.9883 9.04297C75.7995 9.29688 75.7051 9.57031 75.7051 9.86328H73.8984C73.8984 9.48568 73.9961 9.11133 74.1914 8.74023C74.3867 8.36914 74.6667 8.03385 75.0312 7.73438C75.4023 7.42839 75.8451 7.1875 76.3594 7.01172C76.8802 6.82943 77.4596 6.73828 78.0977 6.73828C78.8659 6.73828 79.543 6.86849 80.1289 7.12891C80.7214 7.38932 81.1836 7.7832 81.5156 8.31055C81.8542 8.83138 82.0234 9.48568 82.0234 10.2734V15.1953C82.0234 15.5469 82.0527 15.9212 82.1113 16.3184C82.1764 16.7155 82.2708 17.0573 82.3945 17.3438V17.5H80.5098C80.4186 17.2917 80.347 17.015 80.2949 16.6699C80.2428 16.3184 80.2168 15.9928 80.2168 15.6934ZM80.5293 11.0938L80.5488 12.3633H78.7227C78.2083 12.3633 77.7493 12.4056 77.3457 12.4902C76.9421 12.5684 76.6035 12.6888 76.3301 12.8516C76.0566 13.0143 75.8483 13.2194 75.7051 13.4668C75.5618 13.7077 75.4902 13.9909 75.4902 14.3164C75.4902 14.6484 75.5651 14.9512 75.7148 15.2246C75.8646 15.498 76.0892 15.7161 76.3887 15.8789C76.6947 16.0352 77.069 16.1133 77.5117 16.1133C78.0651 16.1133 78.5534 15.9961 78.9766 15.7617C79.3997 15.5273 79.735 15.2409 79.9824 14.9023C80.2363 14.5638 80.373 14.235 80.3926 13.916L81.1641 14.7852C81.1185 15.0586 80.9948 15.3613 80.793 15.6934C80.5911 16.0254 80.321 16.3444 79.9824 16.6504C79.6504 16.9499 79.2533 17.2005 78.791 17.4023C78.3353 17.5977 77.821 17.6953 77.248 17.6953C76.5319 17.6953 75.9036 17.5553 75.3633 17.2754C74.8294 16.9954 74.4128 16.6211 74.1133 16.1523C73.8203 15.6771 73.6738 15.1465 73.6738 14.5605C73.6738 13.9941 73.7845 13.4961 74.0059 13.0664C74.2272 12.6302 74.5462 12.2689 74.9629 11.9824C75.3796 11.6895 75.8809 11.4681 76.4668 11.3184C77.0527 11.1686 77.707 11.0938 78.4297 11.0938H80.5293Z" fill="black"/>
<path d="M89.2891 6.93359V8.32031H83.5762V6.93359H89.2891ZM85.5098 4.36523H87.3164V14.8828C87.3164 15.2409 87.3717 15.5111 87.4824 15.6934C87.5931 15.8757 87.7363 15.9961 87.9121 16.0547C88.0879 16.1133 88.2767 16.1426 88.4785 16.1426C88.6283 16.1426 88.7845 16.1296 88.9473 16.1035C89.1165 16.071 89.2435 16.0449 89.3281 16.0254L89.3379 17.5C89.1947 17.5456 89.0059 17.5879 88.7715 17.627C88.5436 17.6725 88.2669 17.6953 87.9414 17.6953C87.4987 17.6953 87.0918 17.6074 86.7207 17.4316C86.3496 17.2559 86.0534 16.9629 85.832 16.5527C85.6172 16.1361 85.5098 15.5762 85.5098 14.873V4.36523Z" fill="black"/>
<path d="M18.75 0H2.25C0.984375 0 0 1.03125 0 2.25V18.75C0 20.0156 0.984375 21 2.25 21H18.75C19.9688 21 21 20.0156 21 18.75V2.25C21 1.03125 19.9688 0 18.75 0ZM18.75 18.75H2.25V2.25H18.75V18.75ZM17.0625 7.45312C17.25 7.21875 17.25 6.89062 17.0625 6.65625L15.9844 5.57812C15.7969 5.34375 15.4219 5.34375 15.1875 5.57812L8.57812 12.1406L5.76562 9.32812C5.53125 9.09375 5.20312 9.09375 4.96875 9.32812L3.89062 10.3594C3.70312 10.5938 3.70312 10.9688 3.89062 11.1562L8.15625 15.4688C8.39062 15.7031 8.71875 15.7031 8.95312 15.4688L17.0625 7.45312Z" fill="black"/>
</svg>
