<svg width="35" height="30" viewBox="0 0 35 30" fill="none" xmlns="http://www.w3.org/2000/svg">
<path d="M30.2703 3.09009C26.6126 0 21 0.441441 17.5315 4.03604C14 0.441441 8.38739 0 4.72973 3.09009C0 7.06306 0.693694 13.5586 4.0991 17.027L15.1351 28.3153C15.7658 28.9459 16.5856 29.3243 17.5315 29.3243C18.4144 29.3243 19.2342 28.9459 19.8649 28.3153L30.964 17.027C34.3063 13.5586 35 7.06306 30.2703 3.09009ZM28.7568 14.8829L17.7207 26.1712C17.5946 26.2973 17.4685 26.2973 17.2793 26.1712L6.24324 14.8829C3.90991 12.5495 3.46847 8.13514 6.68468 5.42342C9.14414 3.34234 12.9279 3.65766 15.3243 6.05405L17.5315 8.32432L19.7387 6.05405C22.0721 3.65766 25.8559 3.34234 28.3153 5.36036C31.5315 8.13514 31.0901 12.5495 28.7568 14.8829Z" fill="#966A46"/>
</svg>
