<svg width="15" height="21" viewBox="0 0 15 21" fill="none" xmlns="http://www.w3.org/2000/svg">
<path d="M8.28125 0.546875C7.92969 0 7.10937 0 6.75781 0.546875C1.05469 8.75 0 9.60938 0 12.6563C0 16.7969 3.35938 20.1563 7.5 20.1563C11.6797 20.1562 15 16.7969 15 12.6562C15 9.60938 13.9844 8.75 8.28125 0.546875ZM7.5 9.53125C9.25781 9.53125 10.625 10.8984 10.625 12.6563C10.625 14.375 9.25781 15.7813 7.5 15.7813C5.78125 15.7813 4.375 14.375 4.375 12.6563C4.375 10.8984 5.78125 9.53125 7.5 9.53125Z" fill="black"/>
</svg>
