<svg width="320" height="53" viewBox="0 0 320 53" fill="none" xmlns="http://www.w3.org/2000/svg">
<path d="M0.5 20C0.5 9.23045 9.23045 0.5 20 0.5H300C310.77 0.5 319.5 9.23045 319.5 20V33C319.5 43.7696 310.77 52.5 300 52.5H20C9.23045 52.5 0.5 43.7696 0.5 33V20Z" fill="#D9D9D9" stroke="black"/>
<path d="M22.0001 33H31.0001C33.4845 33 35.5001 30.9844 35.5001 28.5H37.0001C40.2813 28.5 43.0001 25.8281 43.0001 22.5C43.0001 19.2188 40.2813 16.5 37.0001 16.5H18.6251C17.9688 16.5 17.5001 17.0156 17.5001 17.625V28.5C17.5001 30.9844 19.5157 33 22.0001 33ZM37.0001 19.5C38.6407 19.5 40.0001 20.8594 40.0001 22.5C40.0001 24.1875 38.6407 25.5 37.0001 25.5H35.5001V19.5H37.0001ZM39.2032 37.5C41.4532 37.5 42.0626 34.5 40.8907 34.5H13.5626C12.3907 34.5 13.0001 37.5 15.2501 37.5H39.2032Z" fill="black" fill-opacity="0.5"/>
<path d="M88.1055 19.9375V37H85.832L77.2422 23.8398V37H74.9805V19.9375H77.2422L85.8672 33.1328V19.9375H88.1055Z" fill="black" fill-opacity="0.5"/>
<path d="M99.2617 34.832V28.3047C99.2617 27.8047 99.1602 27.3711 98.957 27.0039C98.7617 26.6289 98.4648 26.3398 98.0664 26.1367C97.668 25.9336 97.1758 25.832 96.5898 25.832C96.043 25.832 95.5625 25.9258 95.1484 26.1133C94.7422 26.3008 94.4219 26.5469 94.1875 26.8516C93.9609 27.1562 93.8477 27.4844 93.8477 27.8359H91.6797C91.6797 27.3828 91.7969 26.9336 92.0312 26.4883C92.2656 26.043 92.6016 25.6406 93.0391 25.2812C93.4844 24.9141 94.0156 24.625 94.6328 24.4141C95.2578 24.1953 95.9531 24.0859 96.7188 24.0859C97.6406 24.0859 98.4531 24.2422 99.1562 24.5547C99.8672 24.8672 100.422 25.3398 100.82 25.9727C101.227 26.5977 101.43 27.3828 101.43 28.3281V34.2344C101.43 34.6562 101.465 35.1055 101.535 35.582C101.613 36.0586 101.727 36.4688 101.875 36.8125V37H99.6133C99.5039 36.75 99.418 36.418 99.3555 36.0039C99.293 35.582 99.2617 35.1914 99.2617 34.832ZM99.6367 29.3125L99.6602 30.8359H97.4688C96.8516 30.8359 96.3008 30.8867 95.8164 30.9883C95.332 31.082 94.9258 31.2266 94.5977 31.4219C94.2695 31.6172 94.0195 31.8633 93.8477 32.1602C93.6758 32.4492 93.5898 32.7891 93.5898 33.1797C93.5898 33.5781 93.6797 33.9414 93.8594 34.2695C94.0391 34.5977 94.3086 34.8594 94.668 35.0547C95.0352 35.2422 95.4844 35.3359 96.0156 35.3359C96.6797 35.3359 97.2656 35.1953 97.7734 34.9141C98.2812 34.6328 98.6836 34.2891 98.9805 33.8828C99.2852 33.4766 99.4492 33.082 99.4727 32.6992L100.398 33.7422C100.344 34.0703 100.195 34.4336 99.9531 34.832C99.7109 35.2305 99.3867 35.6133 98.9805 35.9805C98.582 36.3398 98.1055 36.6406 97.5508 36.8828C97.0039 37.1172 96.3867 37.2344 95.6992 37.2344C94.8398 37.2344 94.0859 37.0664 93.4375 36.7305C92.7969 36.3945 92.2969 35.9453 91.9375 35.3828C91.5859 34.8125 91.4102 34.1758 91.4102 33.4727C91.4102 32.793 91.543 32.1953 91.8086 31.6797C92.0742 31.1562 92.457 30.7227 92.957 30.3789C93.457 30.0273 94.0586 29.7617 94.7617 29.582C95.4648 29.4023 96.25 29.3125 97.1172 29.3125H99.6367Z" fill="black" fill-opacity="0.5"/>
<path d="M106.996 26.8398V37H104.816V24.3203H106.879L106.996 26.8398ZM106.551 30.1797L105.543 30.1445C105.551 29.2773 105.664 28.4766 105.883 27.7422C106.102 27 106.426 26.3555 106.855 25.8086C107.285 25.2617 107.82 24.8398 108.461 24.543C109.102 24.2383 109.844 24.0859 110.688 24.0859C111.281 24.0859 111.828 24.1719 112.328 24.3438C112.828 24.5078 113.262 24.7695 113.629 25.1289C113.996 25.4883 114.281 25.9492 114.484 26.5117C114.688 27.0742 114.789 27.7539 114.789 28.5508V37H112.621V28.6562C112.621 27.9922 112.508 27.4609 112.281 27.0625C112.062 26.6641 111.75 26.375 111.344 26.1953C110.938 26.0078 110.461 25.9141 109.914 25.9141C109.273 25.9141 108.738 26.0273 108.309 26.2539C107.879 26.4805 107.535 26.793 107.277 27.1914C107.02 27.5898 106.832 28.0469 106.715 28.5625C106.605 29.0703 106.551 29.6094 106.551 30.1797ZM114.766 28.9844L113.312 29.4297C113.32 28.7344 113.434 28.0664 113.652 27.4258C113.879 26.7852 114.203 26.2148 114.625 25.7148C115.055 25.2148 115.582 24.8203 116.207 24.5312C116.832 24.2344 117.547 24.0859 118.352 24.0859C119.031 24.0859 119.633 24.1758 120.156 24.3555C120.688 24.5352 121.133 24.8125 121.492 25.1875C121.859 25.5547 122.137 26.0273 122.324 26.6055C122.512 27.1836 122.605 27.8711 122.605 28.668V37H120.426V28.6445C120.426 27.9336 120.312 27.3828 120.086 26.9922C119.867 26.5938 119.555 26.3164 119.148 26.1602C118.75 25.9961 118.273 25.9141 117.719 25.9141C117.242 25.9141 116.82 25.9961 116.453 26.1602C116.086 26.3242 115.777 26.5508 115.527 26.8398C115.277 27.1211 115.086 27.4453 114.953 27.8125C114.828 28.1797 114.766 28.5703 114.766 28.9844Z" fill="black" fill-opacity="0.5"/>
<path d="M133.363 34.832V28.3047C133.363 27.8047 133.262 27.3711 133.059 27.0039C132.863 26.6289 132.566 26.3398 132.168 26.1367C131.77 25.9336 131.277 25.832 130.691 25.832C130.145 25.832 129.664 25.9258 129.25 26.1133C128.844 26.3008 128.523 26.5469 128.289 26.8516C128.062 27.1562 127.949 27.4844 127.949 27.8359H125.781C125.781 27.3828 125.898 26.9336 126.133 26.4883C126.367 26.043 126.703 25.6406 127.141 25.2812C127.586 24.9141 128.117 24.625 128.734 24.4141C129.359 24.1953 130.055 24.0859 130.82 24.0859C131.742 24.0859 132.555 24.2422 133.258 24.5547C133.969 24.8672 134.523 25.3398 134.922 25.9727C135.328 26.5977 135.531 27.3828 135.531 28.3281V34.2344C135.531 34.6562 135.566 35.1055 135.637 35.582C135.715 36.0586 135.828 36.4688 135.977 36.8125V37H133.715C133.605 36.75 133.52 36.418 133.457 36.0039C133.395 35.582 133.363 35.1914 133.363 34.832ZM133.738 29.3125L133.762 30.8359H131.57C130.953 30.8359 130.402 30.8867 129.918 30.9883C129.434 31.082 129.027 31.2266 128.699 31.4219C128.371 31.6172 128.121 31.8633 127.949 32.1602C127.777 32.4492 127.691 32.7891 127.691 33.1797C127.691 33.5781 127.781 33.9414 127.961 34.2695C128.141 34.5977 128.41 34.8594 128.77 35.0547C129.137 35.2422 129.586 35.3359 130.117 35.3359C130.781 35.3359 131.367 35.1953 131.875 34.9141C132.383 34.6328 132.785 34.2891 133.082 33.8828C133.387 33.4766 133.551 33.082 133.574 32.6992L134.5 33.7422C134.445 34.0703 134.297 34.4336 134.055 34.832C133.812 35.2305 133.488 35.6133 133.082 35.9805C132.684 36.3398 132.207 36.6406 131.652 36.8828C131.105 37.1172 130.488 37.2344 129.801 37.2344C128.941 37.2344 128.188 37.0664 127.539 36.7305C126.898 36.3945 126.398 35.9453 126.039 35.3828C125.688 34.8125 125.512 34.1758 125.512 33.4727C125.512 32.793 125.645 32.1953 125.91 31.6797C126.176 31.1562 126.559 30.7227 127.059 30.3789C127.559 30.0273 128.16 29.7617 128.863 29.582C129.566 29.4023 130.352 29.3125 131.219 29.3125H133.738Z" fill="black" fill-opacity="0.5"/>
<path d="M149.969 35.4531C150.484 35.4531 150.961 35.3477 151.398 35.1367C151.836 34.9258 152.195 34.6367 152.477 34.2695C152.758 33.8945 152.918 33.4688 152.957 32.9922H155.02C154.98 33.7422 154.727 34.4414 154.258 35.0898C153.797 35.7305 153.191 36.25 152.441 36.6484C151.691 37.0391 150.867 37.2344 149.969 37.2344C149.016 37.2344 148.184 37.0664 147.473 36.7305C146.77 36.3945 146.184 35.9336 145.715 35.3477C145.254 34.7617 144.906 34.0898 144.672 33.332C144.445 32.5664 144.332 31.7578 144.332 30.9062V30.4141C144.332 29.5625 144.445 28.7578 144.672 28C144.906 27.2344 145.254 26.5586 145.715 25.9727C146.184 25.3867 146.77 24.9258 147.473 24.5898C148.184 24.2539 149.016 24.0859 149.969 24.0859C150.961 24.0859 151.828 24.2891 152.57 24.6953C153.312 25.0938 153.895 25.6406 154.316 26.3359C154.746 27.0234 154.98 27.8047 155.02 28.6797H152.957C152.918 28.1562 152.77 27.6836 152.512 27.2617C152.262 26.8398 151.918 26.5039 151.48 26.2539C151.051 25.9961 150.547 25.8672 149.969 25.8672C149.305 25.8672 148.746 26 148.293 26.2656C147.848 26.5234 147.492 26.875 147.227 27.3203C146.969 27.7578 146.781 28.2461 146.664 28.7852C146.555 29.3164 146.5 29.8594 146.5 30.4141V30.9062C146.5 31.4609 146.555 32.0078 146.664 32.5469C146.773 33.0859 146.957 33.5742 147.215 34.0117C147.48 34.4492 147.836 34.8008 148.281 35.0664C148.734 35.3242 149.297 35.4531 149.969 35.4531Z" fill="black" fill-opacity="0.5"/>
<path d="M164.934 34.832V28.3047C164.934 27.8047 164.832 27.3711 164.629 27.0039C164.434 26.6289 164.137 26.3398 163.738 26.1367C163.34 25.9336 162.848 25.832 162.262 25.832C161.715 25.832 161.234 25.9258 160.82 26.1133C160.414 26.3008 160.094 26.5469 159.859 26.8516C159.633 27.1562 159.52 27.4844 159.52 27.8359H157.352C157.352 27.3828 157.469 26.9336 157.703 26.4883C157.938 26.043 158.273 25.6406 158.711 25.2812C159.156 24.9141 159.688 24.625 160.305 24.4141C160.93 24.1953 161.625 24.0859 162.391 24.0859C163.312 24.0859 164.125 24.2422 164.828 24.5547C165.539 24.8672 166.094 25.3398 166.492 25.9727C166.898 26.5977 167.102 27.3828 167.102 28.3281V34.2344C167.102 34.6562 167.137 35.1055 167.207 35.582C167.285 36.0586 167.398 36.4688 167.547 36.8125V37H165.285C165.176 36.75 165.09 36.418 165.027 36.0039C164.965 35.582 164.934 35.1914 164.934 34.832ZM165.309 29.3125L165.332 30.8359H163.141C162.523 30.8359 161.973 30.8867 161.488 30.9883C161.004 31.082 160.598 31.2266 160.27 31.4219C159.941 31.6172 159.691 31.8633 159.52 32.1602C159.348 32.4492 159.262 32.7891 159.262 33.1797C159.262 33.5781 159.352 33.9414 159.531 34.2695C159.711 34.5977 159.98 34.8594 160.34 35.0547C160.707 35.2422 161.156 35.3359 161.688 35.3359C162.352 35.3359 162.938 35.1953 163.445 34.9141C163.953 34.6328 164.355 34.2891 164.652 33.8828C164.957 33.4766 165.121 33.082 165.145 32.6992L166.07 33.7422C166.016 34.0703 165.867 34.4336 165.625 34.832C165.383 35.2305 165.059 35.6133 164.652 35.9805C164.254 36.3398 163.777 36.6406 163.223 36.8828C162.676 37.1172 162.059 37.2344 161.371 37.2344C160.512 37.2344 159.758 37.0664 159.109 36.7305C158.469 36.3945 157.969 35.9453 157.609 35.3828C157.258 34.8125 157.082 34.1758 157.082 33.4727C157.082 32.793 157.215 32.1953 157.48 31.6797C157.746 31.1562 158.129 30.7227 158.629 30.3789C159.129 30.0273 159.73 29.7617 160.434 29.582C161.137 29.4023 161.922 29.3125 162.789 29.3125H165.309Z" fill="black" fill-opacity="0.5"/>
<path d="M173.746 37H171.578V22.9844C171.578 22.0703 171.742 21.3008 172.07 20.6758C172.406 20.043 172.887 19.5664 173.512 19.2461C174.137 18.918 174.879 18.7539 175.738 18.7539C175.988 18.7539 176.238 18.7695 176.488 18.8008C176.746 18.832 176.996 18.8789 177.238 18.9414L177.121 20.7109C176.957 20.6719 176.77 20.6445 176.559 20.6289C176.355 20.6133 176.152 20.6055 175.949 20.6055C175.488 20.6055 175.09 20.6992 174.754 20.8867C174.426 21.0664 174.176 21.332 174.004 21.6836C173.832 22.0352 173.746 22.4688 173.746 22.9844V37ZM176.441 24.3203V25.9844H169.574V24.3203H176.441Z" fill="black" fill-opacity="0.5"/>
<path d="M183.836 37.2344C182.953 37.2344 182.152 37.0859 181.434 36.7891C180.723 36.4844 180.109 36.0586 179.594 35.5117C179.086 34.9648 178.695 34.3164 178.422 33.5664C178.148 32.8164 178.012 31.9961 178.012 31.1055V30.6133C178.012 29.582 178.164 28.6641 178.469 27.8594C178.773 27.0469 179.188 26.3594 179.711 25.7969C180.234 25.2344 180.828 24.8086 181.492 24.5195C182.156 24.2305 182.844 24.0859 183.555 24.0859C184.461 24.0859 185.242 24.2422 185.898 24.5547C186.562 24.8672 187.105 25.3047 187.527 25.8672C187.949 26.4219 188.262 27.0781 188.465 27.8359C188.668 28.5859 188.77 29.4062 188.77 30.2969V31.2695H179.301V29.5H186.602V29.3359C186.57 28.7734 186.453 28.2266 186.25 27.6953C186.055 27.1641 185.742 26.7266 185.312 26.3828C184.883 26.0391 184.297 25.8672 183.555 25.8672C183.062 25.8672 182.609 25.9727 182.195 26.1836C181.781 26.3867 181.426 26.6914 181.129 27.0977C180.832 27.5039 180.602 28 180.438 28.5859C180.273 29.1719 180.191 29.8477 180.191 30.6133V31.1055C180.191 31.707 180.273 32.2734 180.438 32.8047C180.609 33.3281 180.855 33.7891 181.176 34.1875C181.504 34.5859 181.898 34.8984 182.359 35.125C182.828 35.3516 183.359 35.4648 183.953 35.4648C184.719 35.4648 185.367 35.3086 185.898 34.9961C186.43 34.6836 186.895 34.2656 187.293 33.7422L188.605 34.7852C188.332 35.1992 187.984 35.5938 187.562 35.9688C187.141 36.3438 186.621 36.6484 186.004 36.8828C185.395 37.1172 184.672 37.2344 183.836 37.2344Z" fill="black" fill-opacity="0.5"/>
</svg>
